<svg id="图层_1" data-name="图层 1" xmlns="http://www.w3.org/2000/svg" xmlns:xlink="http://www.w3.org/1999/xlink" viewBox="0 0 1795 3964"><defs><style>.cls-1,.cls-49{fill:none;}.cls-2{fill:url(#linear-gradient);}.cls-3{fill:url(#linear-gradient-2);}.cls-4{fill:url(#linear-gradient-3);}.cls-5{clip-path:url(#clip-path);}.cls-6{fill:#003561;}.cls-6,.cls-8{fill-rule:evenodd;}.cls-17,.cls-24,.cls-30,.cls-31,.cls-42,.cls-43,.cls-45,.cls-46,.cls-47,.cls-7{fill:#fff;}.cls-8{fill:#124687;}.cls-9{fill:#f5c467;}.cls-10{fill:#fbd03e;}.cls-11{clip-path:url(#clip-path-2);}.cls-12{fill:#15397b;}.cls-13{clip-path:url(#clip-path-3);}.cls-14{fill:url(#radial-gradient);}.cls-15{clip-path:url(#clip-path-5);}.cls-16{fill:url(#linear-gradient-5);}.cls-17{font-size:72px;}.cls-17,.cls-31{font-family:SourceHanSansCN-Regular-GBpc-EUC-H, Source Han Sans CN;}.cls-18{clip-path:url(#clip-path-7);}.cls-19{clip-path:url(#clip-path-8);}.cls-20{clip-path:url(#clip-path-9);}.cls-21{fill:url(#radial-gradient-2);}.cls-22{clip-path:url(#clip-path-11);}.cls-23{fill:url(#linear-gradient-7);}.cls-24{font-size:48px;font-family:SourceHanSansCN-Normal-GBpc-EUC-H, Source Han Sans CN;}.cls-25{clip-path:url(#clip-path-13);}.cls-26{clip-path:url(#clip-path-14);}.cls-27{fill:url(#radial-gradient-3);}.cls-28{clip-path:url(#clip-path-16);}.cls-29{fill:url(#linear-gradient-9);}.cls-30{font-size:40px;}.cls-30,.cls-48{font-family:SourceHanSansCN-ExtraLight-GBpc-EUC-H, Source Han Sans CN;}.cls-31{font-size:25px;}.cls-31,.cls-42,.cls-48{letter-spacing:0.1em;}.cls-32{letter-spacing:0.35em;}.cls-33{letter-spacing:-0.25em;}.cls-34{letter-spacing:-0.25em;}.cls-35{letter-spacing:-0.4em;}.cls-36{letter-spacing:-0.84em;}.cls-37{letter-spacing:-0.34em;}.cls-38{letter-spacing:-0.16em;}.cls-39{letter-spacing:-0.09em;}.cls-40{letter-spacing:-0.03em;}.cls-41{letter-spacing:0.27em;}.cls-42{font-size:60px;font-family:SourceHanSerifCN-Regular-GBpc-EUC-H, Source Han Serif CN;}.cls-43{font-size:36px;font-family:SourceHanSansCN-Heavy-GBpc-EUC-H, Source Han Sans CN;}.cls-44{font-family:SourceHanSansCN-Light-GBpc-EUC-H, Source Han Sans CN;}.cls-45{font-size:30.33px;font-family:SourceHanSansCN-Medium-GBpc-EUC-H, Source Han Sans CN;}.cls-46{font-size:52.91px;}.cls-46,.cls-47{font-family:SourceHanSansCN-Bold-GBpc-EUC-H, Source Han Sans CN;}.cls-47{font-size:56.44px;}.cls-48{font-size:80px;fill:#6799ff;}.cls-49{stroke:#fff;stroke-miterlimit:10;stroke-width:2px;}</style><linearGradient id="linear-gradient" x1="1371.47" y1="3707.89" x2="1408.64" y2="3707.89" gradientUnits="userSpaceOnUse"><stop offset="0" stop-color="#1f2c5d"/><stop offset="0.24" stop-color="#1b2d73"/><stop offset="0.62" stop-color="#1c3b88"/><stop offset="0.63" stop-color="#1c3c89"/><stop offset="0.87" stop-color="#2a65a2"/><stop offset="1" stop-color="#2f75ac"/></linearGradient><linearGradient id="linear-gradient-2" x1="443.7" y1="1894.84" x2="480.87" y2="1894.84" xlink:href="#linear-gradient"/><linearGradient id="linear-gradient-3" x1="1371.76" y1="2882.53" x2="1408.93" y2="2882.53" xlink:href="#linear-gradient"/><clipPath id="clip-path"><rect class="cls-1" x="360.38" y="2239.71" width="1076.88" height="610.34" rx="28.29"/></clipPath><clipPath id="clip-path-2"><rect class="cls-1" x="1345.05" y="2838.81" width="85.3" height="84.61"/></clipPath><clipPath id="clip-path-3"><path class="cls-1" d="M1369.77,2881.3a20.58,20.58,0,1,0,20.58-20.59,20.58,20.58,0,0,0-20.58,20.59"/></clipPath><radialGradient id="radial-gradient" cx="1104.61" cy="7514.33" r="0.37" gradientTransform="matrix(59.85, 0, 0, -59.85, -64720.84, 452639.9)" gradientUnits="userSpaceOnUse"><stop offset="0" stop-color="#eceef4"/><stop offset="0.17" stop-color="#e5e8f1"/><stop offset="0.42" stop-color="#d2d7e7"/><stop offset="0.54" stop-color="#c6cce1"/><stop offset="1" stop-color="#96a1be"/></radialGradient><clipPath id="clip-path-5"><path class="cls-4" d="M1398,2868.32l-8.54,9.39a1.84,1.84,0,0,0-.17.22c-1.22,1.44-3.44,3.93-6.33,2.7-2.21-1-3.68-3.59-6.1-4.22a4.23,4.23,0,0,0-5.09,3.88c2.74.06,4.53,1.61,4.94,5.32.44,4,1.11,6.7,3.17,8.57a9.92,9.92,0,0,0,13.19,1,8.17,8.17,0,0,0,.93-.74c2.19-2,4.33-4.18,5.75-5.67a1.15,1.15,0,0,0,.23-.21l.88-1,.6-.65h0l7.08-7.77a1.59,1.59,0,0,0-2.35-2.14l-7.41,8.15a.38.38,0,0,1-.5-.57l.59-.64h0l8.55-9.39a1.59,1.59,0,0,0-2.35-2.14l-8.49,9.33h0l-.47.52a.47.47,0,0,1-.67,0,.46.46,0,0,1,0-.66l.22-.25.13-.13,8.55-9.39a1.59,1.59,0,0,0-2.35-2.13l-8.54,9.39a.69.69,0,0,0-.11.13l0,0a.37.37,0,0,1-.59-.45l7.68-8.44a1.58,1.58,0,0,0-.11-2.24,1.55,1.55,0,0,0-1.06-.42,1.59,1.59,0,0,0-1.18.52"/></clipPath><linearGradient id="linear-gradient-5" x1="1134.29" y1="7465.68" x2="1134.63" y2="7465.7" gradientTransform="matrix(108.07, 0, 0, -108.07, -121185.53, 809704.01)" gradientUnits="userSpaceOnUse"><stop offset="0" stop-color="#1f2c5d"/><stop offset="0.49" stop-color="#1c3b88"/><stop offset="0.68" stop-color="#0c5097"/><stop offset="0.85" stop-color="#0060a2"/><stop offset="0.94" stop-color="#007ec1"/><stop offset="1" stop-color="#008dd1"/></linearGradient><clipPath id="clip-path-7"><rect class="cls-1" x="360.08" y="3065.08" width="1076.88" height="610.34" rx="28.29"/></clipPath><clipPath id="clip-path-8"><rect class="cls-1" x="1344.76" y="3664.18" width="85.3" height="84.61"/></clipPath><clipPath id="clip-path-9"><path class="cls-1" d="M1369.47,3706.67a20.59,20.59,0,1,0,20.58-20.59,20.59,20.59,0,0,0-20.58,20.59"/></clipPath><radialGradient id="radial-gradient-2" cx="1104.61" cy="7500.54" r="0.37" xlink:href="#radial-gradient"/><clipPath id="clip-path-11"><path class="cls-2" d="M1397.7,3693.69l-8.54,9.39a1.12,1.12,0,0,0-.17.21c-1.22,1.44-3.44,3.94-6.34,2.7-2.21-.95-3.68-3.59-6.09-4.21a4.22,4.22,0,0,0-5.09,3.88c2.74.06,4.53,1.6,4.94,5.32.43,4.05,1.11,6.7,3.17,8.56a9.92,9.92,0,0,0,13.19,1,8.14,8.14,0,0,0,.93-.73c2.19-2,4.33-4.19,5.75-5.67a1.51,1.51,0,0,0,.23-.21l.87-1,.61-.65h0l7.08-7.77a1.59,1.59,0,0,0-2.35-2.14l-7.41,8.15a.41.41,0,0,1-.48,0,.39.39,0,0,1,0-.54l.58-.64h0l8.55-9.39a1.59,1.59,0,0,0-2.35-2.13l-8.49,9.33h0l-.48.53a.47.47,0,1,1-.69-.64l.22-.24.13-.13,8.55-9.39a1.59,1.59,0,0,0-2.35-2.14l-8.54,9.39a.67.67,0,0,0-.11.14l0,0a.38.38,0,0,1-.53,0,.38.38,0,0,1-.06-.49l7.68-8.44a1.58,1.58,0,0,0-1.18-2.65,1.55,1.55,0,0,0-1.17.52"/></clipPath><linearGradient id="linear-gradient-7" x1="1128.5" y1="7460.7" x2="1128.84" y2="7460.72" gradientTransform="matrix(108.07, 0, 0, -108.07, -120558.54, 809991.62)" xlink:href="#linear-gradient-5"/><clipPath id="clip-path-13"><rect class="cls-1" x="416.98" y="1851.13" width="85.3" height="84.61"/></clipPath><clipPath id="clip-path-14"><path class="cls-1" d="M441.7,1893.61A20.58,20.58,0,1,0,462.28,1873a20.59,20.59,0,0,0-20.58,20.59"/></clipPath><radialGradient id="radial-gradient-3" cx="1089.11" cy="7530.83" r="0.37" xlink:href="#radial-gradient"/><clipPath id="clip-path-16"><path class="cls-3" d="M469.93,1880.64l-8.55,9.38a1.77,1.77,0,0,0-.16.22c-1.22,1.44-3.44,3.93-6.34,2.7-2.21-1-3.68-3.59-6.09-4.21a4.22,4.22,0,0,0-5.09,3.87c2.74.07,4.53,1.61,4.93,5.33.44,4,1.12,6.7,3.18,8.56a9.91,9.91,0,0,0,13.18,1,8.38,8.38,0,0,0,.93-.73c2.2-2,4.33-4.19,5.76-5.68a1.51,1.51,0,0,0,.23-.21l.87-1,.61-.65h0l7.07-7.77a1.59,1.59,0,1,0-2.34-2.14l-7.41,8.14a.39.39,0,0,1-.48,0,.37.37,0,0,1,0-.53l.58-.65h0l8.54-9.39a1.59,1.59,0,0,0-2.35-2.14l-8.49,9.34h0l-.48.53a.47.47,0,0,1-.67,0,.46.46,0,0,1,0-.66l.21-.24.14-.13,8.54-9.39a1.59,1.59,0,1,0-2.34-2.14l-8.55,9.39a1.13,1.13,0,0,0-.1.13l0,0a.37.37,0,0,1-.52,0,.36.36,0,0,1-.06-.48l7.67-8.44a1.58,1.58,0,0,0-1.17-2.65,1.55,1.55,0,0,0-1.17.52"/></clipPath><linearGradient id="linear-gradient-9" x1="1135.62" y1="7478.15" x2="1135.96" y2="7478.17" gradientTransform="matrix(108.07, 0, 0, -108.07, -122255.99, 810064.18)" xlink:href="#linear-gradient-5"/><image id="image" width="1150" height="731" xlink:href="../../%E7%94%9F%E5%91%BD%E5%8B%8B%E7%AB%A0-%E4%B8%80%E5%BC%A0%E5%9B%BE%E4%B8%8E%E7%BA%AF%E5%8B%8B%E7%AB%A0/%E7%94%9F%E5%91%BD%E5%8B%8B%E7%AB%A0-%E4%B8%80%E5%BC%A0%E5%9B%BE/%E6%BA%90%E6%96%87%E4%BB%B6/%E7%85%A7%E7%89%87.png"/><image id="image-2" width="150" height="145" xlink:href="../../%E7%94%9F%E5%91%BD%E5%8B%8B%E7%AB%A0-%E4%B8%80%E5%BC%A0%E5%9B%BE%E4%B8%8E%E7%BA%AF%E5%8B%8B%E7%AB%A0/%E7%94%9F%E5%91%BD%E5%8B%8B%E7%AB%A0-%E4%B8%80%E5%BC%A0%E5%9B%BE/%E6%BA%90%E6%96%87%E4%BB%B6/535261790cbcb269e680d7c4426ba0ed0d6dcd8a7629a-b6OO2v%20%E6%8B%B7%E8%B4%9D.png"/></defs><image width="1795" height="3964" transform="translate(1.17)" xlink:href="../../%E7%94%9F%E5%91%BD%E5%8B%8B%E7%AB%A0-%E4%B8%80%E5%BC%A0%E5%9B%BE%E4%B8%8E%E7%BA%AF%E5%8B%8B%E7%AB%A0/%E7%94%9F%E5%91%BD%E5%8B%8B%E7%AB%A0-%E4%B8%80%E5%BC%A0%E5%9B%BE/%E6%BA%90%E6%96%87%E4%BB%B6/%E8%83%8C%E6%99%AF%20%E6%8B%B7%E8%B4%9D.png"/><image width="1039" height="30" transform="translate(378 2121.12)" xlink:href="../../%E7%94%9F%E5%91%BD%E5%8B%8B%E7%AB%A0-%E4%B8%80%E5%BC%A0%E5%9B%BE%E4%B8%8E%E7%BA%AF%E5%8B%8B%E7%AB%A0/%E7%94%9F%E5%91%BD%E5%8B%8B%E7%AB%A0-%E4%B8%80%E5%BC%A0%E5%9B%BE/%E6%BA%90%E6%96%87%E4%BB%B6/%E7%BB%84%2015.png"/><use transform="translate(324.11 2213.31)" xlink:href="#image"/><g class="cls-5"><image width="960" height="540" transform="translate(278.9 2213.31) scale(1.25)" xlink:href="../../%E7%94%9F%E5%91%BD%E5%8B%8B%E7%AB%A0%20%E7%85%A7%E7%89%87/2015-4-22-24%E7%99%BD%E9%A9%AC%E5%B1%B1%E6%89%93%E9%93%B6%E5%9D%91%E6%BA%AA%E8%B0%B7%E6%95%91%E6%8F%B4/%E5%BE%AE%E4%BF%A1%E5%9B%BE%E7%89%87_202204271151555.jpg"/></g><path class="cls-6" d="M1390,2799.91c10.8,7.07,28.68,10.93,41,2.91l13.93,15.71c-11.16,9.56-12.88,23.39-8,33.56,19.35,37.12,14.43,61.69-26.07,78.25-8.19,3.66-17.71,9.28-20.83,12.65-3.13-3.37-12.61-9-20.8-12.65-40.5-16.56-45.42-41.13-26.07-78.25,4.8-10.17,3.08-24-8-33.56l13.92-15.71c12.3,8,30.16,4.16,41-2.91Z"/><path class="cls-7" d="M1389,2935.79c-5-4.43-9.93-6.31-22.3-12.46h0c-10.33-5.12-17.52-10.61-22.15-16.64h0a31.18,31.18,0,0,1-6.62-19.54h0c0-9.76,3.81-20.24,9.37-31.83h0a38.75,38.75,0,0,0,3.6-15.81h0a28.86,28.86,0,0,0-7.75-20h0l-.9-1,7.7-9,1,.32a57,57,0,0,0,17.48,3.17h0c8.89,0,14.57-3.06,21-6h0l.63-.29.64.29c6.41,2.91,12.08,6,21,6h0a57.27,57.27,0,0,0,17.52-3.17h0l1-.32,7.66,9-.91,1a28.85,28.85,0,0,0-7.74,20h0a38.6,38.6,0,0,0,3.58,15.78h0c5.57,11.61,9.38,22.1,9.39,31.87h0a31.1,31.1,0,0,1-6.62,19.54h0c-4.63,6-11.82,11.51-22.16,16.63h0c-12.36,6.15-17.3,8-22.29,12.47h0l-1,.9-1-.91Zm-38.93-79.18c-5.51,11.44-9.09,21.59-9.08,30.54h0a28,28,0,0,0,6,17.68h0c4.23,5.52,11,10.78,21.08,15.76h0c11.47,5.72,16.8,7.78,22,12.06h0c5.19-4.27,10.48-6.34,22-12.06h0c10.08-5,16.86-10.23,21.08-15.75h0a27.93,27.93,0,0,0,6-17.68h0c0-8.95-3.59-19.1-9.09-30.55h0l0,0a41.73,41.73,0,0,1-3.86-17.08h0a31.87,31.87,0,0,1,7.64-21h0l-4.61-5.44a59.28,59.28,0,0,1-17.48,3h0c-9.32,0-15.57-3.18-21.62-6h0c-6,2.78-12.29,6-21.61,6h0a58.51,58.51,0,0,1-17.45-3h0l-4.65,5.45a31.88,31.88,0,0,1,7.65,21h0a41.73,41.73,0,0,1-3.87,17.08h0v0Z"/><path class="cls-8" d="M1390,2808.44c9.68,4.39,18.61,9.63,39.61,2.86l6.12,7.23c-11,12-9.17,27-4.41,37.42,13.43,27.94,16.08,48.82-18.69,66-12.29,6.11-17.36,8-22.63,12.68-5.23-4.66-10.34-6.57-22.63-12.68-34.73-17.2-32.11-38.08-18.69-66,4.76-10.44,6.56-25.38-4.41-37.42l6.16-7.23c21,6.77,29.9,1.53,39.57-2.86Z"/><path class="cls-9" d="M1412.09,2849.37l-3.14.64a36.18,36.18,0,0,1,9.07,7.37l3.11.24c-.94-1.15-1.91-2.22-2.92-3.25a40.24,40.24,0,0,0-6.12-5Zm-2.92,66.8.52-3.5a36,36,0,0,1-9.26,4l-1.76,3.33a39.56,39.56,0,0,0,10.5-3.88Zm12.59-10.8-.78-3.46a37.37,37.37,0,0,1-8.48,8.9l-.34,3,.71.08a39.48,39.48,0,0,0,5.34-4.48,44.34,44.34,0,0,0,3.55-4.05Zm6.69-13.77-1.91-2.86a36.23,36.23,0,0,1-3.7,10.16l.94,3.53a38.94,38.94,0,0,0,4.67-10.83Zm.74-15.68-2.61-1.23a34.65,34.65,0,0,1,.67,6.9,33.28,33.28,0,0,1-.14,3.34l2,2.77.11-.07a36,36,0,0,0,.45-5.72h0a39.46,39.46,0,0,0-.49-6Zm-5.75-15.12-3-.32a35.42,35.42,0,0,1,5.3,10.76l2.58,1.07.07-.16A39,39,0,0,0,1423.44,2860.8Z"/><path class="cls-10" d="M1430.77,2898.86v-8.69l3.17-2.42a42.87,42.87,0,0,1-3.17,11.11Zm0-12.22v-12.31l2.09-4.2a43,43,0,0,1,1.53,11.46c0,1,0,1.87-.08,2.78l-3.54,2.27Zm0-18.46v-3.93c.33.75.67,1.55,1,2.34Zm-8.6-16.79a44.26,44.26,0,0,0-11.54-8.61l1.42,5.6.07.31a37.19,37.19,0,0,1,6.47,5.24,42.45,42.45,0,0,1,3,3.3V2857l.6-5.6Zm8.6,12.86v3.93l-1.87,3.18-.08.12a38.62,38.62,0,0,0-4.63-10.56h.22l.19-6.75a42.49,42.49,0,0,1,6.17,10.08Zm0,10.08v12.31l-.9.55a27.4,27.4,0,0,0,.33-3.53c0-.67,0-1.39,0-2.07a39.94,39.94,0,0,0-.22-4.28,38,38,0,0,1,.22,5c0,.44,0,.84,0,1.27,0-.55,0-1.11,0-1.67h0a39.05,39.05,0,0,0-.34-5.23v0a.35.35,0,0,1,0-.15v0c0-.08,0-.16,0-.24h0v0l.9-1.83Zm0,15.84v8.69c-.34.76-.68,1.51-1,2.26l-5.16,1.15a39.23,39.23,0,0,0,4.52-10.79l1.69-1.31Zm-31.57,30.36,4,2.78a43.62,43.62,0,0,0,13.23-6.59h-7.06a38.92,38.92,0,0,1-10.2,3.81Zm20.13-6.11a44.64,44.64,0,0,0,8.71-10.28l-6,1.86a36.56,36.56,0,0,1-3.4,3.85,38.61,38.61,0,0,1-4.78,4.13Z"/><path class="cls-9" d="M1368.77,2849.37a40.32,40.32,0,0,0-6.13,5c-1,1-2,2.1-2.91,3.25l3.1-.24a36.23,36.23,0,0,1,9.08-7.37l-3.14-.64Zm2.91,66.8a39.56,39.56,0,0,0,10.5,3.88l-1.76-3.33a36.17,36.17,0,0,1-9.26-4l.52,3.5Zm-12.59-10.8a44.34,44.34,0,0,0,3.55,4.05,40.19,40.19,0,0,0,5.35,4.48l.7-.08-.33-3a37,37,0,0,1-8.48-8.9l-.79,3.46Zm-6.69-13.77a39,39,0,0,0,4.68,10.83l.93-3.53a36.54,36.54,0,0,1-3.7-10.16l-1.91,2.86Zm-.74-15.68a39.46,39.46,0,0,0-.49,6h0a36,36,0,0,0,.45,5.72l.11.07,2-2.77a33.25,33.25,0,0,1-.15-3.34,35.41,35.41,0,0,1,.67-6.9l-2.61,1.23Zm.78-3.77.08.16,2.58-1.07a35.2,35.2,0,0,1,5.3-10.76l-3,.32A39.3,39.3,0,0,0,1352.44,2872.15Z"/><path class="cls-10" d="M1350.09,2898.86a43.28,43.28,0,0,1-3.18-11.11l3.18,2.42v8.69Zm0-12.22-3.55-2.27c0-.91-.07-1.82-.07-2.78a43,43,0,0,1,1.53-11.46l2.09,4.2v12.31Zm-1-20c.3-.79.63-1.59,1-2.34v3.93Zm9.56-15.2.6,5.6v.24a40.64,40.64,0,0,1,3-3.3,37.12,37.12,0,0,1,6.46-5.24l.08-.31,1.42-5.6a44.47,44.47,0,0,0-11.55,8.61Zm-8.59,12.86a42.45,42.45,0,0,1,6.16-10.08l.19,6.75h.22a38.93,38.93,0,0,0-4.63,10.56l-.07-.12-1.87-3.18v-3.93Zm0,10.08.89,1.83v0h0c0,.08,0,.16,0,.24v0a.35.35,0,0,1,0,.15v0a39.05,39.05,0,0,0-.34,5.23h0c0,.56,0,1.12,0,1.67,0-.43,0-.83,0-1.27a36.39,36.39,0,0,1,.23-5,39.91,39.91,0,0,0-.23,4.28c0,.68,0,1.4,0,2.07a29.3,29.3,0,0,0,.33,3.53l-.89-.55v-12.31Zm0,15.84,1.68,1.31a39.23,39.23,0,0,0,4.52,10.79l-5.16-1.15c-.37-.75-.7-1.5-1-2.26v-8.69Zm31.57,30.36a38.78,38.78,0,0,1-10.2-3.81h-7.06a43.57,43.57,0,0,0,13.22,6.59l4-2.78Zm-14.61-6.55a37.21,37.21,0,0,1-4.78-4.13,35.46,35.46,0,0,1-3.4-3.85l-6-1.86a44.59,44.59,0,0,0,8.7,10.28Z"/><path class="cls-7" d="M1371.87,2824.75a2.18,2.18,0,0,0-2.49-2.33c-1.61.11-2.44.78-2.5,2s.84,1.89,2.83,2.16a2.39,2.39,0,0,1,.41.09q5.4,1.08,5.32,4.23-.09,4.82-6.56,5c-4,0-6-1.69-5.9-5.06h3.32a2.49,2.49,0,0,0,2.58,2.82c2-.05,3-.72,3.07-2q0-1.57-2.91-2.16a2.62,2.62,0,0,1-.58-.17q-5.06-1.16-5.06-4.23c.16-3.16,2.29-4.84,6.39-5.06q5,.24,5.23,4.73Z"/><path class="cls-7" d="M1380.92,2835.71h-3.32v-15.36h6.55q5.24.08,5.32,4a3.68,3.68,0,0,1-3.16,3.74v.08q2.58.09,2.74,3.4a2.2,2.2,0,0,1,.09.5,9.33,9.33,0,0,0,.82,3.66h-3.56a20.16,20.16,0,0,1-.59-4.16c-.11-1.32-.58-2-1.41-2h-3.48Zm0-8.72h2.74c1.54,0,2.32-.72,2.32-2.16s-.78-2-2.32-1.91h-2.74Z"/><path class="cls-7" d="M1390.71,2820.35h3.57l4,12.12h.08l4-12.12h3.24l-5.65,15.36h-3.56Z"/><path class="cls-7" d="M1407.23,2835.71v-15.36h9.88v2.57h-6.64v3.65h6.22v2.58h-6.22v6.56Z"/><g class="cls-11"><path class="cls-12" d="M1424.47,2881.3a34.13,34.13,0,1,1-34.12-34.22,34.18,34.18,0,0,1,34.12,34.22"/><path class="cls-7" d="M1390.35,2847.62A33.68,33.68,0,1,0,1424,2881.3a33.71,33.71,0,0,0-33.66-33.68m32.7,33.68a32.71,32.71,0,1,1-32.7-32.72,32.74,32.74,0,0,1,32.7,32.72"/><path class="cls-7" d="M1413.8,2881.3a23.46,23.46,0,1,1-23.45-23.46,23.46,23.46,0,0,1,23.45,23.46"/></g><g class="cls-13"><rect class="cls-14" x="1369.77" y="2860.71" width="41.16" height="41.18"/></g><g class="cls-11"><polygon class="cls-7" points="1363.03 2887.05 1363.53 2888.08 1364.67 2888.24 1363.85 2889.05 1364.04 2890.18 1363.03 2889.64 1362.01 2890.18 1362.2 2889.05 1361.38 2888.24 1362.52 2888.08 1363.03 2887.05"/><polygon class="cls-7" points="1417.67 2887.05 1418.18 2888.08 1419.31 2888.24 1418.49 2889.05 1418.69 2890.18 1417.67 2889.64 1416.65 2890.18 1416.85 2889.05 1416.03 2888.24 1417.16 2888.08 1417.67 2887.05"/><path class="cls-7" d="M1364.77,2893.87l0,.37c-.45.11-1,.23-1.63.36l-.06-.38a14.45,14.45,0,0,0,1.66-.35m.74,3.67-.38-.06a3.68,3.68,0,0,1,.48-1.58l-1.34.75-.16-.29,1.35-.75a4.56,4.56,0,0,1-1.69-.47c0-.15.09-.26.11-.35a4.46,4.46,0,0,0,1.73.63l-.57-1,.27-.15.61,1.1.46-.26.16.29-.46.26.63,1.12-.26.15-.6-1.07a3.89,3.89,0,0,0-.34,1.7m.11-4.59a8.88,8.88,0,0,1-.09,1l-.35-.06c0-.29.1-.62.14-1Zm1.22,1.62-.09.3a9.25,9.25,0,0,1-1.16-.48c0-.1.09-.2.13-.31a6.36,6.36,0,0,0,1.12.49m-.22-2c0,.37-.07.71-.12,1l-.36-.07a9.21,9.21,0,0,0,.17-1Zm.27.9,1.31,2.35-.6.34-.16-.29.32-.19-1-1.76-.34.19-.17-.29Zm0,1.7.29.07c0,.42-.08.83-.15,1.23l-.34-.07a9.86,9.86,0,0,0,.2-1.23"/><path class="cls-7" d="M1366.58,2898.06l.49.36,1-.86-.34-.41.24-.19.33.41.78-.64.2.24-.78.64.33.4-.24.19-.32-.4-1,.81.47.33-.24.21c-.43-.3-.85-.57-1.23-.82Zm3.21-.47.21.26-1.16.94a5.45,5.45,0,0,1-1.27.86,2.41,2.41,0,0,1-1.23.13c0-.13.05-.25.07-.36a2,2,0,0,0,1.09-.1,5.17,5.17,0,0,0,1.14-.78Zm.48.83.2.25-2.71,2.21-.2-.25Zm.72.63.2.25-3.07,2.53-.21-.26Z"/><path class="cls-7" d="M1369.93,2903.09l-.24-.22,1.41-1.64,1.13,1,.37-.43-1.4-1.21.21-.24,1.48,1.27a5.33,5.33,0,0,0,.11-.6l.34.1a4.22,4.22,0,0,1-.1.62l-.3-.07,1.54,1.32-.21.24-1.41-1.21-.38.43,1.15,1-1,1.19a.45.45,0,0,1-.72.07l-.45-.39.17-.3c.17.17.3.29.41.38a.23.23,0,0,0,.38,0l.78-.9-.91-.77-1.49,1.73-.25-.22,1.49-1.73-.89-.76Z"/><path class="cls-7" d="M1376.4,2906.32q.12,1,.15,1.74l-.38,0c0-.15,0-.31,0-.47-.82-.43-1.48-.77-2-1a2,2,0,0,0-.37-.13l0-.41a.86.86,0,0,0,.42,0,8.89,8.89,0,0,0,1.76-.9l.23.33a18.51,18.51,0,0,1-1.8.87c.5.28,1.08.58,1.72.92,0-.29,0-.59-.06-.92Zm-2.08-1.83a4.84,4.84,0,0,0,2.11-.84l.21.29a5.78,5.78,0,0,1-2.23.92,1.81,1.81,0,0,0-.09-.37m2.91-.29.33.05a3.28,3.28,0,0,0,.42,2.26l-.39.15a4,4,0,0,1-.36-2.46"/><path class="cls-7" d="M1378.1,2908.52l.57.21.49-1.32,2.75,1-.49,1.31.54.2-.1.28-3.86-1.43Zm2.23-1.74.1.33c-.5.1-1,.18-1.66.25a1.72,1.72,0,0,0-.06-.34,12.58,12.58,0,0,0,1.62-.24m-1.38,2,.55.2.38-1.05-.54-.2Zm.22-2.93,2.14.79a6,6,0,0,0,1-.51l.22.29c-.26.14-.51.26-.77.38l1.16.42-.1.28-3.71-1.37Zm.6,3.23.55.21.38-1.05-.54-.21Zm.22-3.56.28-.13a7,7,0,0,1,.43.7l-.3.15c-.12-.23-.25-.47-.41-.72m1.54,3-.55-.2-.39,1.05.55.2Zm-.38-1.22.25-.18c.43.44.8.83,1.1,1.18l-.28.23c-.4-.49-.76-.9-1.07-1.23"/><path class="cls-7" d="M1383.66,2907.45l.84.15.12-.7.31.06-.13.69.87.15-.05.3-.87-.15-.26,1.46.2-.15c.15.19.34.45.58.78l-.28.21c-.17-.27-.34-.53-.51-.77l-.16.89c-.06.36-.26.52-.57.46l-.53-.1v-.37l.48.11a.25.25,0,0,0,.33-.24l.14-.77c-.27.16-.54.34-.82.53l-.16-.29c.32-.18.62-.36.89-.53l.1.21.26-1.49-.83-.15Zm-.08.71.29-.11.3.76-.31.12c-.09-.28-.18-.54-.28-.77m1.66.16.24.21-.6.59-.23-.23a5.43,5.43,0,0,0,.59-.57m0,.78a8.86,8.86,0,0,0,1.09-1.89l.28.13c-.09.21-.19.43-.3.64l1.28.22,0,.3-.32-.06a3.86,3.86,0,0,1-.9,1.8,2.92,2.92,0,0,0,.79.9,1.94,1.94,0,0,0-.24.27,3.57,3.57,0,0,1-.81-.95,3.4,3.4,0,0,1-1.21.63,2.07,2.07,0,0,0-.15-.3,3.45,3.45,0,0,0,1.22-.64,3.1,3.1,0,0,1-.21-1.18l-.24.33-.23-.2m-.19-1.89.2-.17.4.42-.24.2a4.73,4.73,0,0,0-.36-.45m1,1.3a3.86,3.86,0,0,0,.17,1.4,3.55,3.55,0,0,0,.74-1.52l-.75-.13c-.06.08-.11.17-.16.25"/><path class="cls-7" d="M1388.27,2909.69l.53-.21,0-.95h-.49v-.3h.5v-.77h.3l0,.77h.49v.3h-.49v.84l.41-.17,0,.32-.43.19,0,1.39q0,.42-.36.45h-.37c0-.11,0-.23-.05-.35a1.83,1.83,0,0,0,.32,0c.11,0,.15-.06.15-.18v-1.2l-.48.21Zm1.38-.41h.59a2.72,2.72,0,0,0,.07-.33h-.58v-.27l1.7,0a7.37,7.37,0,0,0,.38-.69l.29.16c-.12.19-.23.36-.35.53h.56v.27l-1.69,0c0,.11,0,.22-.07.33l1.83,0v.27l-1.91,0c0,.11-.07.22-.1.33l1.62,0v.27a2.74,2.74,0,0,1-.66.78,3.08,3.08,0,0,0,1.13.27l-.17.34a3.35,3.35,0,0,1-1.24-.4,3.85,3.85,0,0,1-1.13.48,2.79,2.79,0,0,0-.19-.28,3.63,3.63,0,0,0,1-.39,2.32,2.32,0,0,1-.56-.68,4.76,4.76,0,0,1-.69,1.12,1.84,1.84,0,0,0-.25-.21,4.26,4.26,0,0,0,.88-1.59h-.52Zm.09-1.23c0-.1,0-.2,0-.3.86,0,1.7-.1,2.5-.19l.06.29c-.6.07-1.44.13-2.51.2m.14.15.24-.14c.11.15.2.3.29.45l-.27.15a3.57,3.57,0,0,0-.26-.46m1.76,1.92-1.13,0a2,2,0,0,0,.56.59,2.36,2.36,0,0,0,.57-.61m-.93-2,.27-.11a5.2,5.2,0,0,1,.24.52l-.29.11a5.35,5.35,0,0,0-.22-.52"/><path class="cls-7" d="M1393.62,2909.05l1.5-.27-.14-.79-1.81.33-.05-.29,1.8-.33-.11-.65.34-.06.11.65,1.82-.32.05.29-1.82.32.14.79,1.51-.27,0,.29-3.34.6Zm.16.67.32,0a10,10,0,0,1-.15,1.14l-.33,0a8.09,8.09,0,0,0,.16-1.13m.6,0,.33,0,.16.93a.22.22,0,0,0,.29.2l.87-.15c.2,0,.3-.13.31-.28a4.46,4.46,0,0,0,0-.52,1.82,1.82,0,0,0,.35.06c0,.21,0,.39,0,.53s-.18.43-.49.49l-1,.18c-.34.06-.53-.08-.6-.44Zm.61-.3.23-.21c.24.21.49.43.72.67l-.24.24a9.2,9.2,0,0,0-.71-.7m1.62,0,.23-.21c.25.24.5.5.76.78l-.26.24c-.26-.31-.51-.58-.73-.81"/><path class="cls-7" d="M1398.89,2906.83l.8-.29,0-.32-1.34.5.43,1.17a7.56,7.56,0,0,1,.41,1.35,3.37,3.37,0,0,1,0,1.09,2.23,2.23,0,0,0-.32-.19,2.73,2.73,0,0,0,0-.9,6.05,6.05,0,0,0-.34-1.17l-.55-1.5,3.45-1.28.09.26-1.51.56,0,.32,1.27-.48.47,1.28-.27.1,0-.11-.7.25.11.3a.4.4,0,0,1-.25.59l-.41.14a2.56,2.56,0,0,0-.16-.25l.4-.12a.21.21,0,0,0,.13-.3l-.09-.26-.86.32.05.11-.28.11Zm.88,1.1.26.14c-.18.23-.4.5-.66.78a1.78,1.78,0,0,0-.27-.17,3.92,3.92,0,0,0,.67-.75m1.3-1.65-1.82.68.09.24,1.82-.67Zm-1.56,1.38,1.82-.67-.09-.24-1.82.67Zm-.06,1.29h.31a5.51,5.51,0,0,1,0,.91,1.48,1.48,0,0,0-.31,0,5.15,5.15,0,0,0,0-.87m.49-.16.28-.1.17.46a.27.27,0,0,0,.39.18l.45-.17c.19-.07.27-.18.26-.34a3.92,3.92,0,0,0-.07-.41,1.92,1.92,0,0,0,.34,0q0,.26.06.45c0,.24-.13.43-.44.54l-.56.21a.47.47,0,0,1-.69-.31Zm.6-.24.17-.21a4.92,4.92,0,0,1,.51.31l-.18.25c-.17-.13-.33-.24-.5-.35m.55-.78.05-.27c.37,0,.74,0,1.1,0l0,.31c-.38,0-.76,0-1.12,0m.67.43.2-.23c.2.14.43.32.68.52l-.21.26a5.94,5.94,0,0,0-.67-.55"/><path class="cls-7" d="M1402.56,2906l1.37-.8-.27-.46-1,.6-.14-.25,1-.59-.27-.46.29-.17.27.46.88-.52.14.24-.88.52.27.46.35-.21a5.19,5.19,0,0,0,.43-1.49l.36,0a6.4,6.4,0,0,1-.34,1.2l1-.61.14.25-1.37.8a7.08,7.08,0,0,1-.4.77l1.43-.84,1,1.74-.28.16-.12-.21-1.67,1,.12.22-.28.16-.78-1.33c-.15.2-.3.41-.47.62l-.32-.17a10.28,10.28,0,0,0,1.26-1.81l-1.63,1Zm1.51.34.22.38,1.67-1-.24-.41-1.61.94a.43.43,0,0,1,0,.07m.6,1,1.66-1-.24-.41-1.67,1Z"/><path class="cls-7" d="M1407.86,2904.91l.21-.24-1.65-1.93-.21.18-.19-.22,1.37-1.18.19.22-.24.21,1.52,1.76.24-.3.21.2-.26.33.58.67-.23.2-.54-.63-.72.94ZM1407,2903l.47-.39-.4-.46-.46.39Zm.59.68.46-.39-.4-.47-.46.4Zm-.24-2.33.07-.29a7.64,7.64,0,0,1,.77.17l-.09.32a6.6,6.6,0,0,0-.75-.2m.95,1.53.73-.63c-.12-.16-.28-.35-.48-.58l-.66.56-.2-.23.86-.74c0-.23-.1-.56-.2-1l.35-.1c0,.32.08.61.1.87l.53-.45.21.23-.75.64.49.58.86-.74.2.24-.83.71a2.55,2.55,0,0,0,1.84.37,2.94,2.94,0,0,0,0,.42,3.13,3.13,0,0,1-1.71-.39,2.53,2.53,0,0,1,.18,1.76,3.06,3.06,0,0,0-.36,0,2.18,2.18,0,0,0-.24-1.86l-.72.62Zm.32,1.07-.38-.45-.47.4.46.53.39-.48"/><path class="cls-7" d="M1410.86,2897.6l0,.16a4.34,4.34,0,0,0,2.23-.57l.11.38a4.12,4.12,0,0,1-.69.27l.19.15-1.55,1.89-.16-.13c0,.24-.06.49-.11.75l-.38,0a5.3,5.3,0,0,0,0-2.5Zm.07.48a5,5,0,0,1,.1,1.52l1.41-1.73a5.5,5.5,0,0,1-1.51.21m.51,2.32,1.85-2.26,1.44,1.17-.22.26-.21-.17-1.42,1.73.22.19-.21.25Zm1.87-1.81-1.42,1.74.76.62,1.42-1.74Z"/><path class="cls-7" d="M1413.54,2894.18a7.21,7.21,0,0,1,.47,2.42,2.65,2.65,0,0,0-.38.05,5.43,5.43,0,0,0-.47-2.49l.22-.39,0,.12a4.09,4.09,0,0,0,2.17-1,2.69,2.69,0,0,0,.19.38,4.68,4.68,0,0,1-2.25.89m.41,1.57,1.12-2,.27.15-1.12,2Zm2.1-.89c.51-.18,1-.31,1.39-.42l.08.36-.45.1-.91,1.93a1.29,1.29,0,0,0-.1.35h-.39a1.07,1.07,0,0,0,0-.4,5.11,5.11,0,0,0-.38-1l-.68,1.22-.27-.15,1.87-3.36.27.15-1,1.77c.17.43.31.82.43,1.19l.78-1.58-.58.16Z"/><path class="cls-7" d="M1362.71,2883.2a1,1,0,0,0,.2-.41,1.4,1.4,0,0,0,.07-.48c0-.46-.18-.69-.51-.68a.42.42,0,0,0-.25.09.78.78,0,0,0-.19.21c0,.08-.13.25-.24.49a2,2,0,0,1-.43.66.83.83,0,0,1-.48.18.77.77,0,0,1-.66-.31,1.37,1.37,0,0,1-.27-.82,1.52,1.52,0,0,1,.1-.72l.46,0a1.3,1.3,0,0,0-.18.76.85.85,0,0,0,.14.48.38.38,0,0,0,.36.18.42.42,0,0,0,.32-.14,2.83,2.83,0,0,0,.32-.58,1.9,1.9,0,0,1,.44-.69.83.83,0,0,1,.51-.21.77.77,0,0,1,.67.29,1.43,1.43,0,0,1,.27.87,2.8,2.8,0,0,1,0,.45,1.13,1.13,0,0,1-.12.38Z"/><path class="cls-7" d="M1363.41,2878.44l0,.41-1.34-.09q-.7,0-.75.48a.58.58,0,0,0,.18.46.74.74,0,0,0,.51.21l1.33.09,0,.42-3.46-.24,0-.41,1.51.1h0a.85.85,0,0,1-.39-.79c0-.53.37-.77,1-.73Z"/><path class="cls-7" d="M1362.78,2875.54l-.27,1.62a.86.86,0,0,0,.61-.1.77.77,0,0,0,.29-.51,1.16,1.16,0,0,0-.13-.75l.37.06a1.36,1.36,0,0,1,.07.84,1,1,0,0,1-.45.73,1.26,1.26,0,0,1-.92.14,1.32,1.32,0,0,1-.83-.46,1,1,0,0,1-.22-.82.89.89,0,0,1,.42-.66,1.2,1.2,0,0,1,.86-.12Zm-.39.36a.76.76,0,0,0-.51.06.54.54,0,0,0-.25.39.58.58,0,0,0,.12.45.83.83,0,0,0,.43.31Z"/><path class="cls-7" d="M1364.51,2873.13l-.11.4-1.28-.35c-.47-.13-.74,0-.84.32a.55.55,0,0,0,.08.48.78.78,0,0,0,.45.31l1.29.35-.11.4-2.26-.62.11-.4.37.1h0a.85.85,0,0,1-.23-.86.73.73,0,0,1,.4-.51,1.16,1.16,0,0,1,.74,0Z"/><polygon class="cls-7" points="1365.38 2870.79 1364.68 2872.61 1364.56 2872.56 1363.3 2870.63 1362.86 2871.78 1362.54 2871.66 1363.19 2869.95 1363.31 2870 1364.58 2871.93 1365.05 2870.67 1365.38 2870.79"/><path class="cls-7" d="M1366.5,2868.44l-.18.37-1.21-.6c-.42-.21-.71-.15-.87.16a.56.56,0,0,0,0,.49.74.74,0,0,0,.39.39l1.19.59-.18.37-3.11-1.53.18-.37,1.36.67h0a.87.87,0,0,1-.06-.88c.24-.48.64-.57,1.21-.29Z"/><path class="cls-7" d="M1367,2865.52l-.87,1.39a.82.82,0,0,0,.6.13.66.66,0,0,0,.46-.35,1.13,1.13,0,0,0,.17-.75l.32.2a1.43,1.43,0,0,1-.25.81,1,1,0,0,1-.7.5,1.45,1.45,0,0,1-1.49-1,1,1,0,0,1,.11-.84.9.9,0,0,1,.63-.45,1.22,1.22,0,0,1,.84.22Zm-.5.17a.77.77,0,0,0-.5-.13.53.53,0,0,0-.37.26.62.62,0,0,0-.07.46.86.86,0,0,0,.29.45Z"/><path class="cls-7" d="M1369.55,2864l-.25.33-1.06-.82c-.38-.29-.68-.3-.89,0a.55.55,0,0,0-.12.48.82.82,0,0,0,.3.45l1.06.82-.25.33-1.86-1.44.25-.33.31.24h0a.81.81,0,0,1,.12-.87.7.7,0,0,1,.55-.32,1.17,1.17,0,0,1,.69.28Z"/><path class="cls-7" d="M1372.91,2860.55l-.37.35-1-.3a1.32,1.32,0,0,0-.47-.07.57.57,0,0,0-.3.15l-.23.21.94,1-.3.29-2.25-2.4.73-.68a1.12,1.12,0,0,1,.71-.34.77.77,0,0,1,.64.28.88.88,0,0,1,.07,1.15h0a.86.86,0,0,1,.28,0,3.4,3.4,0,0,1,.44.09Zm-3.43-.78.79.85.36-.34a.62.62,0,0,0,.23-.45.58.58,0,0,0-.17-.45.53.53,0,0,0-.39-.18.7.7,0,0,0-.45.23Z"/><path class="cls-7" d="M1374.1,2858.31l-1.31,1a.86.86,0,0,0,.52.33.73.73,0,0,0,.56-.17,1.25,1.25,0,0,0,.42-.64l.22.3a1.38,1.38,0,0,1-.52.67,1,1,0,0,1-.82.23,1.34,1.34,0,0,1-.77-.54,1.31,1.31,0,0,1-.3-.9,1,1,0,0,1,.41-.75.92.92,0,0,1,.75-.2,1.22,1.22,0,0,1,.71.5Zm-.54,0a.71.71,0,0,0-.41-.3.52.52,0,0,0-.44.11.59.59,0,0,0-.23.41.89.89,0,0,0,.11.52Z"/><path class="cls-7" d="M1375,2858.41a1.11,1.11,0,0,0,.69-.17c.27-.17.35-.35.24-.53a.3.3,0,0,0-.21-.13,1.76,1.76,0,0,0-.48.06,1.14,1.14,0,0,1-.59,0,.55.55,0,0,1-.3-.25.58.58,0,0,1,0-.56,1.12,1.12,0,0,1,.44-.51,1.83,1.83,0,0,1,.53-.21l.22.34a1.11,1.11,0,0,0-.6.18.58.58,0,0,0-.23.24.29.29,0,0,0,0,.27.28.28,0,0,0,.19.13,1.72,1.72,0,0,0,.45,0,1.31,1.31,0,0,1,.61,0,.62.62,0,0,1,.37.82,1.08,1.08,0,0,1-.48.52,1.24,1.24,0,0,1-.61.23Z"/><path class="cls-7" d="M1378.58,2856.78a1.3,1.3,0,0,1-.5.45,1.1,1.1,0,0,1-.88.09,1.2,1.2,0,0,1-.67-.61,1.33,1.33,0,0,1-.13-1,1.17,1.17,0,0,1,.63-.72,1.32,1.32,0,0,1,.54-.16l.19.37a.94.94,0,0,0-.57.09.75.75,0,0,0-.4.49.94.94,0,0,0,.1.68.91.91,0,0,0,.48.47.76.76,0,0,0,.62-.06,1,1,0,0,0,.41-.44Z"/><path class="cls-7" d="M1381.05,2855.85l-.38.16-.14-.34h0a.79.79,0,0,1-.51.67c-.51.21-.9,0-1.15-.61l-.53-1.3.38-.16.51,1.25q.27.66.78.45a.57.57,0,0,0,.33-.35.76.76,0,0,0,0-.53l-.51-1.25.39-.16Z"/><path class="cls-7" d="M1383.4,2853.89l-1.57.47a.78.78,0,0,0,.36.49.71.71,0,0,0,.58.05,1.21,1.21,0,0,0,.62-.45l.11.36a1.46,1.46,0,0,1-.73.44,1,1,0,0,1-.85-.09,1.28,1.28,0,0,1-.53-.78,1.31,1.31,0,0,1,0-.94,1,1,0,0,1,.65-.55.89.89,0,0,1,.77.08,1.22,1.22,0,0,1,.48.72Zm-.49-.2a.81.81,0,0,0-.28-.43.54.54,0,0,0-.45-.05.64.64,0,0,0-.37.3.92.92,0,0,0-.08.53Z"/><path class="cls-7" d="M1388,2851l-.79,3.41-.47,0-1.58-3.11.47-.05,1.2,2.43c0,.08.07.18.1.29h0a1.69,1.69,0,0,1,0-.3l.58-2.66Z"/><path class="cls-7" d="M1388.44,2853.13a1.28,1.28,0,0,1,.3-.93,1.16,1.16,0,0,1,.87-.36,1.06,1.06,0,0,1,.84.31,1.27,1.27,0,0,1,.32.88,1.23,1.23,0,0,1-.3.9,1.22,1.22,0,0,1-1.69.06,1.2,1.2,0,0,1-.34-.86m.42,0a.94.94,0,0,0,.23.64.67.67,0,0,0,.55.21.63.63,0,0,0,.54-.24,1,1,0,0,0,.17-.66,1,1,0,0,0-.21-.65.63.63,0,0,0-.54-.21.67.67,0,0,0-.55.25,1,1,0,0,0-.19.66"/><rect class="cls-7" x="1390.11" y="2852.33" width="3.47" height="0.41" transform="translate(-1528.07 4096.84) rotate(-87.07)"/><path class="cls-7" d="M1394.79,2854.58l-.41,0,0-.37h0a.77.77,0,0,1-.77.33c-.55-.07-.78-.44-.69-1.1l.17-1.39.41.05-.17,1.33q-.09.72.45.78a.51.51,0,0,0,.46-.14.79.79,0,0,0,.24-.48l.17-1.34.41.05Z"/><path class="cls-7" d="M1397.59,2855.19l-.4-.09.31-1.3c.11-.47,0-.74-.35-.82a.55.55,0,0,0-.48.09.77.77,0,0,0-.29.46l-.31,1.3-.41-.09.54-2.28.41.09-.09.38h0a.83.83,0,0,1,.85-.25.7.7,0,0,1,.51.37,1,1,0,0,1,0,.75Z"/><path class="cls-7" d="M1399.48,2855.78a.85.85,0,0,1-.37,0,.6.6,0,0,1-.38-.86l.43-1.29-.39-.13.11-.32.38.12.18-.53h.43l-.22.66.56.18-.11.33-.55-.18-.4,1.21a.53.53,0,0,0,0,.34.32.32,0,0,0,.21.18.39.39,0,0,0,.26,0Z"/><path class="cls-7" d="M1402.24,2855.78l-1.51-.64a.82.82,0,0,0,0,.61.67.67,0,0,0,.42.4,1.1,1.1,0,0,0,.76,0l-.14.34a1.35,1.35,0,0,1-.84-.11,1,1,0,0,1-.61-.61,1.46,1.46,0,0,1,.72-1.63,1,1,0,0,1,.85,0,.91.91,0,0,1,.55.55,1.2,1.2,0,0,1-.08.86Zm-.25-.47a.72.72,0,0,0,0-.51.51.51,0,0,0-.31-.33.59.59,0,0,0-.47,0,.83.83,0,0,0-.4.35Z"/><path class="cls-7" d="M1404.64,2857l-1.44-.78a.86.86,0,0,0-.1.61.76.76,0,0,0,.38.44,1.24,1.24,0,0,0,.76.12l-.18.32a1.38,1.38,0,0,1-.82-.19,1.06,1.06,0,0,1-.55-.67,1.35,1.35,0,0,1,.18-.92,1.3,1.3,0,0,1,.7-.63,1,1,0,0,1,.84.06.94.94,0,0,1,.5.6,1.28,1.28,0,0,1-.17.86Zm-.21-.49a.7.7,0,0,0,.1-.5.52.52,0,0,0-.28-.36.57.57,0,0,0-.46,0,.83.83,0,0,0-.43.32Z"/><path class="cls-7" d="M1406.85,2857.44a.52.52,0,0,0-.2-.22.47.47,0,0,0-.46,0,1,1,0,0,0-.46.41l-.64,1-.35-.22,1.28-2,.35.23-.26.4h0a.64.64,0,0,1,.8-.1.9.9,0,0,1,.17.14Z"/><path class="cls-7" d="M1406.48,2858.93a1.22,1.22,0,0,0,.4.59c.26.19.45.21.58,0a.26.26,0,0,0,0-.24,1.75,1.75,0,0,0-.21-.43,1.28,1.28,0,0,1-.21-.55.58.58,0,0,1,.13-.37.6.6,0,0,1,.51-.24,1.07,1.07,0,0,1,.63.25,1.51,1.51,0,0,1,.38.42l-.24.32a1.16,1.16,0,0,0-.38-.5.6.6,0,0,0-.3-.13.26.26,0,0,0-.24.11.25.25,0,0,0-.06.23,1.58,1.58,0,0,0,.19.4,1.36,1.36,0,0,1,.24.56.58.58,0,0,1-.13.39.59.59,0,0,1-.52.25,1.17,1.17,0,0,1-.65-.27,1.42,1.42,0,0,1-.43-.5Z"/><polygon class="cls-7" points="1412.37 2860.95 1411.48 2860.05 1410.7 2860.82 1411.53 2861.66 1411.26 2861.92 1410.44 2861.08 1409.41 2862.09 1409.12 2861.79 1411.46 2859.48 1412.64 2860.69 1412.37 2860.95"/><path class="cls-7" d="M1412.81,2864.33l-1-1.27a.84.84,0,0,0-.32.53.67.67,0,0,0,.18.55,1.19,1.19,0,0,0,.66.4l-.29.23a1.39,1.39,0,0,1-.69-.49,1,1,0,0,1-.25-.82,1.35,1.35,0,0,1,.51-.79,1.34,1.34,0,0,1,.89-.32,1,1,0,0,1,.76.38.91.91,0,0,1,.22.75,1.21,1.21,0,0,1-.47.72Zm0-.53a.77.77,0,0,0,.29-.43.52.52,0,0,0-.14-.43.58.58,0,0,0-.41-.22.94.94,0,0,0-.52.13Z"/><path class="cls-7" d="M1413.52,2867.27l-.23-.34.33-.22h0a.86.86,0,0,1-.82-.43.87.87,0,0,1-.12-.76,1.32,1.32,0,0,1,.57-.69,1.45,1.45,0,0,1,.94-.27,1,1,0,0,1,.72.46.74.74,0,0,1,.07.78h0l1.2-.79.23.34Zm.94-1.11a.63.63,0,0,0,.29-.41.6.6,0,0,0-.09-.49.65.65,0,0,0-.49-.3,1.16,1.16,0,0,0-.67.21,1,1,0,0,0-.42.5.6.6,0,0,0,.08.53.62.62,0,0,0,.46.29.88.88,0,0,0,.57-.15Z"/><path class="cls-7" d="M1415.8,2869.25l-.76-1.46a.82.82,0,0,0-.42.45.72.72,0,0,0,.07.58,1.14,1.14,0,0,0,.56.52l-.33.18a1.36,1.36,0,0,1-.57-.63,1,1,0,0,1-.09-.85,1.38,1.38,0,0,1,.66-.67,1.26,1.26,0,0,1,.94-.13,1,1,0,0,1,.67.52.94.94,0,0,1,.07.78,1.26,1.26,0,0,1-.62.61Zm.1-.53a.7.7,0,0,0,.36-.36.51.51,0,0,0,0-.45.61.61,0,0,0-.37-.29.81.81,0,0,0-.53,0Z"/><path class="cls-7" d="M1417.4,2870.81a.45.45,0,0,0,0-.29.46.46,0,0,0-.36-.28,1,1,0,0,0-.61.08l-1.1.46-.15-.38,2.16-.91.16.39-.44.18h0a.66.66,0,0,1,.72.36.74.74,0,0,1,0,.22Z"/><path class="cls-7" d="M1417.91,2871.46a1.56,1.56,0,0,1,.46.7.77.77,0,0,1-.58,1.08l-1.44.47-.13-.39.35-.11h0a.79.79,0,0,1-.62-.55.82.82,0,0,1,0-.58.64.64,0,0,1,.41-.34c.42-.14.74,0,1,.5l.31.63c.36-.12.5-.33.4-.63a1.19,1.19,0,0,0-.51-.64Zm-.81,1a.62.62,0,0,0-.26-.33.4.4,0,0,0-.54.18.47.47,0,0,0,0,.33.59.59,0,0,0,.32.37.69.69,0,0,0,.51,0l.21-.07Z"/><path class="cls-7" d="M1416.85,2875.63a.73.73,0,0,1-.16-.33c-.09-.41.08-.67.54-.78l1.31-.32-.09-.39.34-.08.09.4.55-.14.22.38-.67.16.13.56-.33.08-.14-.56-1.24.29a.56.56,0,0,0-.31.16.32.32,0,0,0,0,.28.33.33,0,0,0,.13.21Z"/><path class="cls-7" d="M1417,2876.31l2.31-.41.07.41-2.31.41Zm3.11-.6a.24.24,0,0,1,.2,0,.25.25,0,0,1,.1.17.24.24,0,0,1,0,.2.26.26,0,0,1-.17.11.25.25,0,0,1-.19-.05.28.28,0,0,1-.11-.17.27.27,0,0,1,0-.2.23.23,0,0,1,.17-.1"/><path class="cls-7" d="M1418.31,2877.35a1.25,1.25,0,0,1,.94.24,1.15,1.15,0,0,1,.43.84,1.08,1.08,0,0,1-.24.85,1.27,1.27,0,0,1-.87.39,1.25,1.25,0,0,1-.92-.23,1.08,1.08,0,0,1-.42-.82,1.12,1.12,0,0,1,.24-.87,1.26,1.26,0,0,1,.84-.4m.06.43a.91.91,0,0,0-.62.26.71.71,0,0,0-.18.57.66.66,0,0,0,.28.52,1,1,0,0,0,.67.12,1.07,1.07,0,0,0,.64-.25.7.7,0,0,0,.17-.56.69.69,0,0,0-.29-.53,1,1,0,0,0-.67-.13"/><path class="cls-7" d="M1417.4,2882.48v-.41l1.34,0c.48,0,.72-.16.73-.52a.59.59,0,0,0-.2-.45.72.72,0,0,0-.51-.18l-1.34,0v-.41l2.34,0v.41h-.39a.86.86,0,0,1,.43.77.71.71,0,0,1-.26.58,1,1,0,0,1-.72.19Z"/></g><path class="cls-4" d="M1398,2868.32l-8.54,9.39a1.84,1.84,0,0,0-.17.22c-1.22,1.44-3.44,3.93-6.33,2.7-2.21-1-3.68-3.59-6.1-4.22a4.23,4.23,0,0,0-5.09,3.88c2.74.06,4.53,1.61,4.94,5.32.44,4,1.11,6.7,3.17,8.57a9.92,9.92,0,0,0,13.19,1,8.17,8.17,0,0,0,.93-.74c2.19-2,4.33-4.18,5.75-5.67a1.15,1.15,0,0,0,.23-.21l.88-1,.6-.65h0l7.08-7.77a1.59,1.59,0,0,0-2.35-2.14l-7.41,8.15a.38.38,0,0,1-.5-.57l.59-.64h0l8.55-9.39a1.59,1.59,0,0,0-2.35-2.14l-8.49,9.33h0l-.47.52a.47.47,0,0,1-.67,0,.46.46,0,0,1,0-.66l.22-.25.13-.13,8.55-9.39a1.59,1.59,0,0,0-2.35-2.13l-8.54,9.39a.69.69,0,0,0-.11.13l0,0a.37.37,0,0,1-.59-.45l7.68-8.44a1.58,1.58,0,0,0-.11-2.24,1.55,1.55,0,0,0-1.06-.42,1.59,1.59,0,0,0-1.18.52"/><g class="cls-15"><rect class="cls-16" x="1367.1" y="2858.77" width="46.67" height="47.51" transform="translate(-1701.67 2057.22) rotate(-49.3)"/></g><g class="cls-11"><polygon class="cls-7" points="1403.63 2885.03 1401.75 2881.48 1395.64 2884.72 1395.64 2877.78 1391.56 2877.78 1391.56 2884.61 1385.63 2881.26 1383.65 2884.77 1389.41 2888.02 1383.57 2891.12 1385.45 2894.67 1391.56 2891.43 1391.56 2898.37 1395.64 2898.37 1395.64 2891.54 1401.57 2894.89 1403.55 2891.39 1397.79 2888.13 1403.63 2885.03"/></g><use transform="translate(300.98 2179.62) scale(0.94)" xlink:href="#image-2"/><text class="cls-17" transform="translate(753.5 2126.92)">救援现场</text><use transform="translate(323.82 3038.67)" xlink:href="#image"/><g class="cls-18"><image width="1280" height="960" transform="translate(320.21 3006.49) scale(0.88)" xlink:href="../../%E7%94%9F%E5%91%BD%E5%8B%8B%E7%AB%A0%20%E7%85%A7%E7%89%87/2015-4-22-24%E7%99%BD%E9%A9%AC%E5%B1%B1%E6%89%93%E9%93%B6%E5%9D%91%E6%BA%AA%E8%B0%B7%E6%95%91%E6%8F%B4/%E5%BE%AE%E4%BF%A1%E5%9B%BE%E7%89%87_2022042711515514.jpg"/></g><path class="cls-6" d="M1389.74,3625.28c10.8,7.07,28.67,10.93,41,2.9l13.93,15.71c-11.16,9.56-12.87,23.4-8,33.57,19.35,37.11,14.43,61.69-26.07,78.24-8.19,3.67-17.71,9.29-20.83,12.65-3.13-3.36-12.61-9-20.81-12.65-40.5-16.55-45.41-41.13-26.06-78.24,4.8-10.17,3.08-24-8-33.57l13.93-15.71c12.29,8,30.16,4.17,41-2.9Z"/><path class="cls-7" d="M1388.73,3761.16c-5-4.43-9.92-6.32-22.29-12.46h0c-10.34-5.12-17.52-10.61-22.15-16.64h0a31.12,31.12,0,0,1-6.62-19.55h0c0-9.76,3.81-20.24,9.37-31.83h0a38.5,38.5,0,0,0,3.59-15.8h0a28.84,28.84,0,0,0-7.74-20h0l-.91-1,7.7-9,1,.31a56.86,56.86,0,0,0,17.49,3.18h0c8.89,0,14.57-3.06,21-6h0l.63-.28.63.28c6.41,2.92,12.09,6,21,6h0a57.08,57.08,0,0,0,17.52-3.18h0l1-.31,7.65,9-.9,1a28.9,28.9,0,0,0-7.75,20h0a38.61,38.61,0,0,0,3.59,15.78h0c5.57,11.61,9.38,22.1,9.39,31.87h0a31.05,31.05,0,0,1-6.62,19.53h0c-4.63,6-11.82,11.52-22.16,16.64h0c-12.36,6.14-17.3,8-22.3,12.46h0l-1,.9-1-.9ZM1349.8,3682c-5.5,11.44-9.08,21.59-9.08,30.53h0a28,28,0,0,0,6,17.69h0c4.23,5.52,11,10.78,21.08,15.76h0c11.46,5.72,16.79,7.78,22,12.05h0c5.19-4.27,10.48-6.33,22-12.05h0c10.08-5,16.86-10.24,21.09-15.75h0a28,28,0,0,0,6-17.68h0c0-9-3.59-19.11-9.1-30.55h0v0a41.64,41.64,0,0,1-3.87-17.07h0a31.91,31.91,0,0,1,7.65-21h0l-4.61-5.45a59.06,59.06,0,0,1-17.48,3h0c-9.33,0-15.57-3.18-21.62-6h0c-6,2.77-12.29,6-21.61,6h0a58.83,58.83,0,0,1-17.45-3h0l-4.65,5.45a31.91,31.91,0,0,1,7.65,21h0a41.64,41.64,0,0,1-3.87,17.07h0l0,0Z"/><path class="cls-8" d="M1389.75,3633.8c9.68,4.4,18.61,9.63,39.61,2.87l6.12,7.22c-11,12-9.17,27-4.41,37.43,13.42,27.94,16.08,48.81-18.69,66-12.29,6.12-17.36,8-22.63,12.69-5.23-4.66-10.34-6.57-22.63-12.69-34.73-17.2-32.11-38.07-18.69-66,4.76-10.44,6.55-25.39-4.41-37.43l6.16-7.22c21,6.76,29.89,1.53,39.57-2.87Z"/><path class="cls-9" d="M1411.79,3674.74l-3.13.63a36,36,0,0,1,9.07,7.38l3.1.24c-.93-1.15-1.9-2.22-2.91-3.25a39.26,39.26,0,0,0-6.13-5Zm-2.91,66.79.52-3.49a36.26,36.26,0,0,1-9.27,4l-1.75,3.34a39.93,39.93,0,0,0,10.5-3.89Zm12.59-10.79-.79-3.46a36.94,36.94,0,0,1-8.48,8.89l-.33,3,.71.08a40.06,40.06,0,0,0,5.34-4.49,45.58,45.58,0,0,0,3.55-4Zm6.69-13.78-1.91-2.86a36.18,36.18,0,0,1-3.7,10.17l.94,3.53a39.13,39.13,0,0,0,4.67-10.84Zm.74-15.67-2.61-1.23a34.65,34.65,0,0,1,.67,6.9c0,1.11,0,2.26-.15,3.34l2,2.77.11-.08a35.87,35.87,0,0,0,.45-5.71h0a39.36,39.36,0,0,0-.49-6Zm-5.75-15.13-3-.31a35.06,35.06,0,0,1,5.31,10.75l2.57,1.08.08-.16A39.48,39.48,0,0,0,1423.15,3686.16Z"/><path class="cls-10" d="M1430.47,3724.23v-8.7l3.18-2.42a43,43,0,0,1-3.18,11.12Zm0-12.23v-12.3l2.09-4.21a42.56,42.56,0,0,1,1.53,11.47c0,1,0,1.87-.07,2.78l-3.55,2.26Zm0-18.45v-3.93c.34.75.67,1.54,1,2.34Zm-8.59-16.79a44.63,44.63,0,0,0-11.54-8.62l1.42,5.6.07.32a36.66,36.66,0,0,1,6.46,5.24,38.9,38.9,0,0,1,3,3.29v-.24l.6-5.59Zm8.59,12.86v3.93l-1.87,3.17-.07.12a38.89,38.89,0,0,0-4.63-10.56h.22l.19-6.74a42.25,42.25,0,0,1,6.16,10.08Zm0,10.08V3712l-.89.56a27.56,27.56,0,0,0,.33-3.54c0-.67,0-1.38,0-2.06a39.67,39.67,0,0,0-.22-4.28,38,38,0,0,1,.22,5c0,.43,0,.83,0,1.27,0-.56,0-1.12,0-1.67h0a39.2,39.2,0,0,0-.34-5.24v0a.39.39,0,0,1,0-.16v0c0-.08,0-.16,0-.24h0v0l.89-1.82Zm0,15.83v8.7c-.33.75-.67,1.5-1,2.26l-5.16,1.15a39.29,39.29,0,0,0,4.52-10.8l1.68-1.31Zm-31.57,30.36,4,2.78a43.57,43.57,0,0,0,13.22-6.59h-7.06a38.44,38.44,0,0,1-10.2,3.81Zm20.14-6.11a44.62,44.62,0,0,0,8.71-10.27l-6.06,1.86a35.46,35.46,0,0,1-3.4,3.85,37.21,37.21,0,0,1-4.78,4.13Z"/><path class="cls-9" d="M1368.47,3674.74a39.65,39.65,0,0,0-6.12,5c-1,1-2,2.1-2.91,3.25l3.1-.24a36.05,36.05,0,0,1,9.08-7.38l-3.15-.63Zm2.92,66.79a39.93,39.93,0,0,0,10.5,3.89l-1.76-3.34a36.5,36.5,0,0,1-9.26-4l.52,3.49Zm-12.59-10.79a45.58,45.58,0,0,0,3.55,4,40.06,40.06,0,0,0,5.34,4.49l.71-.08-.34-3a37.13,37.13,0,0,1-8.48-8.89l-.78,3.46Zm-6.69-13.78a39.13,39.13,0,0,0,4.67,10.84l.93-3.53a36.79,36.79,0,0,1-3.69-10.17l-1.91,2.86Zm-.74-15.67a39.36,39.36,0,0,0-.49,6h0a35.87,35.87,0,0,0,.45,5.71l.11.08,2-2.77c-.11-1.08-.15-2.23-.15-3.34a34.65,34.65,0,0,1,.67-6.9l-2.61,1.23Zm.78-3.77.08.16,2.57-1.08a35.06,35.06,0,0,1,5.31-10.75l-3,.31A39.21,39.21,0,0,0,1352.15,3697.52Z"/><path class="cls-10" d="M1349.8,3724.23a43,43,0,0,1-3.18-11.12l3.18,2.42v8.7Zm0-12.23-3.55-2.26c0-.91-.08-1.82-.08-2.78a43,43,0,0,1,1.54-11.47l2.09,4.21V3712Zm-1-20c.3-.8.64-1.59,1-2.34v3.93Zm9.57-15.2.6,5.59v.24a40.55,40.55,0,0,1,3-3.29,36.73,36.73,0,0,1,6.47-5.24l.07-.32,1.42-5.6a44.46,44.46,0,0,0-11.54,8.62Zm-8.59,12.86a42.25,42.25,0,0,1,6.16-10.08l.19,6.74h.22a38.89,38.89,0,0,0-4.63,10.56l-.07-.12-1.87-3.17v-3.93Zm0,10.08.89,1.82v0h0c0,.08,0,.16,0,.24v0a.3.3,0,0,1,0,.16v0a41,41,0,0,0-.33,5.24h0c0,.55,0,1.11,0,1.67,0-.44,0-.84,0-1.27a36.39,36.39,0,0,1,.23-5,37.23,37.23,0,0,0-.23,4.28c0,.68,0,1.39,0,2.06a25.88,25.88,0,0,0,.33,3.54l-.89-.56v-12.3Zm0,15.83,1.68,1.31a39.29,39.29,0,0,0,4.52,10.8l-5.16-1.15c-.37-.76-.71-1.51-1-2.26v-8.7Zm31.56,30.36a38.37,38.37,0,0,1-10.19-3.81h-7.07a43.62,43.62,0,0,0,13.23,6.59l4-2.78Zm-14.6-6.54a38,38,0,0,1-4.79-4.13,36.47,36.47,0,0,1-3.39-3.85l-6.06-1.86a44.38,44.38,0,0,0,8.71,10.27Z"/><path class="cls-7" d="M1371.57,3650.11a2.17,2.17,0,0,0-2.49-2.32c-1.6.11-2.43.77-2.49,2s.83,1.88,2.82,2.16a2.91,2.91,0,0,1,.42.08q5.4,1.08,5.31,4.24-.08,4.81-6.56,5c-4,0-5.95-1.69-5.89-5.07H1366a2.49,2.49,0,0,0,2.57,2.83c2-.06,3-.72,3.08-2,0-1.05-1-1.77-2.91-2.15a3.06,3.06,0,0,1-.58-.17q-5.07-1.17-5.07-4.24.26-4.72,6.4-5.06c3.32.17,5.06,1.74,5.23,4.73Z"/><path class="cls-7" d="M1380.62,3661.07h-3.32v-15.36h6.56q5.23.09,5.31,4a3.66,3.66,0,0,1-3.15,3.73v.09c1.72.05,2.63,1.19,2.74,3.4a2.6,2.6,0,0,1,.08.5,9.28,9.28,0,0,0,.83,3.65h-3.57a20.76,20.76,0,0,1-.58-4.15c-.11-1.33-.58-2-1.41-2h-3.49Zm0-8.72h2.74c1.55,0,2.33-.71,2.33-2.15s-.78-2-2.33-1.91h-2.74Z"/><path class="cls-7" d="M1390.42,3645.71H1394l4,12.12h.09l4-12.12h3.24l-5.65,15.36h-3.56Z"/><path class="cls-7" d="M1406.94,3661.07v-15.36h9.88v2.58h-6.64v3.65h6.22v2.57h-6.22v6.56Z"/><g class="cls-19"><path class="cls-12" d="M1424.18,3706.67a34.13,34.13,0,1,1-34.13-34.23,34.17,34.17,0,0,1,34.13,34.23"/><path class="cls-7" d="M1390.05,3673a33.68,33.68,0,1,0,33.67,33.68,33.71,33.71,0,0,0-33.67-33.68m32.71,33.68a32.71,32.71,0,1,1-32.71-32.73,32.75,32.75,0,0,1,32.71,32.73"/><path class="cls-7" d="M1413.51,3706.67a23.46,23.46,0,1,1-23.45-23.47,23.45,23.45,0,0,1,23.45,23.47"/></g><g class="cls-20"><rect class="cls-21" x="1369.47" y="3686.08" width="41.16" height="41.18"/></g><g class="cls-19"><polygon class="cls-7" points="1362.73 3712.41 1363.24 3713.45 1364.38 3713.61 1363.56 3714.41 1363.75 3715.54 1362.73 3715.01 1361.72 3715.54 1361.91 3714.41 1361.09 3713.61 1362.22 3713.45 1362.73 3712.41"/><polygon class="cls-7" points="1417.38 3712.41 1417.88 3713.45 1419.02 3713.61 1418.2 3714.41 1418.39 3715.54 1417.38 3715.01 1416.36 3715.54 1416.55 3714.41 1415.73 3713.61 1416.87 3713.45 1417.38 3712.41"/><path class="cls-7" d="M1364.47,3719.24c0,.12,0,.25,0,.37l-1.64.35,0-.37c.54-.09,1.1-.21,1.65-.35m.74,3.67-.37-.06a3.64,3.64,0,0,1,.48-1.58l-1.34.74-.16-.28,1.35-.76a4.33,4.33,0,0,1-1.69-.47,2.89,2.89,0,0,0,.1-.35,4.47,4.47,0,0,0,1.74.64l-.57-1,.27-.15.61,1.1.46-.25.16.29-.46.25.63,1.13-.27.15-.59-1.07a3.87,3.87,0,0,0-.35,1.7m.12-4.6q0,.55-.09,1l-.35-.06c0-.3.1-.63.13-1Zm1.22,1.63-.09.3a12.17,12.17,0,0,1-1.17-.49,2.22,2.22,0,0,0,.14-.31,6.43,6.43,0,0,0,1.12.5m-.22-2c0,.38-.08.71-.12,1l-.36-.07c.08-.39.14-.73.17-1Zm.27.91,1.31,2.35-.6.34-.17-.3.33-.18-1-1.77-.34.19-.16-.29Zm0,1.7.29.07q-.06.63-.15,1.23l-.34-.07a9.86,9.86,0,0,0,.2-1.23"/><path class="cls-7" d="M1366.28,3723.43l.5.35,1-.85-.33-.41.23-.2.34.41.78-.63.2.24-.78.64.32.39-.23.2-.33-.4-1,.8.48.33-.24.21-1.24-.81Zm3.22-.47.21.25-1.16.95a5.46,5.46,0,0,1-1.28.86,2.27,2.27,0,0,1-1.22.12,2.7,2.7,0,0,0,.06-.36,1.86,1.86,0,0,0,1.09-.09,5.72,5.72,0,0,0,1.14-.78Zm.47.82.21.25-2.71,2.22-.2-.25Zm.72.64.21.25-3.08,2.52-.2-.25Z"/><path class="cls-7" d="M1369.64,3728.45l-.24-.21,1.4-1.64,1.13,1,.38-.44-1.4-1.2.2-.24,1.48,1.27a5.31,5.31,0,0,0,.12-.6l.34.1a6.17,6.17,0,0,1-.1.62l-.3-.08,1.54,1.32-.21.24-1.42-1.21-.37.44,1.15,1-1,1.19a.45.45,0,0,1-.72.08l-.44-.4c0-.08.1-.17.17-.29.16.16.3.29.41.38a.23.23,0,0,0,.38,0l.77-.9-.9-.78-1.49,1.74-.26-.22,1.49-1.73-.88-.76Z"/><path class="cls-7" d="M1376.11,3731.69q.12,1,.15,1.74h-.38c0-.15,0-.3,0-.47l-2-1a3.07,3.07,0,0,0-.37-.13l0-.4a1.2,1.2,0,0,0,.42,0,9.17,9.17,0,0,0,1.76-.9l.23.32a16.56,16.56,0,0,1-1.8.88l1.72.92c0-.29,0-.6-.07-.92Zm-2.09-1.83a4.74,4.74,0,0,0,2.11-.84l.22.29a5.78,5.78,0,0,1-2.23.92,1.86,1.86,0,0,0-.1-.37m2.92-.3.32.06a3.32,3.32,0,0,0,.43,2.25,2.52,2.52,0,0,0-.39.15,3.86,3.86,0,0,1-.36-2.46"/><path class="cls-7" d="M1377.81,3733.88l.57.21.49-1.31,2.75,1-.49,1.32.54.2-.1.27-3.86-1.42Zm2.23-1.73.09.32c-.5.1-1.05.19-1.65.25a1.61,1.61,0,0,0-.06-.33,12.58,12.58,0,0,0,1.62-.24m-1.38,2,.54.2.39-1.05-.54-.2Zm.22-2.93,2.14.79a6.91,6.91,0,0,0,1-.52l.23.29c-.26.14-.51.27-.77.38l1.16.43-.1.28-3.71-1.37Zm.6,3.23.55.2.38-1-.54-.2Zm.22-3.57.28-.12c.16.24.31.47.43.69l-.31.16a7.84,7.84,0,0,0-.4-.73m1.53,3-.54-.2-.39,1.05.55.21Zm-.37-1.22.25-.18c.43.44.8.84,1.1,1.19l-.28.22c-.41-.49-.76-.9-1.07-1.23"/><path class="cls-7" d="M1383.37,3732.81l.83.15.13-.69.3.05-.12.69.87.16-.06.29-.86-.15-.26,1.46.2-.14.58.78-.28.2c-.17-.27-.34-.52-.52-.76l-.15.89c-.07.36-.26.51-.58.46l-.52-.1v-.38a3.25,3.25,0,0,0,.47.12.27.27,0,0,0,.34-.25l.14-.77-.83.54-.16-.29c.33-.18.63-.36.89-.53l.11.21.26-1.49-.83-.15Zm-.08.72.29-.11.3.76-.31.11c-.09-.28-.19-.53-.28-.76m1.65.16.24.2c-.21.22-.41.42-.6.59l-.22-.22a8,8,0,0,0,.58-.57m0,.77a8.17,8.17,0,0,0,1.1-1.88l.28.12c-.09.22-.19.43-.3.64l1.28.23,0,.3-.32-.06a3.83,3.83,0,0,1-.9,1.79,2.79,2.79,0,0,0,.79.9l-.25.27a3.49,3.49,0,0,1-.8-.94,3.86,3.86,0,0,1-1.21.63l-.15-.31a3.44,3.44,0,0,0,1.22-.63,3.32,3.32,0,0,1-.22-1.19,4.15,4.15,0,0,1-.24.34,2.29,2.29,0,0,0-.23-.21m-.19-1.89.21-.16a5.33,5.33,0,0,1,.4.42l-.24.19a4.88,4.88,0,0,0-.37-.45m1,1.31a3.6,3.6,0,0,0,.17,1.39,3.45,3.45,0,0,0,.74-1.51l-.76-.14-.15.26"/><path class="cls-7" d="M1388,3735.05l.53-.2,0-1h-.5v-.29h.5l0-.77h.31v.77h.49v.29h-.49v.83l.4-.17s0,.12,0,.33l-.44.19,0,1.39q0,.42-.36.45h-.37c0-.12,0-.23-.06-.35h.32c.11,0,.16-.06.16-.18l0-1.2-.47.2Zm1.38-.4h.59c0-.11,0-.22.07-.33h-.58v-.27l1.7,0a7.59,7.59,0,0,0,.37-.7l.3.17-.35.52h.56v.27l-1.7,0a3.43,3.43,0,0,1-.06.34l1.83,0v.27l-1.9,0c0,.11-.07.22-.11.33l1.63,0v.26a2.92,2.92,0,0,1-.65.79,3.07,3.07,0,0,0,1.12.27c-.06.12-.12.23-.16.33a3.23,3.23,0,0,1-1.25-.4,4,4,0,0,1-1.12.49c-.05-.09-.12-.18-.19-.28a4.51,4.51,0,0,0,1-.39,2.21,2.21,0,0,1-.56-.69,4.56,4.56,0,0,1-.69,1.12,2.76,2.76,0,0,0-.25-.21,4,4,0,0,0,.87-1.59h-.51Zm.09-1.24c0-.09,0-.19-.06-.3.87,0,1.71-.1,2.51-.19l.06.3c-.6.07-1.44.13-2.51.19m.13.15.25-.13c.1.14.2.29.29.44l-.27.16a2.83,2.83,0,0,0-.27-.47m1.77,1.92-1.14,0a1.76,1.76,0,0,0,.56.59,2.1,2.1,0,0,0,.58-.61m-.93-2,.27-.11a3.08,3.08,0,0,1,.23.51l-.28.12a4.48,4.48,0,0,0-.22-.52"/><path class="cls-7" d="M1393.33,3734.42l1.49-.27-.13-.79-1.81.32-.05-.29,1.8-.32-.12-.66.34-.06.12.66,1.81-.32.06.28-1.82.33.14.79,1.5-.27.06.29-3.35.59Zm.15.66.33,0q-.06.65-.15,1.14l-.33-.05a7.72,7.72,0,0,0,.15-1.13m.61,0,.32-.06.17.94a.22.22,0,0,0,.29.2l.87-.16c.19,0,.3-.13.31-.28a3,3,0,0,0,0-.51l.35.06a4,4,0,0,1,0,.52c0,.28-.17.44-.49.5l-1,.18a.46.46,0,0,1-.6-.44Zm.61-.3.22-.22c.25.21.49.44.73.67l-.24.24a8.94,8.94,0,0,0-.71-.69m1.61,0,.23-.21a9.24,9.24,0,0,1,.76.77l-.25.25c-.26-.31-.51-.58-.74-.81"/><path class="cls-7" d="M1398.6,3732.2l.8-.3,0-.31-1.34.49.43,1.18a7.34,7.34,0,0,1,.4,1.35,2.84,2.84,0,0,1,0,1.08l-.31-.19a3,3,0,0,0,0-.9,6,6,0,0,0-.34-1.16l-.56-1.5,3.45-1.28.1.25-1.52.56,0,.32,1.28-.47.47,1.27-.27.11,0-.12-.7.26.11.29a.4.4,0,0,1-.25.59l-.41.15a2.63,2.63,0,0,0-.16-.26l.4-.12a.2.2,0,0,0,.13-.29l-.1-.26-.85.32,0,.11-.28.1Zm.88,1.1.26.13a9.81,9.81,0,0,1-.67.79,1.67,1.67,0,0,0-.26-.17,3.92,3.92,0,0,0,.67-.75m1.3-1.65-1.82.67.09.25,1.82-.68Zm-1.56,1.38,1.82-.68-.09-.24-1.82.68Zm-.06,1.28h.31a6.88,6.88,0,0,1,0,.91l-.31,0a5.15,5.15,0,0,0,0-.87m.48-.15.29-.11.17.47a.26.26,0,0,0,.39.17l.45-.16c.18-.07.27-.19.25-.34a2.61,2.61,0,0,0-.07-.42,2.18,2.18,0,0,0,.35,0,4.4,4.4,0,0,1,0,.45c0,.24-.12.42-.43.54l-.56.2a.48.48,0,0,1-.7-.3Zm.6-.24.18-.22c.18.1.35.2.51.31l-.19.25a3.39,3.39,0,0,0-.5-.34m.56-.78,0-.28q.57,0,1.11,0l0,.32c-.39,0-.76,0-1.12,0m.67.42.2-.22c.2.14.42.31.68.52l-.22.26a5.91,5.91,0,0,0-.66-.56"/><path class="cls-7" d="M1402.27,3731.38l1.37-.81-.27-.45-1,.6-.14-.25,1-.6-.27-.45.28-.17.27.45.89-.52.14.25-.88.52.27.45.35-.21a5.13,5.13,0,0,0,.43-1.48l.36,0a6.4,6.4,0,0,1-.34,1.2l1-.61.15.24-1.37.81a8.13,8.13,0,0,1-.4.77l1.43-.84,1,1.73-.28.17-.13-.21-1.66,1,.12.21-.28.17-.79-1.34c-.14.21-.3.41-.46.62a3.15,3.15,0,0,0-.32-.16,10.66,10.66,0,0,0,1.26-1.81l-1.64,1Zm1.51.34.22.38,1.67-1-.25-.41-1.6,1,0,.07m.6,1,1.66-1-.24-.41-1.67,1Z"/><path class="cls-7" d="M1407.57,3730.28l.21-.25-1.66-1.92-.2.17-.19-.22,1.37-1.17.19.22-.24.2,1.51,1.76.25-.3a2.07,2.07,0,0,0,.21.21l-.26.32.58.68-.23.2-.54-.63-.72.93Zm-.82-1.91.47-.4-.4-.46-.46.4Zm.59.68.46-.4-.4-.46-.46.4Zm-.24-2.33.07-.29a5.19,5.19,0,0,1,.76.17l-.08.32a7.23,7.23,0,0,0-.75-.2m1,1.53.73-.63-.48-.59-.66.57-.2-.24.86-.74c0-.23-.11-.56-.2-1l.34-.09c0,.32.08.61.11.87l.53-.46.2.24-.74.63c.2.23.36.43.48.59l.86-.74.21.23-.83.71a2.5,2.5,0,0,0,1.84.38,2.8,2.8,0,0,0,0,.41,3,3,0,0,1-1.71-.39,2.51,2.51,0,0,1,.17,1.77l-.35-.06a2.13,2.13,0,0,0-.25-1.85l-.71.61Zm.32,1.07-.39-.45-.46.39.46.53.39-.47"/><path class="cls-7" d="M1410.56,3723l0,.15a4.21,4.21,0,0,0,2.23-.56c0,.14.08.27.12.38a5.74,5.74,0,0,1-.69.26l.18.15-1.54,1.9-.16-.14c0,.25-.07.5-.11.76l-.38,0a5.3,5.3,0,0,0,0-2.5Zm.08.48a5.27,5.27,0,0,1,.09,1.52l1.42-1.73a5.56,5.56,0,0,1-1.51.21m.51,2.31,1.84-2.25,1.44,1.17-.21.26-.22-.18-1.42,1.74.23.18-.21.26Zm1.87-1.8-1.42,1.74.75.61,1.42-1.73Z"/><path class="cls-7" d="M1413.24,3719.55a6.92,6.92,0,0,1,.47,2.41l-.37.06a5.57,5.57,0,0,0-.47-2.49l.21-.39.06.12a4.22,4.22,0,0,0,2.16-1c.06.13.13.25.2.38a4.85,4.85,0,0,1-2.26.89m.42,1.56,1.12-2,.27.15-1.12,2Zm2.1-.88a13.13,13.13,0,0,1,1.39-.42l.08.35-.45.11-.92,1.92a1.9,1.9,0,0,0-.09.36h-.39a1.06,1.06,0,0,0,0-.4,6.74,6.74,0,0,0-.38-1l-.68,1.21-.27-.15,1.87-3.35.27.15-1,1.77a10.92,10.92,0,0,1,.43,1.19c.28-.55.54-1.08.79-1.58l-.58.16Z"/><path class="cls-7" d="M1362.42,3708.57a1.42,1.42,0,0,0,.2-.41,1.71,1.71,0,0,0,.07-.49c0-.46-.19-.68-.51-.67a.41.41,0,0,0-.25.08.78.78,0,0,0-.19.21c0,.09-.13.25-.24.49a1.91,1.91,0,0,1-.44.67.74.74,0,0,1-.48.17.73.73,0,0,1-.65-.31,1.31,1.31,0,0,1-.27-.81,1.59,1.59,0,0,1,.1-.73h.46a1.14,1.14,0,0,0-.18.75.81.81,0,0,0,.14.49.41.41,0,0,0,.35.18.45.45,0,0,0,.32-.14,3,3,0,0,0,.33-.58,2.06,2.06,0,0,1,.44-.7.83.83,0,0,1,.51-.21.78.78,0,0,1,.67.3,1.42,1.42,0,0,1,.26.86,2,2,0,0,1,0,.46,1.13,1.13,0,0,1-.12.38Z"/><path class="cls-7" d="M1363.12,3703.81l0,.41-1.34-.09c-.48,0-.72.13-.75.47a.6.6,0,0,0,.18.47.85.85,0,0,0,.51.21l1.32.09,0,.41-3.46-.23,0-.42,1.51.11h0a.87.87,0,0,1-.39-.8c0-.52.37-.76,1-.72Z"/><path class="cls-7" d="M1362.49,3700.91l-.28,1.62a.84.84,0,0,0,.61-.11.7.7,0,0,0,.3-.5,1.2,1.2,0,0,0-.13-.76l.36.07a1.35,1.35,0,0,1,.08.84,1,1,0,0,1-.45.73,1.49,1.49,0,0,1-1.75-.32,1,1,0,0,1-.22-.83.92.92,0,0,1,.41-.66,1.21,1.21,0,0,1,.86-.11Zm-.4.35a.75.75,0,0,0-.51.07.53.53,0,0,0-.24.38.58.58,0,0,0,.11.46.83.83,0,0,0,.44.3Z"/><path class="cls-7" d="M1364.22,3698.5l-.11.4-1.28-.36c-.47-.13-.75,0-.84.32a.57.57,0,0,0,.08.49.73.73,0,0,0,.45.3l1.29.36-.11.4-2.26-.62.11-.4.37.1h0a.84.84,0,0,1-.22-.86.75.75,0,0,1,.39-.5,1.12,1.12,0,0,1,.75,0Z"/><polygon class="cls-7" points="1365.08 3696.16 1364.39 3697.98 1364.26 3697.93 1363.01 3695.99 1362.56 3697.15 1362.24 3697.03 1362.89 3695.32 1363.02 3695.37 1364.28 3697.3 1364.76 3696.04 1365.08 3696.16"/><path class="cls-7" d="M1366.21,3693.8l-.18.37-1.21-.59c-.42-.21-.71-.16-.87.16a.56.56,0,0,0,0,.49.74.74,0,0,0,.39.39l1.19.59-.19.37-3.11-1.54.19-.37,1.35.67h0a.83.83,0,0,1-.06-.88c.23-.47.64-.57,1.21-.28Z"/><path class="cls-7" d="M1366.74,3690.88l-.87,1.4a.85.85,0,0,0,.6.13.73.73,0,0,0,.46-.36,1.12,1.12,0,0,0,.17-.74l.31.19a1.35,1.35,0,0,1-.24.82,1.07,1.07,0,0,1-.7.5,1.45,1.45,0,0,1-1.49-1,1,1,0,0,1,.11-.84.93.93,0,0,1,.63-.46,1.27,1.27,0,0,1,.84.22Zm-.5.18a.71.71,0,0,0-.5-.13.53.53,0,0,0-.37.26.57.57,0,0,0-.07.46.86.86,0,0,0,.29.45Z"/><path class="cls-7" d="M1369.26,3689.32l-.26.32-1-.81q-.57-.45-.9,0a.56.56,0,0,0-.11.48.81.81,0,0,0,.3.46l1.06.81-.26.33-1.85-1.43.25-.33.31.24h0a.87.87,0,0,1,.12-.88.71.71,0,0,1,.56-.31,1.1,1.1,0,0,1,.69.28Z"/><path class="cls-7" d="M1372.61,3685.92l-.36.34-1-.29a1.34,1.34,0,0,0-.48-.07.51.51,0,0,0-.3.15l-.22.21.94,1-.31.29-2.24-2.4.73-.69a1.17,1.17,0,0,1,.71-.34.81.81,0,0,1,.64.29.86.86,0,0,1,.07,1.14h0a.66.66,0,0,1,.28,0,3,3,0,0,1,.43.09Zm-3.43-.78.79.85.37-.35a.66.66,0,0,0,.23-.44.59.59,0,0,0-.17-.45.51.51,0,0,0-.4-.18.79.79,0,0,0-.45.22Z"/><path class="cls-7" d="M1373.81,3683.67l-1.31,1a.84.84,0,0,0,.52.34.71.71,0,0,0,.55-.17,1.13,1.13,0,0,0,.42-.64l.23.29a1.42,1.42,0,0,1-.52.68,1,1,0,0,1-.83.22,1.26,1.26,0,0,1-.76-.53,1.32,1.32,0,0,1-.3-.9,1,1,0,0,1,.41-.75.89.89,0,0,1,.75-.2,1.25,1.25,0,0,1,.71.5Zm-.54,0a.83.83,0,0,0-.42-.3.52.52,0,0,0-.43.12.56.56,0,0,0-.23.41.84.84,0,0,0,.11.52Z"/><path class="cls-7" d="M1374.65,3683.78a1.2,1.2,0,0,0,.7-.17c.27-.18.35-.35.24-.53a.27.27,0,0,0-.21-.13,1.64,1.64,0,0,0-.48.05,1.29,1.29,0,0,1-.59,0,.65.65,0,0,1-.3-.25.59.59,0,0,1,0-.56,1.16,1.16,0,0,1,.45-.51,1.34,1.34,0,0,1,.53-.21l.21.34a1.06,1.06,0,0,0-.59.17.6.6,0,0,0-.23.25.27.27,0,0,0,0,.26.29.29,0,0,0,.19.14,1.89,1.89,0,0,0,.45,0,1.43,1.43,0,0,1,.61,0,.52.52,0,0,1,.32.25.58.58,0,0,1,0,.57,1.12,1.12,0,0,1-.48.52,1.39,1.39,0,0,1-.61.23Z"/><path class="cls-7" d="M1378.29,3682.15a1.2,1.2,0,0,1-.5.44,1.07,1.07,0,0,1-.88.09,1.12,1.12,0,0,1-.67-.6,1.28,1.28,0,0,1-.13-1,1.18,1.18,0,0,1,.63-.73,1.16,1.16,0,0,1,.54-.15l.19.36a.85.85,0,0,0-.57.1.7.7,0,0,0-.4.48,1,1,0,0,0,.1.69.94.94,0,0,0,.48.47.74.74,0,0,0,.61-.07,1,1,0,0,0,.42-.44Z"/><path class="cls-7" d="M1380.76,3681.22l-.39.16-.14-.35h0a.77.77,0,0,1-.51.66c-.52.21-.9,0-1.15-.61l-.53-1.3.38-.15.51,1.24c.18.44.44.59.77.46a.55.55,0,0,0,.33-.35.73.73,0,0,0,0-.54l-.51-1.25.39-.15Z"/><path class="cls-7" d="M1383.11,3679.26l-1.58.46a.88.88,0,0,0,.36.5.72.72,0,0,0,.58,0,1.16,1.16,0,0,0,.63-.44l.1.35a1.37,1.37,0,0,1-.72.44,1,1,0,0,1-.86-.08,1.34,1.34,0,0,1-.52-.78,1.26,1.26,0,0,1,.05-.94,1,1,0,0,1,.65-.55.89.89,0,0,1,.77.08,1.22,1.22,0,0,1,.48.72Zm-.49-.2a.75.75,0,0,0-.29-.43.49.49,0,0,0-.45-.05.54.54,0,0,0-.36.3.81.81,0,0,0-.08.52Z"/><path class="cls-7" d="M1387.67,3676.37l-.79,3.41-.47.06-1.58-3.11.47-.06,1.19,2.44a1,1,0,0,1,.1.28h0a1.54,1.54,0,0,1,0-.3l.58-2.66Z"/><path class="cls-7" d="M1388.15,3678.49a1.25,1.25,0,0,1,.3-.92,1.16,1.16,0,0,1,.87-.36,1.05,1.05,0,0,1,.83.3,1.26,1.26,0,0,1,.33.89,1.23,1.23,0,0,1-.3.9,1.26,1.26,0,0,1-1.7.06,1.26,1.26,0,0,1-.33-.87m.42,0a.94.94,0,0,0,.22.63.7.7,0,0,0,.56.22.7.7,0,0,0,.54-.24,1.08,1.08,0,0,0,.16-.66,1,1,0,0,0-.2-.65.68.68,0,0,0-.55-.22.67.67,0,0,0-.54.26,1,1,0,0,0-.19.66"/><rect class="cls-7" x="1389.81" y="3677.7" width="3.47" height="0.41" transform="translate(-2352.6 4879.86) rotate(-87.07)"/><path class="cls-7" d="M1394.5,3679.94l-.42-.05.05-.36h0a.78.78,0,0,1-.77.33c-.55-.07-.78-.43-.7-1.09l.18-1.39.41.05-.17,1.33q-.09.7.45.78a.58.58,0,0,0,.46-.14.73.73,0,0,0,.23-.48l.17-1.34.42,0Z"/><path class="cls-7" d="M1397.3,3680.56l-.4-.1.31-1.29c.11-.47,0-.75-.35-.83a.57.57,0,0,0-.49.1.78.78,0,0,0-.29.46l-.31,1.3-.4-.1.54-2.28.41.1-.09.38h0a.85.85,0,0,1,.85-.26.71.71,0,0,1,.51.38,1.13,1.13,0,0,1,0,.74Z"/><path class="cls-7" d="M1399.19,3681.15a.86.86,0,0,1-.37-.05c-.4-.13-.53-.42-.38-.86l.42-1.29-.38-.12.11-.33.38.13.18-.54h.43l-.22.66.56.18-.11.33-.55-.19-.41,1.22a.59.59,0,0,0,0,.34.3.3,0,0,0,.21.18.46.46,0,0,0,.26,0Z"/><path class="cls-7" d="M1402,3681.14l-1.51-.63a.87.87,0,0,0,0,.61.71.71,0,0,0,.43.4,1.16,1.16,0,0,0,.76.05l-.14.34a1.44,1.44,0,0,1-.84-.12,1,1,0,0,1-.61-.6,1.36,1.36,0,0,1,.08-.94,1.3,1.3,0,0,1,.64-.7,1,1,0,0,1,.85,0,.88.88,0,0,1,.55.55,1.22,1.22,0,0,1-.09.86Zm-.25-.46a.75.75,0,0,0,0-.52.53.53,0,0,0-.32-.32.61.61,0,0,0-.46,0,.86.86,0,0,0-.4.36Z"/><path class="cls-7" d="M1404.35,3682.41l-1.44-.79a.82.82,0,0,0-.1.61.71.71,0,0,0,.38.44,1.11,1.11,0,0,0,.76.12l-.18.33a1.43,1.43,0,0,1-.83-.2,1,1,0,0,1-.54-.66,1.28,1.28,0,0,1,.18-.92,1.24,1.24,0,0,1,.69-.63,1,1,0,0,1,.85.06.88.88,0,0,1,.49.6,1.18,1.18,0,0,1-.16.85Zm-.21-.49a.77.77,0,0,0,.1-.51.51.51,0,0,0-.28-.35.59.59,0,0,0-.47,0,.85.85,0,0,0-.43.31Z"/><path class="cls-7" d="M1406.55,3682.8a.48.48,0,0,0-.19-.22.47.47,0,0,0-.46,0,1.06,1.06,0,0,0-.46.42l-.65,1-.35-.23,1.29-2,.34.23-.26.4h0a.65.65,0,0,1,.8-.1.47.47,0,0,1,.16.15Z"/><path class="cls-7" d="M1406.19,3684.29a1.08,1.08,0,0,0,.4.59c.26.2.45.21.58,0a.32.32,0,0,0,0-.25,1.41,1.41,0,0,0-.22-.42,1.3,1.3,0,0,1-.21-.56.61.61,0,0,1,.14-.37.57.57,0,0,1,.51-.23,1.12,1.12,0,0,1,.63.25,1.63,1.63,0,0,1,.38.41l-.25.32a1,1,0,0,0-.37-.49.52.52,0,0,0-.31-.13.27.27,0,0,0-.24.1.29.29,0,0,0-.06.23,1.75,1.75,0,0,0,.2.41,1.26,1.26,0,0,1,.23.56.57.57,0,0,1-.12.39.59.59,0,0,1-.52.24,1.2,1.2,0,0,1-.66-.27,1.38,1.38,0,0,1-.42-.49Z"/><polygon class="cls-7" points="1412.08 3686.32 1411.19 3685.41 1410.41 3686.18 1411.23 3687.02 1410.97 3687.28 1410.14 3686.45 1409.12 3687.45 1408.82 3687.15 1411.16 3684.85 1412.35 3686.05 1412.08 3686.32"/><path class="cls-7" d="M1412.52,3689.7l-1-1.27a.81.81,0,0,0-.31.52.7.7,0,0,0,.18.56,1.26,1.26,0,0,0,.65.4l-.28.23a1.33,1.33,0,0,1-.69-.5,1,1,0,0,1-.25-.82,1.48,1.48,0,0,1,1.39-1.1,1,1,0,0,1,.77.38.92.92,0,0,1,.22.74,1.2,1.2,0,0,1-.48.73Zm0-.53a.75.75,0,0,0,.29-.43.48.48,0,0,0-.13-.43.58.58,0,0,0-.41-.22.84.84,0,0,0-.52.13Z"/><path class="cls-7" d="M1413.23,3692.64l-.23-.35.33-.21h0a.86.86,0,0,1-.81-.42.89.89,0,0,1-.12-.77,1.32,1.32,0,0,1,.57-.69,1.37,1.37,0,0,1,.94-.26,1,1,0,0,1,.72.45.76.76,0,0,1,.07.79h0l1.21-.8.23.35Zm.94-1.11a.72.72,0,0,0,.29-.42.56.56,0,0,0-.1-.48.59.59,0,0,0-.49-.3,1,1,0,0,0-.67.21,1,1,0,0,0-.41.49.64.64,0,0,0,.54.82.78.78,0,0,0,.56-.14Z"/><path class="cls-7" d="M1415.5,3694.61l-.76-1.45a.84.84,0,0,0-.41.45.69.69,0,0,0,.07.57,1.13,1.13,0,0,0,.55.53l-.33.17a1.42,1.42,0,0,1-.57-.63,1,1,0,0,1-.08-.85,1.5,1.5,0,0,1,1.6-.8,1,1,0,0,1,.67.53.88.88,0,0,1,.06.77,1.17,1.17,0,0,1-.61.61Zm.11-.52a.78.78,0,0,0,.36-.36.51.51,0,0,0,0-.45.59.59,0,0,0-.37-.3.88.88,0,0,0-.53,0Z"/><path class="cls-7" d="M1417.11,3696.18a.47.47,0,0,0,0-.3.52.52,0,0,0-.36-.28,1.14,1.14,0,0,0-.61.09l-1.1.46-.16-.38,2.16-.91.16.38-.44.19h0a.64.64,0,0,1,.71.37.57.57,0,0,1,.06.21Z"/><path class="cls-7" d="M1417.62,3696.83a1.51,1.51,0,0,1,.46.7.77.77,0,0,1-.59,1.08l-1.43.47-.13-.39.35-.11h0a.81.81,0,0,1-.62-.56.74.74,0,0,1,0-.57.63.63,0,0,1,.41-.35.76.76,0,0,1,1,.5l.31.63c.36-.11.49-.32.4-.63a1.23,1.23,0,0,0-.51-.64Zm-.81,1a.78.78,0,0,0-.26-.33.39.39,0,0,0-.32,0,.34.34,0,0,0-.22.2.47.47,0,0,0,0,.33.56.56,0,0,0,.31.36.67.67,0,0,0,.52,0l.21-.07Z"/><path class="cls-7" d="M1416.56,3701a.83.83,0,0,1-.16-.34c-.09-.41.08-.66.54-.77l1.31-.32-.09-.39.33-.08.09.39.55-.13.23.37-.68.16.14.57-.34.08-.13-.57-1.25.3a.52.52,0,0,0-.3.16.29.29,0,0,0,0,.27.37.37,0,0,0,.14.22Z"/><path class="cls-7" d="M1416.66,3701.68l2.31-.42.07.41-2.3.41Zm3.12-.61a.26.26,0,0,1,.3.21.27.27,0,0,1,0,.2.25.25,0,0,1-.17.11.28.28,0,0,1-.2,0,.29.29,0,0,1-.1-.18.25.25,0,0,1,0-.19.23.23,0,0,1,.17-.11"/><path class="cls-7" d="M1418,3702.72a1.25,1.25,0,0,1,.94.23,1.15,1.15,0,0,1,.42.85,1.06,1.06,0,0,1-.24.85,1.26,1.26,0,0,1-.86.39,1.29,1.29,0,0,1-.92-.23,1.12,1.12,0,0,1-.42-.83,1.07,1.07,0,0,1,.24-.86,1.2,1.2,0,0,1,.84-.4m0,.42a.94.94,0,0,0-.61.27.71.71,0,0,0-.18.57.66.66,0,0,0,.28.51,1,1,0,0,0,.67.13,1.08,1.08,0,0,0,.63-.25.68.68,0,0,0,.18-.57.67.67,0,0,0-.29-.52,1,1,0,0,0-.68-.14"/><path class="cls-7" d="M1417.11,3707.85v-.42l1.33,0c.49,0,.73-.17.73-.52a.55.55,0,0,0-.19-.45.75.75,0,0,0-.51-.19l-1.34,0v-.41l2.34,0v.42h-.39a.85.85,0,0,1,.44.78.73.73,0,0,1-.26.58,1.16,1.16,0,0,1-.72.19Z"/></g><path class="cls-2" d="M1397.7,3693.69l-8.54,9.39a1.12,1.12,0,0,0-.17.21c-1.22,1.44-3.44,3.94-6.34,2.7-2.21-.95-3.68-3.59-6.09-4.21a4.22,4.22,0,0,0-5.09,3.88c2.74.06,4.53,1.6,4.94,5.32.43,4.05,1.11,6.7,3.17,8.56a9.92,9.92,0,0,0,13.19,1,8.14,8.14,0,0,0,.93-.73c2.19-2,4.33-4.19,5.75-5.67a1.51,1.51,0,0,0,.23-.21l.87-1,.61-.65h0l7.08-7.77a1.59,1.59,0,0,0-2.35-2.14l-7.41,8.15a.41.41,0,0,1-.48,0,.39.39,0,0,1,0-.54l.58-.64h0l8.55-9.39a1.59,1.59,0,0,0-2.35-2.13l-8.49,9.33h0l-.48.53a.47.47,0,1,1-.69-.64l.22-.24.13-.13,8.55-9.39a1.59,1.59,0,0,0-2.35-2.14l-8.54,9.39a.67.67,0,0,0-.11.14l0,0a.38.38,0,0,1-.53,0,.38.38,0,0,1-.06-.49l7.68-8.44a1.58,1.58,0,0,0-1.18-2.65,1.55,1.55,0,0,0-1.17.52"/><g class="cls-22"><rect class="cls-23" x="1366.81" y="3684.13" width="46.67" height="47.51" transform="translate(-2327.56 2344.19) rotate(-49.3)"/></g><g class="cls-19"><polygon class="cls-7" points="1403.34 3710.4 1401.46 3706.85 1395.35 3710.09 1395.35 3703.15 1391.26 3703.15 1391.26 3709.98 1385.33 3706.63 1383.36 3710.13 1389.12 3713.39 1383.28 3716.49 1385.16 3720.04 1391.26 3716.8 1391.26 3723.74 1395.35 3723.74 1395.35 3716.91 1401.28 3720.25 1403.25 3716.75 1397.49 3713.5 1403.34 3710.4"/></g><use transform="translate(300.69 3004.98) scale(0.94)" xlink:href="#image-2"/><text class="cls-24" transform="translate(391.69 3742.08)">白马山打银坑溪谷救援</text><text class="cls-24" transform="translate(390.38 2914.57)">白马山打银坑溪谷救援</text><image width="1146" height="1788" transform="translate(324.5 184.33)" xlink:href="../../%E7%94%9F%E5%91%BD%E5%8B%8B%E7%AB%A0-%E4%B8%80%E5%BC%A0%E5%9B%BE%E4%B8%8E%E7%BA%AF%E5%8B%8B%E7%AB%A0/%E7%94%9F%E5%91%BD%E5%8B%8B%E7%AB%A0-%E4%B8%80%E5%BC%A0%E5%9B%BE/%E6%BA%90%E6%96%87%E4%BB%B6/%E4%B8%BB%E9%A2%98%20%E6%8B%B7%E8%B4%9D.png"/><path class="cls-6" d="M462,1812.22c10.81,7.08,28.68,10.94,41,2.91l13.93,15.71c-11.16,9.56-12.88,23.39-8,33.56,19.35,37.12,14.44,61.7-26.06,78.25-8.2,3.66-17.72,9.29-20.84,12.65-3.12-3.36-12.6-9-20.8-12.65-40.5-16.55-45.41-41.13-26.06-78.25,4.8-10.17,3.08-24-8-33.56L421,1815.13c12.29,8,30.16,4.17,41-2.91Z"/><path class="cls-7" d="M461,1948.1c-5-4.43-9.93-6.31-22.29-12.45h0c-10.34-5.13-17.52-10.61-22.15-16.64h0a31.16,31.16,0,0,1-6.63-19.55h0c0-9.76,3.82-20.24,9.38-31.83h0a38.54,38.54,0,0,0,3.59-15.8h0a28.81,28.81,0,0,0-7.74-20h0l-.91-1,7.7-9,1,.31a57.1,57.1,0,0,0,17.48,3.17h0c8.9,0,14.57-3.06,21-6h0l.63-.29.63.29c6.41,2.91,12.09,6,21,6h0a57.32,57.32,0,0,0,17.52-3.17h0l1-.31,7.66,9-.9,1a28.88,28.88,0,0,0-7.75,20h0a38.61,38.61,0,0,0,3.59,15.78h0c5.57,11.61,9.38,22.1,9.39,31.86h0a31,31,0,0,1-6.63,19.54h0c-4.62,6-11.81,11.51-22.15,16.63h0c-12.37,6.15-17.3,8-22.3,12.47h0l-1,.9-1-.91ZM422,1868.92c-5.5,11.44-9.09,21.59-9.08,30.54h0a28,28,0,0,0,6,17.69h0c4.24,5.52,11,10.77,21.09,15.76h0c11.46,5.71,16.79,7.78,22,12h0c5.18-4.27,10.48-6.33,21.95-12h0c10.08-5,16.86-10.24,21.09-15.76h0a28,28,0,0,0,6-17.68h0c0-9-3.58-19.1-9.09-30.55h0v0a41.68,41.68,0,0,1-3.87-17.07h0a31.89,31.89,0,0,1,7.65-21h0l-4.61-5.44a59.06,59.06,0,0,1-17.48,3h0c-9.33,0-15.57-3.19-21.62-6h0c-6.05,2.77-12.3,6-21.62,6h0a58.77,58.77,0,0,1-17.44-3h0l-4.65,5.45a31.9,31.9,0,0,1,7.65,21h0A41.69,41.69,0,0,1,422,1868.9h0l0,0Z"/><path class="cls-8" d="M462,1820.75c9.67,4.4,18.61,9.63,39.6,2.87l6.13,7.22c-11,12-9.17,27-4.41,37.42,13.42,28,16.07,48.82-18.69,66-12.29,6.12-17.37,8-22.63,12.69-5.23-4.66-10.34-6.57-22.63-12.69-34.73-17.2-32.12-38.07-18.69-66,4.75-10.43,6.55-25.38-4.42-37.42l6.17-7.22c20.95,6.76,29.89,1.53,39.57-2.87Z"/><path class="cls-9" d="M484,1861.68l-3.14.64a36.05,36.05,0,0,1,9.08,7.38l3.1.24c-.93-1.16-1.91-2.23-2.91-3.26a40.93,40.93,0,0,0-6.13-5Zm-2.91,66.8.52-3.5a36.09,36.09,0,0,1-9.27,4l-1.75,3.33a39.56,39.56,0,0,0,10.5-3.88Zm12.59-10.8-.79-3.45a37.12,37.12,0,0,1-8.48,8.89l-.34,3,.71.07a38.73,38.73,0,0,0,5.35-4.48,44.34,44.34,0,0,0,3.55-4Zm6.68-13.77-1.9-2.86a36.43,36.43,0,0,1-3.7,10.16l.94,3.53a38.91,38.91,0,0,0,4.66-10.83Zm.75-15.68-2.62-1.23a34,34,0,0,1,.68,6.91,33.18,33.18,0,0,1-.15,3.33l2,2.78.11-.08a37.07,37.07,0,0,0,.45-5.71h0a39.6,39.6,0,0,0-.49-6Zm-5.75-15.12-3-.32a35.2,35.2,0,0,1,5.3,10.76l2.58,1.07.08-.16A39.3,39.3,0,0,0,495.38,1873.11Z"/><path class="cls-10" d="M502.7,1911.17v-8.69l3.18-2.42a43.28,43.28,0,0,1-3.18,11.11Zm0-12.22v-12.3l2.09-4.21a43,43,0,0,1,1.53,11.47c0,.95,0,1.86-.07,2.78L502.7,1899Zm0-18.46v-3.93c.34.76.67,1.55,1,2.35Zm-8.59-16.78a44.4,44.4,0,0,0-11.54-8.62l1.41,5.6.08.32a36.22,36.22,0,0,1,6.46,5.24,38.9,38.9,0,0,1,3,3.29v-.24l.6-5.59Zm8.59,12.85v3.93l-1.87,3.18-.07.12a38.91,38.91,0,0,0-4.64-10.56h.23l.19-6.74a42.19,42.19,0,0,1,6.16,10.07Zm0,10.09V1899l-.9.56a26,26,0,0,0,.34-3.54c0-.67,0-1.39,0-2.06a37.53,37.53,0,0,0-.23-4.29,38.12,38.12,0,0,1,.23,5c0,.44,0,.84,0,1.27,0-.55,0-1.11,0-1.66h0a40.94,40.94,0,0,0-.34-5.24v0a.32.32,0,0,1,0-.16v0c0-.08,0-.16,0-.24h0v0l.9-1.82Zm0,15.83v8.69c-.34.76-.67,1.51-1,2.27l-5.16,1.14a39.54,39.54,0,0,0,4.52-10.79l1.68-1.31Zm-31.57,30.36,4,2.78a43.57,43.57,0,0,0,13.22-6.59h-7.06a38.44,38.44,0,0,1-10.2,3.81Zm20.14-6.11a44.59,44.59,0,0,0,8.7-10.28l-6.05,1.87a35.36,35.36,0,0,1-3.4,3.84,37.9,37.9,0,0,1-4.78,4.13Z"/><path class="cls-9" d="M440.7,1861.68a40.85,40.85,0,0,0-6.12,5c-1,1-2,2.1-2.92,3.26l3.11-.24a36,36,0,0,1,9.07-7.38l-3.14-.64Zm2.92,66.8a39.63,39.63,0,0,0,10.49,3.88l-1.75-3.33a36.09,36.09,0,0,1-9.27-4l.53,3.5Zm-12.6-10.8a46,46,0,0,0,3.56,4,38.65,38.65,0,0,0,5.34,4.48l.71-.07-.34-3a37.32,37.32,0,0,1-8.48-8.89l-.79,3.45Zm-6.68-13.77a38.94,38.94,0,0,0,4.67,10.83l.93-3.53a36.41,36.41,0,0,1-3.69-10.16l-1.91,2.86Zm-.75-15.68a39.6,39.6,0,0,0-.48,6h0a35.87,35.87,0,0,0,.45,5.71l.11.08,2-2.78a30.46,30.46,0,0,1-.15-3.33,34.76,34.76,0,0,1,.67-6.91l-2.62,1.23Zm.79-3.77.07.16,2.58-1.07a35.22,35.22,0,0,1,5.31-10.76l-3,.32A38.77,38.77,0,0,0,424.38,1884.46Z"/><path class="cls-10" d="M422,1911.17a43.27,43.27,0,0,1-3.17-11.11l3.17,2.42v8.69Zm0-12.22-3.55-2.26c0-.92-.07-1.83-.07-2.78a43,43,0,0,1,1.53-11.47l2.09,4.21V1899Zm-1-20c.3-.8.64-1.59,1-2.35v3.93Zm9.57-15.2.6,5.59v.24a40.55,40.55,0,0,1,3-3.29,35.94,35.94,0,0,1,6.47-5.24l.07-.32,1.42-5.6a44.07,44.07,0,0,0-11.54,8.62Zm-8.6,12.85a42.23,42.23,0,0,1,6.17-10.07l.19,6.74h.22a38.89,38.89,0,0,0-4.63,10.56l-.08-.12-1.87-3.18v-3.93Zm0,10.09.9,1.82v0h0c0,.08,0,.16,0,.24v0a.32.32,0,0,1,0,.16v0a41,41,0,0,0-.33,5.24h0c0,.55,0,1.11,0,1.66,0-.43,0-.83,0-1.27a36.45,36.45,0,0,1,.22-5,40,40,0,0,0-.22,4.29c0,.67,0,1.39,0,2.06a27.73,27.73,0,0,0,.34,3.54l-.9-.56v-12.3Zm0,15.83,1.68,1.31a39.56,39.56,0,0,0,4.53,10.79l-5.16-1.14c-.37-.76-.71-1.51-1.05-2.27v-8.69Zm31.57,30.36a38.57,38.57,0,0,1-10.2-3.81h-7.06a43.51,43.51,0,0,0,13.23,6.59l4-2.78Zm-14.6-6.55a38,38,0,0,1-4.79-4.13,36.45,36.45,0,0,1-3.4-3.84l-6.05-1.87a44.84,44.84,0,0,0,8.7,10.28Z"/><path class="cls-7" d="M443.8,1837.06a2.17,2.17,0,0,0-2.49-2.32c-1.61.11-2.43.77-2.49,2s.83,1.88,2.82,2.16a1.92,1.92,0,0,1,.42.08c3.59.72,5.37,2.13,5.31,4.23q-.08,4.82-6.56,5c-4,0-5.95-1.68-5.89-5.06h3.32a2.48,2.48,0,0,0,2.57,2.82c2,0,3-.72,3.08-2,0-1-1-1.77-2.91-2.16a2.57,2.57,0,0,1-.58-.16q-5.07-1.17-5.07-4.24.26-4.73,6.39-5.06c3.33.16,5.07,1.74,5.24,4.73Z"/><path class="cls-7" d="M452.85,1848h-3.32v-15.36h6.56c3.49.06,5.25,1.38,5.31,4a3.68,3.68,0,0,1-3.15,3.74v.08c1.71.06,2.63,1.19,2.74,3.41a2.6,2.6,0,0,1,.08.5,9.1,9.1,0,0,0,.83,3.65h-3.57a20.06,20.06,0,0,1-.58-4.15c-.11-1.33-.58-2-1.42-2h-3.48Zm0-8.72h2.74c1.55,0,2.32-.72,2.32-2.16s-.77-2-2.32-1.91h-2.74Z"/><path class="cls-7" d="M462.65,1832.66h3.57l4,12.12h.08l4-12.12h3.24L471.86,1848h-3.57Z"/><path class="cls-7" d="M479.17,1848v-15.36h9.88v2.57H482.4v3.66h6.23v2.57H482.4V1848Z"/><g class="cls-25"><path class="cls-12" d="M496.41,1893.61a34.13,34.13,0,1,1-34.13-34.22,34.18,34.18,0,0,1,34.13,34.22"/><path class="cls-7" d="M462.28,1859.93A33.68,33.68,0,1,0,496,1893.61a33.71,33.71,0,0,0-33.67-33.68M495,1893.61a32.71,32.71,0,1,1-32.71-32.72A32.75,32.75,0,0,1,495,1893.61"/><path class="cls-7" d="M485.74,1893.61a23.46,23.46,0,1,1-23.46-23.46,23.46,23.46,0,0,1,23.46,23.46"/></g><g class="cls-26"><rect class="cls-27" x="441.7" y="1873.02" width="41.16" height="41.18"/></g><g class="cls-25"><polygon class="cls-7" points="434.96 1899.36 435.47 1900.39 436.61 1900.56 435.78 1901.36 435.98 1902.49 434.96 1901.96 433.94 1902.49 434.14 1901.36 433.32 1900.56 434.45 1900.39 434.96 1899.36"/><polygon class="cls-7" points="489.6 1899.36 490.11 1900.39 491.25 1900.56 490.43 1901.36 490.62 1902.49 489.6 1901.96 488.59 1902.49 488.78 1901.36 487.96 1900.56 489.1 1900.39 489.6 1899.36"/><path class="cls-7" d="M436.7,1906.18c0,.13,0,.25,0,.37l-1.64.36-.05-.38a14.29,14.29,0,0,0,1.65-.35m.74,3.68-.37-.07a3.72,3.72,0,0,1,.48-1.58l-1.34.75-.16-.29,1.35-.75a4.61,4.61,0,0,1-1.7-.47c.05-.15.09-.26.11-.35a4.29,4.29,0,0,0,1.74.63l-.58-1,.27-.15.62,1.1.46-.25.15.28-.45.26.63,1.13-.27.15-.59-1.07a3.71,3.71,0,0,0-.35,1.7m.12-4.6q0,.54-.09,1l-.35-.06c.05-.3.09-.63.13-1Zm1.21,1.62-.09.31a11.93,11.93,0,0,1-1.16-.49,2.22,2.22,0,0,0,.14-.31,6.28,6.28,0,0,0,1.11.49m-.21-2c0,.37-.08.71-.13,1l-.35-.07c.08-.4.14-.73.17-1Zm.27.9,1.31,2.35-.61.34-.16-.29.33-.18-1-1.77-.34.19-.16-.29Zm0,1.71.29.06c0,.43-.09.84-.16,1.23l-.33-.06c.09-.41.15-.82.2-1.23"/><path class="cls-7" d="M438.51,1910.37l.49.36,1.05-.86-.33-.41.23-.19.34.41.78-.64.19.25-.77.63.32.4-.23.19-.33-.39-1,.8.48.33-.24.21c-.44-.29-.85-.57-1.24-.81Zm3.22-.46.21.25-1.16.95a5.8,5.8,0,0,1-1.28.86,2.48,2.48,0,0,1-1.22.12,2.7,2.7,0,0,0,.06-.36,1.85,1.85,0,0,0,1.09-.1,5.15,5.15,0,0,0,1.14-.77Zm.47.82.2.25-2.7,2.22-.2-.25Zm.72.64.21.25-3.08,2.52-.21-.25Z"/><path class="cls-7" d="M441.87,1915.4l-.25-.21,1.41-1.64,1.13,1,.38-.44-1.4-1.2.2-.25,1.48,1.27a4.72,4.72,0,0,0,.12-.59l.34.09c0,.21-.06.42-.1.63l-.3-.08,1.54,1.32-.21.24-1.42-1.21-.37.43,1.15,1-1,1.19a.45.45,0,0,1-.72.08l-.45-.4.18-.29.4.38a.25.25,0,0,0,.39,0l.77-.89-.9-.78-1.49,1.74-.26-.22,1.49-1.74-.88-.76Z"/><path class="cls-7" d="M448.33,1918.63c.08.66.14,1.23.16,1.74l-.38,0c0-.15,0-.31,0-.47q-1.23-.64-2-1a2.37,2.37,0,0,0-.36-.13l0-.4a1.14,1.14,0,0,0,.41,0,8.63,8.63,0,0,0,1.76-.9l.23.32a15.44,15.44,0,0,1-1.79.87c.5.28,1.07.59,1.72.93,0-.29,0-.6-.07-.93Zm-2.08-1.82a4.91,4.91,0,0,0,2.11-.84l.21.28a5.59,5.59,0,0,1-2.22.92,1.61,1.61,0,0,0-.1-.36m2.91-.3.33,0a3.33,3.33,0,0,0,.43,2.26,2.52,2.52,0,0,0-.39.15,3.94,3.94,0,0,1-.37-2.46"/><path class="cls-7" d="M450,1920.83l.57.21.48-1.32,2.75,1-.48,1.32.54.2-.1.27-3.86-1.43Zm2.22-1.74.1.33c-.5.1-1.05.18-1.65.25a1.61,1.61,0,0,0-.06-.33,14.34,14.34,0,0,0,1.61-.25m-1.37,2.05.54.2.39-1-.55-.2Zm.22-2.92,2.14.79a6.91,6.91,0,0,0,.95-.52l.22.29a7.69,7.69,0,0,1-.76.38l1.16.43-.1.27-3.71-1.37Zm.6,3.23.54.2.39-1.05-.55-.2Zm.22-3.57.28-.13c.16.25.31.48.43.7l-.31.15c-.11-.22-.24-.46-.4-.72m1.53,3-.54-.2-.39,1,.54.2Zm-.37-1.22.24-.18c.44.44.81.83,1.11,1.18l-.28.23c-.41-.49-.76-.9-1.07-1.23"/><path class="cls-7" d="M455.6,1919.76l.83.15.12-.69.31,0-.12.69.87.15-.06.3-.87-.15-.25,1.46.2-.15.58.79-.28.2a9.17,9.17,0,0,0-.52-.76l-.15.88c-.07.37-.26.52-.58.47l-.53-.1a2.41,2.41,0,0,0,0-.38c.19.06.35.09.48.12a.27.27,0,0,0,.34-.25l.13-.77-.82.54-.16-.3c.33-.18.62-.35.89-.52l.11.2.26-1.49-.84-.14Zm-.08.72.28-.11c.11.25.21.51.31.76l-.31.11c-.1-.28-.19-.54-.28-.76m1.65.15.24.21c-.21.22-.41.41-.6.59l-.22-.23a6.32,6.32,0,0,0,.58-.57m0,.78a8.47,8.47,0,0,0,1.1-1.89l.28.13c-.09.22-.19.43-.3.64l1.28.23-.05.29-.33,0a3.91,3.91,0,0,1-.89,1.79,2.79,2.79,0,0,0,.79.9l-.25.27a3.49,3.49,0,0,1-.8-.94,3.86,3.86,0,0,1-1.21.63l-.15-.31a3.7,3.7,0,0,0,1.22-.63,3.36,3.36,0,0,1-.22-1.19l-.24.33-.23-.2m-.19-1.89.21-.17c.14.14.27.28.4.43l-.24.19a4.88,4.88,0,0,0-.37-.45m1,1.31a3.44,3.44,0,0,0,.17,1.39,3.55,3.55,0,0,0,.74-1.52l-.76-.13-.15.26"/><path class="cls-7" d="M460.21,1922l.52-.2v-1h-.5v-.29h.49v-.77H461v.76h.49v.29H461l0,.83.4-.17s0,.12,0,.32l-.44.19,0,1.39c0,.28-.11.43-.35.45h-.37c0-.11,0-.22-.06-.34h.32c.11,0,.16-.06.16-.19l0-1.2-.47.21Zm1.37-.4h.59c0-.11.06-.22.08-.33h-.59V1921l1.7,0c.13-.22.25-.45.37-.7l.3.16-.35.53h.56v.27l-1.69,0-.06.33,1.83,0v.27l-1.9,0c0,.12-.07.23-.11.33l1.63,0v.26a2.74,2.74,0,0,1-.66.78,3.13,3.13,0,0,0,1.13.27l-.17.34a3.42,3.42,0,0,1-1.24-.4,4,4,0,0,1-1.13.49,2,2,0,0,0-.19-.28,4.18,4.18,0,0,0,1.05-.4,2.07,2.07,0,0,1-.56-.68,5.11,5.11,0,0,1-.69,1.12l-.25-.21a4,4,0,0,0,.87-1.59h-.51Zm.1-1.24-.06-.3c.87,0,1.71-.1,2.51-.19l.06.3c-.6.06-1.44.13-2.51.19m.13.15.25-.14c.1.15.2.3.29.45l-.27.16a3.77,3.77,0,0,0-.27-.47m1.76,1.92-1.13,0a1.76,1.76,0,0,0,.56.59,2.2,2.2,0,0,0,.57-.61m-.92-2,.26-.11a5.2,5.2,0,0,1,.24.52l-.29.11a4,4,0,0,0-.21-.52"/><path class="cls-7" d="M465.55,1921.36l1.5-.26-.14-.79-1.8.32-.05-.29,1.8-.32-.12-.66.34-.06.12.66,1.81-.33.06.29-1.82.33.14.79,1.5-.27.06.28-3.35.6Zm.16.67.33,0q-.06.66-.15,1.14l-.34,0a6.69,6.69,0,0,0,.16-1.13m.61,0,.32-.06.16.93c0,.17.13.24.3.21l.86-.16c.2,0,.31-.13.31-.28a2.87,2.87,0,0,0,0-.51l.35.06a4,4,0,0,1,0,.52.5.5,0,0,1-.49.49l-1,.19a.46.46,0,0,1-.6-.44Zm.61-.31.22-.21c.25.21.49.44.73.67l-.24.24c-.26-.27-.49-.5-.71-.7m1.61,0,.23-.22c.25.24.51.5.76.78l-.25.25c-.26-.31-.51-.58-.74-.81"/><path class="cls-7" d="M470.82,1919.15l.8-.3,0-.32-1.33.5.43,1.17a7.17,7.17,0,0,1,.4,1.36,2.84,2.84,0,0,1,0,1.08l-.32-.19a2.74,2.74,0,0,0,0-.9,6,6,0,0,0-.34-1.16l-.56-1.51,3.45-1.27.09.25-1.51.56,0,.32,1.28-.47.47,1.27-.28.1,0-.11-.69.26.11.29a.4.4,0,0,1-.26.59l-.4.14-.16-.25.39-.12a.2.2,0,0,0,.14-.29l-.1-.26-.85.31,0,.12-.27.1Zm.88,1.1.27.13a9.81,9.81,0,0,1-.67.79,2.4,2.4,0,0,0-.26-.18,4.13,4.13,0,0,0,.66-.74m1.31-1.65-1.83.67.09.24,1.83-.67Zm-1.57,1.38,1.83-.68-.09-.24-1.82.67Zm-.05,1.28h.31c0,.31,0,.61,0,.91a1.66,1.66,0,0,0-.32,0,4.32,4.32,0,0,0,0-.87m.48-.16.28-.1.18.46a.27.27,0,0,0,.39.18l.45-.17a.31.31,0,0,0,.25-.34,2.51,2.51,0,0,0-.07-.41h.35c0,.17,0,.32.05.44s-.12.43-.44.54l-.55.21a.47.47,0,0,1-.7-.3Zm.6-.23.18-.22c.18.1.35.2.51.31l-.19.25a4,4,0,0,0-.5-.34m.55-.79.05-.27h1.11l0,.31c-.39,0-.76,0-1.13,0m.68.43.19-.22c.2.13.43.31.69.51l-.22.26c-.21-.19-.43-.38-.66-.55"/><path class="cls-7" d="M474.5,1918.33l1.37-.81-.27-.45-1,.59-.15-.24,1-.6-.27-.46.29-.17.27.46.88-.52.15.25-.88.51.26.46.36-.21a5.19,5.19,0,0,0,.43-1.49l.36,0a6.31,6.31,0,0,1-.34,1.19l1-.61.15.25-1.37.81a8.29,8.29,0,0,1-.41.77l1.43-.84,1,1.73-.28.17-.13-.22-1.67,1,.13.21-.28.16-.79-1.33c-.15.2-.3.41-.47.62a2.7,2.7,0,0,0-.31-.17,10.79,10.79,0,0,0,1.26-1.8l-1.64,1Zm1.5.34.23.37,1.67-1-.25-.41-1.6.94a.35.35,0,0,1-.05.08m.61,1,1.66-1-.24-.42-1.67,1Z"/><path class="cls-7" d="M479.8,1917.23l.21-.25-1.66-1.93-.21.18L478,1915l1.36-1.18.2.22-.24.21,1.51,1.76.25-.3a1.88,1.88,0,0,0,.21.2l-.26.33.57.67-.22.2-.54-.62-.72.93Zm-.82-1.91.46-.4-.39-.46-.46.4Zm.58.68.47-.4-.4-.46-.47.39Zm-.24-2.33.08-.29a5.43,5.43,0,0,1,.76.16l-.08.32a7.64,7.64,0,0,0-.76-.19m1,1.52.73-.63-.49-.58-.65.56-.2-.23.85-.74c0-.23-.1-.56-.2-1l.35-.09c.05.31.08.6.11.86l.53-.45.2.23-.74.64c.2.23.36.42.48.58l.86-.74.2.24-.82.71a2.54,2.54,0,0,0,1.84.38,1.41,1.41,0,0,0,0,.41,3,3,0,0,1-1.71-.39,2.48,2.48,0,0,1,.17,1.76l-.35,0a2.12,2.12,0,0,0-.25-1.85l-.71.61Zm.32,1.07-.39-.44-.46.39.45.53.4-.48"/><path class="cls-7" d="M482.79,1909.92l0,.15a4.31,4.31,0,0,0,2.23-.57q.06.23.12.39a6.46,6.46,0,0,1-.69.26l.18.15-1.55,1.9-.16-.14a7.33,7.33,0,0,1-.11.76l-.37,0a5.16,5.16,0,0,0,0-2.5Zm.08.48a5.23,5.23,0,0,1,.09,1.51l1.42-1.73a5.21,5.21,0,0,1-1.51.22m.51,2.31,1.84-2.26,1.44,1.18-.21.26-.22-.18-1.42,1.74.23.18-.22.26Zm1.87-1.81-1.42,1.74.75.62,1.42-1.74Z"/><path class="cls-7" d="M485.47,1906.5a6.88,6.88,0,0,1,.47,2.41l-.37,0a5.42,5.42,0,0,0-.48-2.48l.22-.39.05.12a4.21,4.21,0,0,0,2.17-1l.2.37a4.77,4.77,0,0,1-2.26.9m.41,1.56,1.13-2,.26.15-1.12,2Zm2.1-.88c.51-.18,1-.32,1.39-.43l.08.36-.45.1-.91,1.93a1.36,1.36,0,0,0-.09.36h-.39a1.32,1.32,0,0,0,0-.4,6.74,6.74,0,0,0-.38-1l-.68,1.22-.27-.15,1.86-3.35.28.15-1,1.76a11,11,0,0,1,.43,1.2c.27-.56.54-1.08.78-1.59l-.58.17Z"/><path class="cls-7" d="M434.65,1895.51a1.21,1.21,0,0,0,.2-.41,1.69,1.69,0,0,0,.07-.48c0-.46-.19-.68-.52-.67a.41.41,0,0,0-.24.08.55.55,0,0,0-.19.21c-.05.09-.14.25-.25.49a1.78,1.78,0,0,1-.43.67.82.82,0,0,1-.48.17.75.75,0,0,1-.66-.31,1.4,1.4,0,0,1-.26-.82,1.72,1.72,0,0,1,.09-.72l.47,0a1.25,1.25,0,0,0-.19.76,1,1,0,0,0,.14.49.4.4,0,0,0,.36.17.42.42,0,0,0,.32-.14,2.41,2.41,0,0,0,.32-.58,2.1,2.1,0,0,1,.45-.69.8.8,0,0,1,.51-.21.77.77,0,0,1,.67.29,1.47,1.47,0,0,1,.26.87,2.57,2.57,0,0,1,0,.45,1.12,1.12,0,0,1-.12.39Z"/><path class="cls-7" d="M435.35,1890.75l0,.42-1.35-.1c-.47,0-.72.13-.74.48a.58.58,0,0,0,.18.46.78.78,0,0,0,.51.22l1.32.08,0,.42-3.46-.23,0-.42,1.51.1h0a.81.81,0,0,1-.39-.79c0-.53.37-.77,1-.72Z"/><path class="cls-7" d="M434.72,1887.86l-.28,1.62a.9.9,0,0,0,.61-.11.75.75,0,0,0,.3-.5,1.15,1.15,0,0,0-.14-.76l.37.06a1.38,1.38,0,0,1,.08.85,1,1,0,0,1-.45.73,1.33,1.33,0,0,1-.93.13,1.25,1.25,0,0,1-.82-.46,1,1,0,0,1-.22-.82.92.92,0,0,1,.41-.66,1.2,1.2,0,0,1,.86-.12Zm-.4.35a.75.75,0,0,0-.51.07.51.51,0,0,0-.24.38.59.59,0,0,0,.11.46.89.89,0,0,0,.44.3Z"/><path class="cls-7" d="M436.45,1885.44l-.11.4-1.28-.35c-.47-.13-.75,0-.84.32a.54.54,0,0,0,.07.48.81.81,0,0,0,.46.31l1.28.36-.11.4-2.26-.63.11-.4.38.11h0a.84.84,0,0,1-.22-.86.68.68,0,0,1,.39-.5,1.11,1.11,0,0,1,.75,0Z"/><polygon class="cls-7" points="437.31 1883.11 436.62 1884.93 436.49 1884.88 435.23 1882.94 434.79 1884.1 434.47 1883.97 435.12 1882.27 435.25 1882.32 436.51 1884.24 436.99 1882.98 437.31 1883.11"/><path class="cls-7" d="M438.44,1880.75l-.18.37-1.21-.59q-.65-.32-.87.15a.58.58,0,0,0,0,.5.82.82,0,0,0,.39.39l1.19.58-.19.38-3.11-1.54.19-.37,1.35.67h0a.85.85,0,0,1-.05-.88c.23-.47.63-.57,1.21-.29Z"/><path class="cls-7" d="M439,1877.83l-.88,1.39a.84.84,0,0,0,.61.13.7.7,0,0,0,.46-.35,1.12,1.12,0,0,0,.17-.74l.31.19a1.32,1.32,0,0,1-.25.81,1,1,0,0,1-.69.51,1.51,1.51,0,0,1-1.5-1,1,1,0,0,1,.12-.85.89.89,0,0,1,.63-.45,1.22,1.22,0,0,1,.84.22Zm-.51.18a.76.76,0,0,0-.49-.14.52.52,0,0,0-.37.27.57.57,0,0,0-.07.46.84.84,0,0,0,.28.45Z"/><path class="cls-7" d="M441.48,1876.26l-.25.33-1.05-.82c-.38-.29-.68-.3-.9,0a.55.55,0,0,0-.11.48.7.7,0,0,0,.3.45l1,.82-.25.33-1.86-1.43.26-.33.31.23h0a.87.87,0,0,1,.12-.88.72.72,0,0,1,.56-.32,1.12,1.12,0,0,1,.69.29Z"/><path class="cls-7" d="M444.84,1872.87l-.36.34-1-.3a1.27,1.27,0,0,0-.47-.06.48.48,0,0,0-.3.15l-.22.2.94,1-.31.29-2.24-2.4.73-.68a1.1,1.1,0,0,1,.71-.34.82.82,0,0,1,.64.28.88.88,0,0,1,.07,1.15h0a.52.52,0,0,1,.28,0,1.63,1.63,0,0,1,.43.09Zm-3.43-.79.79.85.37-.34a.7.7,0,0,0,.23-.44.57.57,0,0,0-.18-.45.45.45,0,0,0-.39-.18.7.7,0,0,0-.45.22Z"/><path class="cls-7" d="M446,1870.62l-1.3,1a.82.82,0,0,0,.51.33.71.71,0,0,0,.56-.16,1.2,1.2,0,0,0,.42-.64l.23.29a1.4,1.4,0,0,1-.52.67,1,1,0,0,1-.83.23,1.26,1.26,0,0,1-.77-.54,1.27,1.27,0,0,1-.29-.89,1,1,0,0,1,.41-.75.9.9,0,0,1,.75-.21,1.22,1.22,0,0,1,.7.51Zm-.53,0a.72.72,0,0,0-.42-.3.51.51,0,0,0-.43.12.54.54,0,0,0-.23.4.75.75,0,0,0,.11.52Z"/><path class="cls-7" d="M446.88,1870.72a1.08,1.08,0,0,0,.69-.17c.28-.17.36-.35.24-.52a.28.28,0,0,0-.21-.14,1.7,1.7,0,0,0-.47.06,1.34,1.34,0,0,1-.6,0,.64.64,0,0,1-.34-.82,1,1,0,0,1,.45-.5,1.36,1.36,0,0,1,.52-.21l.22.34a1,1,0,0,0-.59.17.5.5,0,0,0-.23.25.3.3,0,0,0,0,.26.27.27,0,0,0,.2.13,1.29,1.29,0,0,0,.44,0,1.31,1.31,0,0,1,.61,0,.53.53,0,0,1,.33.26.58.58,0,0,1,.05.57,1.23,1.23,0,0,1-.48.52,1.42,1.42,0,0,1-.61.22Z"/><path class="cls-7" d="M450.51,1869.1a1.15,1.15,0,0,1-.5.44,1,1,0,0,1-.87.09,1.17,1.17,0,0,1-.67-.61,1.26,1.26,0,0,1-.13-1,1.12,1.12,0,0,1,.62-.73,1.23,1.23,0,0,1,.55-.15l.19.36a1,1,0,0,0-.58.09.78.78,0,0,0-.4.49,1,1,0,0,0,.11.69.89.89,0,0,0,.48.46.74.74,0,0,0,.61-.06.88.88,0,0,0,.41-.44Z"/><path class="cls-7" d="M453,1868.17l-.39.15-.14-.34h0a.76.76,0,0,1-.51.67c-.51.21-.89,0-1.14-.61l-.53-1.3.38-.15.5,1.24q.27.66.78.45a.5.5,0,0,0,.33-.35.76.76,0,0,0,0-.53l-.51-1.25.38-.16Z"/><path class="cls-7" d="M455.33,1866.21l-1.57.46a.88.88,0,0,0,.36.5.72.72,0,0,0,.58,0,1.11,1.11,0,0,0,.62-.45l.11.36a1.36,1.36,0,0,1-.73.44,1,1,0,0,1-.85-.09,1.27,1.27,0,0,1-.52-.77,1.21,1.21,0,0,1,.05-.94,1,1,0,0,1,.64-.56.92.92,0,0,1,.77.08,1.24,1.24,0,0,1,.49.73Zm-.49-.21a.76.76,0,0,0-.28-.43.54.54,0,0,0-.45,0,.55.55,0,0,0-.36.29.84.84,0,0,0-.08.53Z"/><path class="cls-7" d="M459.89,1863.32l-.79,3.41-.46.06-1.58-3.11.46-.06,1.2,2.43a2,2,0,0,1,.1.29h0a1.15,1.15,0,0,1,0-.31l.57-2.65Z"/><path class="cls-7" d="M460.38,1865.44a1.28,1.28,0,0,1,.3-.93,1.16,1.16,0,0,1,.87-.35,1.05,1.05,0,0,1,.83.3,1.23,1.23,0,0,1,.33.88,1.3,1.3,0,0,1-.3.91,1.14,1.14,0,0,1-.85.36,1.09,1.09,0,0,1-.85-.31,1.22,1.22,0,0,1-.33-.86m.42,0a1,1,0,0,0,.22.64.73.73,0,0,0,.56.22.68.68,0,0,0,.53-.24,1,1,0,0,0,.17-.66,1,1,0,0,0-.2-.66.68.68,0,0,0-.55-.21.73.73,0,0,0-.55.25,1,1,0,0,0-.18.66"/><rect class="cls-7" x="462.04" y="1864.64" width="3.47" height="0.41" transform="translate(-1422.32 2232.81) rotate(-87.07)"/><path class="cls-7" d="M466.73,1866.89l-.42-.05.05-.37h0a.78.78,0,0,1-.77.33c-.55-.07-.78-.44-.7-1.09l.18-1.4.4.06-.16,1.33q-.09.71.45.78a.55.55,0,0,0,.46-.15.78.78,0,0,0,.23-.48l.17-1.34.41.06Z"/><path class="cls-7" d="M469.53,1867.51l-.4-.1.3-1.3c.11-.46,0-.74-.34-.82a.6.6,0,0,0-.49.09.82.82,0,0,0-.29.46l-.31,1.31-.4-.1.54-2.28.41.1-.1.37h0a.86.86,0,0,1,.85-.25.7.7,0,0,1,.52.38,1.13,1.13,0,0,1,0,.74Z"/><path class="cls-7" d="M471.42,1868.09a.71.71,0,0,1-.37,0c-.4-.13-.53-.42-.38-.86l.42-1.29-.38-.12.1-.33.39.13.18-.54h.43l-.22.67.55.18-.1.32-.56-.18-.4,1.22a.6.6,0,0,0,0,.34.36.36,0,0,0,.22.17.39.39,0,0,0,.26,0Z"/><path class="cls-7" d="M474.18,1868.09l-1.51-.64a.85.85,0,0,0,0,.62.74.74,0,0,0,.43.4,1.22,1.22,0,0,0,.76,0l-.15.34a1.46,1.46,0,0,1-.84-.12,1,1,0,0,1-.6-.61,1.24,1.24,0,0,1,.08-.93,1.3,1.3,0,0,1,.64-.7,1,1,0,0,1,.85,0,.93.93,0,0,1,.55.55,1.24,1.24,0,0,1-.09.87Zm-.25-.47a.78.78,0,0,0,.05-.51.51.51,0,0,0-.32-.32.55.55,0,0,0-.47,0,.84.84,0,0,0-.39.36Z"/><path class="cls-7" d="M476.58,1869.35l-1.45-.78a.86.86,0,0,0-.09.61.74.74,0,0,0,.38.44,1.2,1.2,0,0,0,.75.12l-.17.33a1.43,1.43,0,0,1-.83-.2,1,1,0,0,1-.54-.66,1.27,1.27,0,0,1,.17-.92,1.31,1.31,0,0,1,.7-.64,1,1,0,0,1,.85.07.88.88,0,0,1,.49.6,1.2,1.2,0,0,1-.17.85Zm-.21-.49a.73.73,0,0,0,.1-.5.51.51,0,0,0-.28-.35.59.59,0,0,0-.47,0,.94.94,0,0,0-.43.32Z"/><path class="cls-7" d="M478.78,1869.75a.55.55,0,0,0-.19-.22.49.49,0,0,0-.47,0,1.08,1.08,0,0,0-.45.41l-.65,1-.35-.23,1.28-2,.35.22-.26.4h0a.64.64,0,0,1,.8-.1.59.59,0,0,1,.16.15Z"/><path class="cls-7" d="M478.42,1871.24a1.07,1.07,0,0,0,.4.59c.26.2.45.21.58,0a.29.29,0,0,0,.05-.24,1.91,1.91,0,0,0-.22-.43,1.23,1.23,0,0,1-.21-.55.66.66,0,0,1,.13-.37.6.6,0,0,1,.52-.23,1.05,1.05,0,0,1,.62.24,1.37,1.37,0,0,1,.38.42l-.24.32a1.06,1.06,0,0,0-.37-.5.53.53,0,0,0-.31-.12.27.27,0,0,0-.24.1.29.29,0,0,0-.06.23,1.57,1.57,0,0,0,.2.4,1.49,1.49,0,0,1,.23.57.54.54,0,0,1-.13.39.56.56,0,0,1-.51.24,1.17,1.17,0,0,1-.66-.27,1.41,1.41,0,0,1-.42-.5Z"/><polygon class="cls-7" points="484.31 1873.27 483.42 1872.36 482.64 1873.13 483.46 1873.97 483.2 1874.23 482.37 1873.39 481.35 1874.4 481.05 1874.1 483.39 1871.8 484.58 1873 484.31 1873.27"/><path class="cls-7" d="M484.75,1876.65l-1-1.28a.89.89,0,0,0-.32.53.72.72,0,0,0,.19.55,1.11,1.11,0,0,0,.65.4l-.29.24a1.48,1.48,0,0,1-.69-.5,1,1,0,0,1-.25-.82,1.31,1.31,0,0,1,.52-.78,1.24,1.24,0,0,1,.88-.32,1,1,0,0,1,.76.38.88.88,0,0,1,.23.74,1.16,1.16,0,0,1-.48.72Zm0-.54a.7.7,0,0,0,.29-.42.54.54,0,0,0-.13-.44.57.57,0,0,0-.42-.21.82.82,0,0,0-.51.12Z"/><path class="cls-7" d="M485.46,1879.59l-.23-.35.32-.22h0a.94.94,0,0,1-.93-1.19,1.32,1.32,0,0,1,.57-.69,1.36,1.36,0,0,1,.93-.26.94.94,0,0,1,.72.45.74.74,0,0,1,.08.79h0l1.21-.79.22.35Zm.93-1.12a.65.65,0,0,0,.3-.41.66.66,0,0,0-.1-.49.63.63,0,0,0-.49-.3,1.13,1.13,0,0,0-.67.22,1,1,0,0,0-.41.49.59.59,0,0,0,.07.53.63.63,0,0,0,.46.29.75.75,0,0,0,.57-.15Z"/><path class="cls-7" d="M487.73,1881.56l-.76-1.46a.94.94,0,0,0-.42.45.76.76,0,0,0,.07.58,1.2,1.2,0,0,0,.56.53l-.33.17a1.48,1.48,0,0,1-.57-.63,1,1,0,0,1-.08-.85,1.46,1.46,0,0,1,1.59-.8,1,1,0,0,1,.67.53.89.89,0,0,1,.07.77,1.2,1.2,0,0,1-.61.61Zm.1-.52a.76.76,0,0,0,.37-.36.51.51,0,0,0,0-.46.59.59,0,0,0-.36-.29.88.88,0,0,0-.53,0Z"/><path class="cls-7" d="M489.34,1883.12a.52.52,0,0,0,0-.29.49.49,0,0,0-.37-.28,1,1,0,0,0-.6.09l-1.1.46-.16-.38,2.16-.91.16.38-.44.18h0a.64.64,0,0,1,.71.37.57.57,0,0,1,.06.21Z"/><path class="cls-7" d="M489.85,1883.77a1.47,1.47,0,0,1,.45.7.77.77,0,0,1-.58,1.09l-1.43.47-.13-.39.34-.12h0a.78.78,0,0,1-.62-.55.74.74,0,0,1,0-.57.61.61,0,0,1,.41-.35c.41-.14.74,0,1,.5l.31.63q.54-.18.39-.63a1.11,1.11,0,0,0-.51-.64Zm-.81,1a.79.79,0,0,0-.26-.33.39.39,0,0,0-.32,0,.33.33,0,0,0-.22.19.44.44,0,0,0,0,.34.6.6,0,0,0,.32.36.71.71,0,0,0,.52,0l.21-.07Z"/><path class="cls-7" d="M488.79,1888a.83.83,0,0,1-.16-.34c-.1-.41.08-.67.53-.78l1.32-.31-.09-.39.33-.08.09.39.55-.13.23.37-.68.16.13.57-.33.08-.14-.57-1.24.3a.52.52,0,0,0-.3.15.32.32,0,0,0,0,.28.4.4,0,0,0,.14.22Z"/><path class="cls-7" d="M488.89,1888.62l2.31-.41.07.41L489,1889Zm3.11-.6a.27.27,0,0,1,.2,0,.26.26,0,0,1-.1.48.24.24,0,0,1-.2,0,.25.25,0,0,1-.1-.17.24.24,0,0,1,0-.2.25.25,0,0,1,.16-.1"/><path class="cls-7" d="M490.25,1889.67a1.26,1.26,0,0,1,.94.23,1.16,1.16,0,0,1,.42.84,1.08,1.08,0,0,1-.24.86,1.24,1.24,0,0,1-.86.38,1.22,1.22,0,0,1-.92-.23,1.23,1.23,0,0,1-.18-1.69,1.23,1.23,0,0,1,.84-.39m.05.42a.89.89,0,0,0-.61.26.67.67,0,0,0-.18.57.63.63,0,0,0,.28.52,1,1,0,0,0,.66.12,1,1,0,0,0,.64-.25.65.65,0,0,0,.18-.56.7.7,0,0,0-.3-.53,1,1,0,0,0-.67-.13"/><path class="cls-7" d="M489.33,1894.79v-.41l1.33,0c.48,0,.73-.16.73-.51a.56.56,0,0,0-.19-.46.77.77,0,0,0-.52-.18l-1.33,0v-.42l2.35,0v.42h-.39a.85.85,0,0,1,.44.77.76.76,0,0,1-.26.59,1.18,1.18,0,0,1-.73.19Z"/></g><path class="cls-3" d="M469.93,1880.64l-8.55,9.38a1.77,1.77,0,0,0-.16.22c-1.22,1.44-3.44,3.93-6.34,2.7-2.21-1-3.68-3.59-6.09-4.21a4.22,4.22,0,0,0-5.09,3.87c2.74.07,4.53,1.61,4.93,5.33.44,4,1.12,6.7,3.18,8.56a9.91,9.91,0,0,0,13.18,1,8.38,8.38,0,0,0,.93-.73c2.2-2,4.33-4.19,5.76-5.68a1.51,1.51,0,0,0,.23-.21l.87-1,.61-.65h0l7.07-7.77a1.59,1.59,0,1,0-2.34-2.14l-7.41,8.14a.39.39,0,0,1-.48,0,.37.37,0,0,1,0-.53l.58-.65h0l8.54-9.39a1.59,1.59,0,0,0-2.35-2.14l-8.49,9.34h0l-.48.53a.47.47,0,0,1-.67,0,.46.46,0,0,1,0-.66l.21-.24.14-.13,8.54-9.39a1.59,1.59,0,1,0-2.34-2.14l-8.55,9.39a1.13,1.13,0,0,0-.1.13l0,0a.37.37,0,0,1-.52,0,.36.36,0,0,1-.06-.48l7.67-8.44a1.58,1.58,0,0,0-1.17-2.65,1.55,1.55,0,0,0-1.17.52"/><g class="cls-28"><rect class="cls-29" x="439.03" y="1871.08" width="46.67" height="47.51" transform="translate(-1275.75 1009.89) rotate(-49.3)"/></g><g class="cls-25"><polygon class="cls-7" points="475.57 1897.35 473.69 1893.79 467.58 1897.03 467.58 1890.1 463.49 1890.1 463.49 1896.93 457.56 1893.58 455.59 1897.08 461.35 1900.33 455.5 1903.43 457.38 1906.98 463.49 1903.75 463.49 1910.68 467.58 1910.68 467.58 1903.85 473.51 1907.2 475.48 1903.7 469.72 1900.45 475.57 1897.35"/></g><text class="cls-30" transform="translate(1066.82 1494.03)">参与总人数：43人</text><text class="cls-31" transform="translate(401.99 1561.65)"><tspan xml:space="preserve">      201</tspan><tspan class="cls-32" x="97.73" y="0">5年</tspan><tspan x="154.1" y="0">6⽉22⽇</tspan><tspan class="cls-33" x="258.23" y="0">，</tspan><tspan class="cls-32" x="277.06" y="0">7</tspan><tspan x="299.69" y="0">名驴友在惠东⽩⻢⼭打银坑溪⾕溯溪时</tspan><tspan class="cls-34" x="767.19" y="0">，</tspan><tspan x="786.02" y="0">因迷路被困溪⾕</tspan><tspan class="cls-35" x="978.52" y="0">，</tspan><tspan x="0" y="40">而台</tspan><tspan class="cls-35" x="55" y="40">⻛</tspan><tspan x="70" y="40">“鲸⻥</tspan><tspan class="cls-36" x="152.5" y="40">”</tspan><tspan x="156.51" y="40">（强热带⻛暴级</tspan><tspan class="cls-37" x="349.01" y="40">）</tspan><tspan x="365.52" y="40">将</tspan><tspan class="cls-32" x="393.02" y="40">于</tspan><tspan x="426.77" y="40">22⽇晚上</tspan><tspan class="cls-32" x="542.02" y="40">到</tspan><tspan x="575.77" y="40">23⽇登陆广东，强降⾬将给被困在</tspan><tspan x="0" y="80">溪⾕的人员照成极大风险</tspan><tspan class="cls-38" x="302.5" y="80">，</tspan><tspan x="323.39" y="80">情况紧急</tspan><tspan class="cls-35" x="433.39" y="80">。</tspan><tspan x="448.39" y="80">深圳公益救援队接到报警后先后组织前后</tspan><tspan class="cls-32" x="943.39" y="80">指</tspan><tspan x="977.14" y="80">2</tspan><tspan x="0" y="120">个梯队</tspan><tspan class="cls-32" x="82.5" y="120">共</tspan><tspan x="116.25" y="120">4</tspan><tspan class="cls-32" x="132.63" y="120">3</tspan><tspan x="155.25" y="120">名队员连夜搜救</tspan><tspan class="cls-39" x="347.75" y="120">，</tspan><tspan x="370.51" y="120">过程中遭遇⼤⻛暴⾬</tspan><tspan class="cls-39" x="618.01" y="120">，</tspan><tspan x="640.76" y="120">加上路线灌⽊藤蔓密集</tspan><tspan class="cls-39" x="915.76" y="120">，</tspan><tspan x="938.52" y="120">溪谷</tspan><tspan x="0" y="160">水流湍急</tspan><tspan class="cls-40" x="110" y="160">，</tspan><tspan x="134.16" y="160">搜救行动极为艰险</tspan><tspan class="cls-40" x="354.16" y="160">，</tspan><tspan x="378.32" y="160">最终联合救援队</tspan><tspan class="cls-32" x="570.82" y="160">在</tspan><tspan x="604.57" y="160">2</tspan><tspan class="cls-32" x="620.94" y="160">3日</tspan><tspan x="677.32" y="160">11:3</tspan><tspan class="cls-32" x="735.89" y="160">0</tspan><tspan x="758.52" y="160">分发现被困的驴友</tspan><tspan class="cls-35" x="978.52" y="160">，</tspan><tspan x="0" y="200">并于当</tspan><tspan class="cls-41" x="82.5" y="200">日</tspan><tspan x="114.28" y="200">16:0</tspan><tspan class="cls-41" x="172.86" y="200">0</tspan><tspan x="193.52" y="200">全员安全护送下山</tspan><tspan class="cls-35" x="413.52" y="200">，</tspan><tspan x="428.52" y="200">在极端恶劣的天气下完成了一次生命拯救行动</tspan><tspan class="cls-35" x="978.52" y="200">。</tspan></text><text class="cls-42" transform="translate(823.41 1896.26)">生命勋章</text><text class="cls-43" transform="translate(1113.95 1892.67)">2015<tspan class="cls-44" x="87.7" y="0">年</tspan><tspan x="123.7" y="0">6</tspan><tspan class="cls-44" x="145.62" y="0">月</tspan><tspan x="181.62" y="0">22</tspan><tspan class="cls-44" x="225.47" y="0">日</tspan></text><text class="cls-45" transform="translate(401.99 1479.66)">姓名</text><text class="cls-46" transform="translate(476.14 1488.85)">###NAME###</text><text class="cls-45" transform="translate(672.74 1484.9)">编号</text><text class="cls-47" transform="translate(753.5 1493.24)">###NUMBER###</text><text class="cls-48" transform="translate(401.99 1364.56)">白马山打银坑溪谷救援</text><line class="cls-49" x1="406.12" y1="1407.19" x2="1386.62" y2="1407.19"/></svg>
