<svg id="图层_1" data-name="图层 1" xmlns="http://www.w3.org/2000/svg" xmlns:xlink="http://www.w3.org/1999/xlink" viewBox="0 0 1795 3964"><defs><style>.cls-1,.cls-61{fill:none;}.cls-2{fill:url(#linear-gradient);}.cls-3{fill:url(#linear-gradient-2);}.cls-4{fill:url(#linear-gradient-3);}.cls-5{clip-path:url(#clip-path);}.cls-6{fill:#003561;}.cls-6,.cls-8{fill-rule:evenodd;}.cls-17,.cls-24,.cls-30,.cls-31,.cls-54,.cls-55,.cls-57,.cls-58,.cls-59,.cls-7{fill:#fff;}.cls-8{fill:#124687;}.cls-9{fill:#f5c467;}.cls-10{fill:#fbd03e;}.cls-11{clip-path:url(#clip-path-2);}.cls-12{fill:#15397b;}.cls-13{clip-path:url(#clip-path-3);}.cls-14{fill:url(#radial-gradient);}.cls-15{clip-path:url(#clip-path-5);}.cls-16{fill:url(#linear-gradient-5);}.cls-17{font-size:72px;}.cls-17,.cls-31{font-family:SourceHanSansCN-Regular-GBpc-EUC-H, Source Han Sans CN;}.cls-18{clip-path:url(#clip-path-7);}.cls-19{clip-path:url(#clip-path-8);}.cls-20{clip-path:url(#clip-path-9);}.cls-21{fill:url(#radial-gradient-2);}.cls-22{clip-path:url(#clip-path-11);}.cls-23{fill:url(#linear-gradient-7);}.cls-24{font-size:48px;font-family:SourceHanSansCN-Normal-GBpc-EUC-H, Source Han Sans CN;}.cls-25{clip-path:url(#clip-path-13);}.cls-26{clip-path:url(#clip-path-14);}.cls-27{fill:url(#radial-gradient-3);}.cls-28{clip-path:url(#clip-path-16);}.cls-29{fill:url(#linear-gradient-9);}.cls-30{font-size:40px;}.cls-30,.cls-60{font-family:SourceHanSansCN-ExtraLight-GBpc-EUC-H, Source Han Sans CN;}.cls-31{font-size:25px;}.cls-31,.cls-44,.cls-54,.cls-60{letter-spacing:0.1em;}.cls-32{letter-spacing:0.4em;}.cls-33{letter-spacing:0.35em;}.cls-34{letter-spacing:-0.16em;}.cls-35{letter-spacing:0.1em;}.cls-36{letter-spacing:-0.16em;}.cls-37{letter-spacing:-0.4em;}.cls-38{letter-spacing:0.47em;}.cls-39{letter-spacing:0.47em;}.cls-40{letter-spacing:-0.21em;}.cls-41{letter-spacing:0.1em;}.cls-42{letter-spacing:-0.21em;}.cls-43{letter-spacing:0.12em;}.cls-45{letter-spacing:-0.39em;}.cls-46{letter-spacing:0.12em;}.cls-47{letter-spacing:0.1em;}.cls-48{letter-spacing:-0.36em;}.cls-49{letter-spacing:-0.29em;}.cls-50{letter-spacing:-0.29em;}.cls-51{letter-spacing:-0.32em;}.cls-52{letter-spacing:-0.32em;}.cls-53{letter-spacing:-0.4em;}.cls-54{font-size:60px;font-family:SourceHanSerifCN-Regular-GBpc-EUC-H, Source Han Serif CN;}.cls-55{font-size:36px;font-family:SourceHanSansCN-Heavy-GBpc-EUC-H, Source Han Sans CN;}.cls-56{font-family:SourceHanSansCN-Light-GBpc-EUC-H, Source Han Sans CN;}.cls-57{font-size:30.33px;font-family:SourceHanSansCN-Medium-GBpc-EUC-H, Source Han Sans CN;}.cls-58{font-size:52.91px;}.cls-58,.cls-59{font-family:SourceHanSansCN-Bold-GBpc-EUC-H, Source Han Sans CN;}.cls-59{font-size:56.44px;}.cls-60{font-size:80px;fill:#6799ff;}.cls-61{stroke:#fff;stroke-miterlimit:10;stroke-width:2px;}</style><linearGradient id="linear-gradient" x1="1371.47" y1="3784" x2="1408.64" y2="3784" gradientUnits="userSpaceOnUse"><stop offset="0" stop-color="#1f2c5d"/><stop offset="0.24" stop-color="#1b2d73"/><stop offset="0.62" stop-color="#1c3b88"/><stop offset="0.63" stop-color="#1c3c89"/><stop offset="0.87" stop-color="#2a65a2"/><stop offset="1" stop-color="#2f75ac"/></linearGradient><linearGradient id="linear-gradient-2" x1="443.7" y1="1975.99" x2="480.87" y2="1975.99" xlink:href="#linear-gradient"/><linearGradient id="linear-gradient-3" x1="1371.76" y1="2958.64" x2="1408.93" y2="2958.64" xlink:href="#linear-gradient"/><clipPath id="clip-path"><rect class="cls-1" x="360.38" y="2315.83" width="1076.88" height="610.34" rx="28.29"/></clipPath><clipPath id="clip-path-2"><rect class="cls-1" x="1345.05" y="2914.93" width="85.3" height="84.61"/></clipPath><clipPath id="clip-path-3"><path class="cls-1" d="M1369.77,2957.41a20.58,20.58,0,1,0,20.58-20.59,20.59,20.59,0,0,0-20.58,20.59"/></clipPath><radialGradient id="radial-gradient" cx="-1151.68" cy="7513.06" r="0.37" gradientTransform="matrix(59.85, 0, 0, -59.85, 70328.7, 452639.9)" gradientUnits="userSpaceOnUse"><stop offset="0" stop-color="#eceef4"/><stop offset="0.17" stop-color="#e5e8f1"/><stop offset="0.42" stop-color="#d2d7e7"/><stop offset="0.54" stop-color="#c6cce1"/><stop offset="1" stop-color="#96a1be"/></radialGradient><clipPath id="clip-path-5"><path class="cls-4" d="M1398,2944.44l-8.54,9.38a1.84,1.84,0,0,0-.17.22c-1.22,1.44-3.44,3.93-6.33,2.7-2.21-.95-3.68-3.59-6.1-4.21a4.22,4.22,0,0,0-5.09,3.87c2.74.07,4.53,1.61,4.94,5.33.44,4,1.11,6.7,3.17,8.56a9.92,9.92,0,0,0,13.19,1,9.43,9.43,0,0,0,.93-.73c2.19-2,4.33-4.19,5.75-5.68a1.15,1.15,0,0,0,.23-.21l.88-1,.6-.65h0l7.08-7.77a1.59,1.59,0,1,0-2.35-2.14l-7.41,8.14a.38.38,0,0,1-.47,0,.37.37,0,0,1,0-.53l.59-.65h0l8.55-9.39a1.59,1.59,0,0,0-2.35-2.14l-8.49,9.34h0l-.47.53a.47.47,0,0,1-.67,0,.46.46,0,0,1,0-.66l.22-.24.13-.13,8.55-9.39a1.59,1.59,0,0,0-2.35-2.14l-8.54,9.39-.11.13,0,0a.38.38,0,0,1-.53,0,.37.37,0,0,1-.06-.48l7.68-8.44a1.58,1.58,0,0,0-.11-2.24,1.54,1.54,0,0,0-1.06-.41,1.56,1.56,0,0,0-1.18.52"/></clipPath><linearGradient id="linear-gradient-5" x1="-1147.03" y1="7449.12" x2="-1146.69" y2="7449.14" gradientTransform="matrix(108.07, 0, 0, -108.07, 125357.18, 807982.73)" gradientUnits="userSpaceOnUse"><stop offset="0" stop-color="#1f2c5d"/><stop offset="0.49" stop-color="#1c3b88"/><stop offset="0.68" stop-color="#0c5097"/><stop offset="0.85" stop-color="#0060a2"/><stop offset="0.94" stop-color="#007ec1"/><stop offset="1" stop-color="#008dd1"/></linearGradient><clipPath id="clip-path-7"><rect class="cls-1" x="360.08" y="3141.19" width="1076.88" height="610.34" rx="28.29"/></clipPath><clipPath id="clip-path-8"><rect class="cls-1" x="1344.76" y="3740.29" width="85.3" height="84.61"/></clipPath><clipPath id="clip-path-9"><path class="cls-1" d="M1369.47,3782.78a20.59,20.59,0,1,0,20.58-20.59,20.59,20.59,0,0,0-20.58,20.59"/></clipPath><radialGradient id="radial-gradient-2" cx="-1151.69" cy="7499.27" r="0.37" xlink:href="#radial-gradient"/><clipPath id="clip-path-11"><path class="cls-2" d="M1397.7,3769.8l-8.54,9.39a1.57,1.57,0,0,0-.17.21c-1.22,1.45-3.44,3.94-6.34,2.7-2.21-.94-3.68-3.58-6.09-4.21a4.23,4.23,0,0,0-5.09,3.88c2.74.06,4.53,1.6,4.94,5.32.43,4,1.11,6.7,3.17,8.57a9.92,9.92,0,0,0,13.19,1,8.17,8.17,0,0,0,.93-.74c2.19-2,4.33-4.18,5.75-5.67a1.51,1.51,0,0,0,.23-.21l.87-1,.61-.65h0l7.08-7.77a1.59,1.59,0,0,0-2.35-2.14l-7.41,8.15a.38.38,0,0,1-.5-.57l.58-.64h0l8.55-9.39a1.59,1.59,0,0,0-2.35-2.13l-8.49,9.33h0l-.48.52a.47.47,0,0,1-.69-.63l.22-.25.13-.13,8.55-9.39a1.59,1.59,0,0,0-2.35-2.13l-8.54,9.39a.45.45,0,0,0-.11.13l0,0a.37.37,0,0,1-.53,0,.38.38,0,0,1-.06-.49l7.68-8.43a1.58,1.58,0,0,0-.11-2.24,1.56,1.56,0,0,0-1.07-.42,1.59,1.59,0,0,0-1.17.52"/></clipPath><linearGradient id="linear-gradient-7" x1="-1152.82" y1="7444.15" x2="-1152.48" y2="7444.16" gradientTransform="matrix(108.07, 0, 0, -108.07, 125984.17, 808269.94)" xlink:href="#linear-gradient-5"/><clipPath id="clip-path-13"><rect class="cls-1" x="416.98" y="1932.28" width="85.3" height="84.61"/></clipPath><clipPath id="clip-path-14"><path class="cls-1" d="M441.7,1974.77a20.58,20.58,0,1,0,20.58-20.59,20.59,20.59,0,0,0-20.58,20.59"/></clipPath><radialGradient id="radial-gradient-3" cx="-1167.19" cy="7529.47" r="0.37" xlink:href="#radial-gradient"/><clipPath id="clip-path-16"><path class="cls-3" d="M469.93,1961.79l-8.55,9.39-.16.21c-1.22,1.45-3.44,3.94-6.34,2.7-2.21-.94-3.68-3.58-6.09-4.21a4.23,4.23,0,0,0-5.09,3.88c2.74.06,4.53,1.6,4.93,5.32.44,4.05,1.12,6.7,3.18,8.57a9.91,9.91,0,0,0,13.18,1,7.37,7.37,0,0,0,.93-.74c2.2-2,4.33-4.18,5.76-5.67a1.51,1.51,0,0,0,.23-.21l.87-1,.61-.65h0l7.07-7.77a1.59,1.59,0,1,0-2.34-2.14l-7.41,8.15a.39.39,0,0,1-.48,0,.38.38,0,0,1,0-.54l.58-.64h0l8.54-9.39A1.59,1.59,0,1,0,477,1966l-8.49,9.33h0l-.48.52a.47.47,0,0,1-.67,0,.46.46,0,0,1,0-.66l.21-.25a.86.86,0,0,0,.14-.13l8.54-9.39a1.58,1.58,0,1,0-2.34-2.13l-8.55,9.39a.64.64,0,0,0-.1.13l0,0a.37.37,0,0,1-.58-.45l7.67-8.44a1.59,1.59,0,1,0-2.34-2.14"/></clipPath><linearGradient id="linear-gradient-9" x1="-1145.74" y1="7461.56" x2="-1145.4" y2="7461.58" gradientTransform="matrix(108.07, 0, 0, -108.07, 124290.54, 808344.25)" xlink:href="#linear-gradient-5"/><image id="image" width="1150" height="731" xlink:href="../../%E7%94%9F%E5%91%BD%E5%8B%8B%E7%AB%A0-%E4%B8%80%E5%BC%A0%E5%9B%BE%E4%B8%8E%E7%BA%AF%E5%8B%8B%E7%AB%A0/%E7%94%9F%E5%91%BD%E5%8B%8B%E7%AB%A0-%E4%B8%80%E5%BC%A0%E5%9B%BE/%E6%BA%90%E6%96%87%E4%BB%B6/%E7%85%A7%E7%89%87.png"/><image id="image-2" width="150" height="145" xlink:href="../../%E7%94%9F%E5%91%BD%E5%8B%8B%E7%AB%A0-%E4%B8%80%E5%BC%A0%E5%9B%BE%E4%B8%8E%E7%BA%AF%E5%8B%8B%E7%AB%A0/%E7%94%9F%E5%91%BD%E5%8B%8B%E7%AB%A0-%E4%B8%80%E5%BC%A0%E5%9B%BE/%E6%BA%90%E6%96%87%E4%BB%B6/535261790cbcb269e680d7c4426ba0ed0d6dcd8a7629a-b6OO2v%20%E6%8B%B7%E8%B4%9D.png"/></defs><image width="1795" height="3964" transform="translate(1.17)" xlink:href="../../%E7%94%9F%E5%91%BD%E5%8B%8B%E7%AB%A0-%E4%B8%80%E5%BC%A0%E5%9B%BE%E4%B8%8E%E7%BA%AF%E5%8B%8B%E7%AB%A0/%E7%94%9F%E5%91%BD%E5%8B%8B%E7%AB%A0-%E4%B8%80%E5%BC%A0%E5%9B%BE/%E6%BA%90%E6%96%87%E4%BB%B6/%E8%83%8C%E6%99%AF%20%E6%8B%B7%E8%B4%9D.png"/><image width="1145" height="1994" transform="translate(358.47 165.3) scale(0.94)" xlink:href="../../%E4%B8%BB%E9%A2%98.png"/><image width="1039" height="30" transform="translate(378 2197.23)" xlink:href="../../%E7%94%9F%E5%91%BD%E5%8B%8B%E7%AB%A0-%E4%B8%80%E5%BC%A0%E5%9B%BE%E4%B8%8E%E7%BA%AF%E5%8B%8B%E7%AB%A0/%E7%94%9F%E5%91%BD%E5%8B%8B%E7%AB%A0-%E4%B8%80%E5%BC%A0%E5%9B%BE/%E6%BA%90%E6%96%87%E4%BB%B6/%E7%BB%84%2015.png"/><use transform="translate(324.11 2289.42)" xlink:href="#image"/><g class="cls-5"><image width="3264" height="2448" transform="translate(1472.31 1806.05) rotate(90) scale(0.47)" xlink:href="../../%E7%94%9F%E5%91%BD%E5%8B%8B%E7%AB%A0%20%E7%85%A7%E7%89%87/2016-5-17-%E6%8E%92%E7%89%99%E5%B1%B1%E5%9D%A0%E5%B4%96%E5%A4%A7%E8%90%A5%E6%95%91/PIC_20160518_022527_E15.JPG"/></g><path class="cls-6" d="M1390,2876c10.8,7.07,28.68,10.93,41,2.9l13.93,15.71c-11.16,9.56-12.88,23.39-8,33.56,19.35,37.12,14.43,61.7-26.07,78.25-8.19,3.66-17.71,9.29-20.83,12.65-3.13-3.36-12.61-9-20.8-12.65-40.5-16.55-45.42-41.13-26.07-78.25,4.8-10.17,3.08-24-8-33.56l13.92-15.71c12.3,8,30.16,4.17,41-2.9Z"/><path class="cls-7" d="M1389,3011.91c-5-4.44-9.93-6.32-22.3-12.46h0c-10.33-5.13-17.52-10.61-22.15-16.64h0a31.2,31.2,0,0,1-6.62-19.55h0c0-9.76,3.81-20.24,9.37-31.83h0a38.71,38.71,0,0,0,3.6-15.8h0a28.87,28.87,0,0,0-7.75-20h0l-.9-1,7.7-9,1,.31a57,57,0,0,0,17.48,3.17h0c8.89,0,14.57-3.06,21-6h0l.63-.29.64.29c6.41,2.91,12.08,6,21,6h0a57.27,57.27,0,0,0,17.52-3.17h0l1-.31,7.66,9-.91,1a28.87,28.87,0,0,0-7.74,20h0a38.6,38.6,0,0,0,3.58,15.78h0c5.57,11.61,9.38,22.1,9.39,31.86h0a31.08,31.08,0,0,1-6.62,19.54h0c-4.63,6-11.82,11.51-22.16,16.63h0c-12.36,6.15-17.3,8-22.29,12.47h0l-1,.9-1-.9Zm-38.93-79.19c-5.51,11.44-9.09,21.59-9.08,30.54h0a28,28,0,0,0,6,17.69h0c4.23,5.52,11,10.77,21.08,15.76h0c11.47,5.71,16.8,7.78,22,12.05h0c5.19-4.27,10.48-6.33,22-12.05h0c10.08-5,16.86-10.24,21.08-15.76h0a27.93,27.93,0,0,0,6-17.68h0c0-8.95-3.59-19.1-9.09-30.55h0l0,0a41.68,41.68,0,0,1-3.86-17.07h0a31.87,31.87,0,0,1,7.64-21h0l-4.61-5.44a59,59,0,0,1-17.48,3h0c-9.32,0-15.57-3.19-21.62-6h0c-6,2.77-12.29,6-21.61,6h0a58.83,58.83,0,0,1-17.45-3h0l-4.65,5.45a31.84,31.84,0,0,1,7.65,21h0a41.68,41.68,0,0,1-3.87,17.07h0v0Z"/><path class="cls-8" d="M1390,2884.55c9.68,4.4,18.61,9.63,39.61,2.87l6.12,7.22c-11,12-9.17,27-4.41,37.42,13.43,28,16.08,48.82-18.69,66-12.29,6.12-17.36,8-22.63,12.69-5.23-4.66-10.34-6.57-22.63-12.69-34.73-17.2-32.11-38.07-18.69-66,4.76-10.43,6.56-25.38-4.41-37.42l6.16-7.22c21,6.76,29.9,1.53,39.57-2.87Z"/><path class="cls-9" d="M1412.09,2925.48l-3.14.64a36,36,0,0,1,9.07,7.38l3.11.24c-.94-1.16-1.91-2.23-2.92-3.26a40.85,40.85,0,0,0-6.12-5Zm-2.92,66.8.52-3.5a36,36,0,0,1-9.26,4l-1.76,3.33a39.56,39.56,0,0,0,10.5-3.88Zm12.59-10.8L1421,2978a37.51,37.51,0,0,1-8.48,8.89l-.34,3,.71.07a38.07,38.07,0,0,0,5.34-4.48,44.34,44.34,0,0,0,3.55-4.05Zm6.69-13.77-1.91-2.86a36.12,36.12,0,0,1-3.7,10.16l.94,3.53a38.94,38.94,0,0,0,4.67-10.83Zm.74-15.68-2.61-1.23a34.76,34.76,0,0,1,.67,6.91,33.2,33.2,0,0,1-.14,3.33l2,2.78.11-.08a35.87,35.87,0,0,0,.45-5.71h0a39.6,39.6,0,0,0-.49-6Zm-5.75-15.12-3-.32a35.42,35.42,0,0,1,5.3,10.76l2.58,1.07.07-.16A39,39,0,0,0,1423.44,2936.91Z"/><path class="cls-10" d="M1430.77,2975v-8.69l3.17-2.42a42.87,42.87,0,0,1-3.17,11.11Zm0-12.22v-12.3l2.09-4.21a43,43,0,0,1,1.53,11.47c0,.95,0,1.86-.08,2.78l-3.54,2.26Zm0-18.46v-3.93c.33.76.67,1.55,1,2.35Zm-8.6-16.78a44.07,44.07,0,0,0-11.54-8.62l1.42,5.6.07.32a36.73,36.73,0,0,1,6.47,5.24,40.55,40.55,0,0,1,3,3.29v-.24l.6-5.59Zm8.6,12.85v3.93l-1.87,3.18-.08.12a38.89,38.89,0,0,0-4.63-10.56h.22l.19-6.74a42.23,42.23,0,0,1,6.17,10.07Zm0,10.09v12.3l-.9.56a27.72,27.72,0,0,0,.33-3.54c0-.67,0-1.39,0-2.06a40,40,0,0,0-.22-4.29,38.11,38.11,0,0,1,.22,5c0,.44,0,.84,0,1.27,0-.55,0-1.11,0-1.66h0a39.2,39.2,0,0,0-.34-5.24v0a.41.41,0,0,1,0-.16v0c0-.08,0-.16,0-.24h0v0l.9-1.82Zm0,15.83V2975c-.34.76-.68,1.51-1,2.27l-5.16,1.14a39.23,39.23,0,0,0,4.52-10.79l1.69-1.31Zm-31.57,30.36,4,2.78a43.62,43.62,0,0,0,13.23-6.59h-7.06a38.57,38.57,0,0,1-10.2,3.81Zm20.13-6.11a44.64,44.64,0,0,0,8.71-10.28l-6,1.87a35.48,35.48,0,0,1-3.4,3.84,38.61,38.61,0,0,1-4.78,4.13Z"/><path class="cls-9" d="M1368.77,2925.48a40.93,40.93,0,0,0-6.13,5,43.55,43.55,0,0,0-2.91,3.26l3.1-.24a36.05,36.05,0,0,1,9.08-7.38l-3.14-.64Zm2.91,66.8a39.56,39.56,0,0,0,10.5,3.88l-1.76-3.33a36.17,36.17,0,0,1-9.26-4l.52,3.5Zm-12.59-10.8a44.34,44.34,0,0,0,3.55,4.05A38.73,38.73,0,0,0,1368,2990l.7-.07-.33-3a37.12,37.12,0,0,1-8.48-8.89l-.79,3.45Zm-6.69-13.77a39,39,0,0,0,4.68,10.83l.93-3.53a36.43,36.43,0,0,1-3.7-10.16l-1.91,2.86Zm-.74-15.68a39.6,39.6,0,0,0-.49,6h0a35.87,35.87,0,0,0,.45,5.71l.11.08,2-2.78a33.18,33.18,0,0,1-.15-3.33,35.51,35.51,0,0,1,.67-6.91l-2.61,1.23Zm.78-3.77.08.16,2.58-1.07a35.2,35.2,0,0,1,5.3-10.76l-3,.32A39.3,39.3,0,0,0,1352.44,2948.26Z"/><path class="cls-10" d="M1350.09,2975a43.28,43.28,0,0,1-3.18-11.11l3.18,2.42V2975Zm0-12.22-3.55-2.26c0-.92-.07-1.83-.07-2.78a43,43,0,0,1,1.53-11.47l2.09,4.21v12.3Zm-1-20c.3-.8.63-1.59,1-2.35v3.93Zm9.56-15.2.6,5.59v.24a38.9,38.9,0,0,1,3-3.29,36.66,36.66,0,0,1,6.46-5.24l.08-.32,1.42-5.6a44.28,44.28,0,0,0-11.55,8.62Zm-8.59,12.85a42.19,42.19,0,0,1,6.16-10.07l.19,6.74h.22a39.2,39.2,0,0,0-4.63,10.56l-.07-.12-1.87-3.18v-3.93Zm0,10.09.89,1.82v0h0c0,.08,0,.16,0,.24v0a.41.41,0,0,1,0,.16v0a39.2,39.2,0,0,0-.34,5.24h0c0,.55,0,1.11,0,1.66,0-.43,0-.83,0-1.27a36.46,36.46,0,0,1,.23-5,40,40,0,0,0-.23,4.29c0,.67,0,1.39,0,2.06a29.66,29.66,0,0,0,.33,3.54l-.89-.56v-12.3Zm0,15.83,1.68,1.31a39.23,39.23,0,0,0,4.52,10.79l-5.16-1.14c-.37-.76-.7-1.51-1-2.27v-8.69Zm31.57,30.36a38.44,38.44,0,0,1-10.2-3.81h-7.06a43.57,43.57,0,0,0,13.22,6.59l4-2.78Zm-14.61-6.55a37.21,37.21,0,0,1-4.78-4.13,34.44,34.44,0,0,1-3.4-3.84l-6-1.87a44.59,44.59,0,0,0,8.7,10.28Z"/><path class="cls-7" d="M1371.87,2900.86a2.18,2.18,0,0,0-2.49-2.32c-1.61.11-2.44.77-2.5,2s.84,1.88,2.83,2.16l.41.08q5.4,1.08,5.32,4.23-.09,4.82-6.56,5c-4,0-6-1.68-5.9-5.06h3.32a2.49,2.49,0,0,0,2.58,2.82c2,0,3-.72,3.07-2q0-1.58-2.91-2.16a2.74,2.74,0,0,1-.58-.16q-5.06-1.17-5.06-4.24.24-4.72,6.39-5.06,5,.24,5.23,4.73Z"/><path class="cls-7" d="M1380.92,2911.82h-3.32v-15.36h6.55c3.49.06,5.26,1.38,5.32,4a3.68,3.68,0,0,1-3.16,3.74v.08c1.72.06,2.63,1.19,2.74,3.41a2.12,2.12,0,0,1,.09.5,9.32,9.32,0,0,0,.82,3.65h-3.56a20.06,20.06,0,0,1-.59-4.15c-.11-1.33-.58-2-1.41-2h-3.48Zm0-8.72h2.74c1.54,0,2.32-.72,2.32-2.16s-.78-2-2.32-1.91h-2.74Z"/><path class="cls-7" d="M1390.71,2896.46h3.57l4,12.12h.08l4-12.12h3.24l-5.65,15.36h-3.56Z"/><path class="cls-7" d="M1407.23,2911.82v-15.36h9.88V2899h-6.64v3.66h6.22v2.57h-6.22v6.56Z"/><g class="cls-11"><path class="cls-12" d="M1424.47,2957.41a34.13,34.13,0,1,1-34.12-34.22,34.17,34.17,0,0,1,34.12,34.22"/><path class="cls-7" d="M1390.35,2923.73a33.68,33.68,0,1,0,33.66,33.68,33.71,33.71,0,0,0-33.66-33.68m32.7,33.68a32.71,32.71,0,1,1-32.7-32.72,32.75,32.75,0,0,1,32.7,32.72"/><path class="cls-7" d="M1413.8,2957.41a23.46,23.46,0,1,1-23.45-23.46,23.46,23.46,0,0,1,23.45,23.46"/></g><g class="cls-13"><rect class="cls-14" x="1369.77" y="2936.82" width="41.16" height="41.18"/></g><g class="cls-11"><polygon class="cls-7" points="1363.03 2963.16 1363.53 2964.19 1364.67 2964.36 1363.85 2965.16 1364.04 2966.29 1363.03 2965.76 1362.01 2966.29 1362.2 2965.16 1361.38 2964.36 1362.52 2964.19 1363.03 2963.16"/><polygon class="cls-7" points="1417.67 2963.16 1418.18 2964.19 1419.31 2964.36 1418.49 2965.16 1418.69 2966.29 1417.67 2965.76 1416.65 2966.29 1416.85 2965.16 1416.03 2964.36 1417.16 2964.19 1417.67 2963.16"/><path class="cls-7" d="M1364.77,2970l0,.37c-.45.11-1,.23-1.63.36l-.06-.38a14.45,14.45,0,0,0,1.66-.35m.74,3.68-.38-.07a3.72,3.72,0,0,1,.48-1.58l-1.34.75-.16-.29,1.35-.75a4.56,4.56,0,0,1-1.69-.47,3.25,3.25,0,0,0,.11-.35,4.3,4.3,0,0,0,1.73.63l-.57-1,.27-.15.61,1.1.46-.25.16.28-.46.26.63,1.13-.26.15-.6-1.07a3.83,3.83,0,0,0-.34,1.7m.11-4.6a9.08,9.08,0,0,1-.09,1,2,2,0,0,0-.35-.06c0-.3.1-.63.14-1Zm1.22,1.62-.09.31a11,11,0,0,1-1.16-.49c0-.09.09-.2.13-.31a6.36,6.36,0,0,0,1.12.49m-.22-2c0,.38-.07.71-.12,1l-.36-.07a9.09,9.09,0,0,0,.17-1Zm.27.9,1.31,2.35-.6.34-.16-.29.32-.18-1-1.77-.34.19-.17-.29Zm0,1.71.29.06c0,.43-.08.84-.15,1.23l-.34-.06a10.5,10.5,0,0,0,.2-1.23"/><path class="cls-7" d="M1366.58,2974.17l.49.36,1-.86-.34-.41.24-.19.33.41.78-.64.2.25-.78.63.33.4-.24.19-.32-.39-1,.8.47.33-.24.21c-.43-.29-.85-.57-1.23-.81Zm3.21-.46.21.25-1.16.95a5.81,5.81,0,0,1-1.27.86,2.54,2.54,0,0,1-1.23.12c0-.13.05-.25.07-.36a1.86,1.86,0,0,0,1.09-.1,5.39,5.39,0,0,0,1.14-.77Zm.48.82.2.25-2.71,2.22-.2-.25Zm.72.64.2.25-3.07,2.52-.21-.25Z"/><path class="cls-7" d="M1369.93,2979.2l-.24-.21,1.41-1.64,1.13,1,.37-.44-1.4-1.2.21-.25,1.48,1.27a4.77,4.77,0,0,0,.11-.59l.34.09a4.58,4.58,0,0,1-.1.63l-.3-.08,1.54,1.32-.21.24-1.41-1.21-.38.43,1.15,1-1,1.19a.45.45,0,0,1-.72.08l-.45-.4.17-.29.41.38a.24.24,0,0,0,.38,0l.78-.89-.91-.78-1.49,1.74-.25-.22,1.49-1.74-.89-.76Z"/><path class="cls-7" d="M1376.4,2982.43c.08.66.13,1.23.15,1.74l-.38,0c0-.15,0-.31,0-.47-.82-.43-1.48-.77-2-1a3.07,3.07,0,0,0-.37-.13l0-.4a1.19,1.19,0,0,0,.42,0,8.89,8.89,0,0,0,1.76-.9l.23.32a14.81,14.81,0,0,1-1.8.87l1.72.93q0-.43-.06-.93Zm-2.08-1.82a5,5,0,0,0,2.11-.84l.21.28a5.63,5.63,0,0,1-2.23.92,1.58,1.58,0,0,0-.09-.36m2.91-.3.33.05a3.27,3.27,0,0,0,.42,2.26l-.39.15a4,4,0,0,1-.36-2.46"/><path class="cls-7" d="M1378.1,2984.63l.57.21.49-1.32,2.75,1-.49,1.32.54.2-.1.27-3.86-1.43Zm2.23-1.74.1.33c-.5.1-1,.18-1.66.25a1.61,1.61,0,0,0-.06-.33,14.53,14.53,0,0,0,1.62-.25m-1.38,2.05.55.2.38-1-.54-.2Zm.22-2.92,2.14.79a7,7,0,0,0,1-.52l.22.29c-.26.14-.51.27-.77.38l1.16.43-.1.27-3.71-1.37Zm.6,3.23.55.2.38-1-.54-.2Zm.22-3.57.28-.13c.17.25.31.48.43.7l-.3.15c-.12-.22-.25-.46-.41-.72m1.54,3-.55-.2-.39,1.05.55.2Zm-.38-1.22.25-.18c.43.44.8.83,1.1,1.18l-.28.23c-.4-.49-.76-.9-1.07-1.23"/><path class="cls-7" d="M1383.66,2983.56l.84.15.12-.69.31.05-.13.69.87.15-.05.3-.87-.15-.26,1.46.2-.15c.15.19.34.46.58.79l-.28.2c-.17-.27-.34-.53-.51-.76l-.16.88c-.06.37-.26.52-.57.47l-.53-.1v-.38c.19.06.35.09.48.12a.26.26,0,0,0,.33-.25l.14-.77-.82.54-.16-.3c.32-.18.62-.35.89-.52l.1.2.26-1.49-.83-.14Zm-.08.72.29-.11.3.76-.31.11a7.25,7.25,0,0,0-.28-.76m1.66.15.24.21c-.21.22-.41.41-.6.59l-.23-.23a5.43,5.43,0,0,0,.59-.57m0,.78a8.86,8.86,0,0,0,1.09-1.89l.28.13c-.09.22-.19.43-.3.64l1.28.23,0,.29-.32-.05a3.83,3.83,0,0,1-.9,1.79,2.92,2.92,0,0,0,.79.9c-.09.1-.18.19-.24.27a3.53,3.53,0,0,1-.81-.94,3.75,3.75,0,0,1-1.21.63,1.71,1.71,0,0,0-.15-.31,3.61,3.61,0,0,0,1.22-.63,3.16,3.16,0,0,1-.21-1.19l-.24.33-.23-.2m-.19-1.89.2-.16a5.33,5.33,0,0,1,.4.42l-.24.19a4.73,4.73,0,0,0-.36-.45m1,1.31a3.83,3.83,0,0,0,.17,1.39,3.55,3.55,0,0,0,.74-1.52l-.75-.13-.16.26"/><path class="cls-7" d="M1388.27,2985.8l.53-.2,0-1h-.49v-.29h.5v-.77h.3l0,.76h.49v.29h-.49v.83l.41-.17s0,.12,0,.32l-.43.19,0,1.39q0,.42-.36.45h-.37c0-.11,0-.22-.05-.34h.32c.11,0,.15-.06.15-.19v-1.2l-.48.21Zm1.38-.4h.59c0-.11,0-.22.07-.33h-.58v-.28l1.7,0c.13-.22.26-.45.38-.7l.29.16c-.12.19-.23.36-.35.53h.56v.27l-1.69,0c0,.11,0,.22-.07.33l1.83,0v.27l-1.91,0c0,.12-.07.23-.1.33l1.62,0v.26a2.74,2.74,0,0,1-.66.78,3.08,3.08,0,0,0,1.13.27l-.17.34a3.35,3.35,0,0,1-1.24-.4,4.15,4.15,0,0,1-1.13.49,2,2,0,0,0-.19-.28,4,4,0,0,0,1-.4,2.2,2.2,0,0,1-.56-.68,4.76,4.76,0,0,1-.69,1.12,1.84,1.84,0,0,0-.25-.21,4.11,4.11,0,0,0,.88-1.59h-.52Zm.09-1.24c0-.1,0-.2,0-.3.86,0,1.7-.1,2.5-.19l.06.3c-.6.06-1.44.13-2.51.19m.14.15.24-.14c.11.15.2.3.29.45l-.27.16a3.67,3.67,0,0,0-.26-.47m1.76,1.92-1.13,0a1.76,1.76,0,0,0,.56.59,2.36,2.36,0,0,0,.57-.61m-.93-2,.27-.11a5.2,5.2,0,0,1,.24.52l-.29.11c-.06-.16-.13-.33-.22-.52"/><path class="cls-7" d="M1393.62,2985.16l1.5-.26-.14-.79-1.81.32-.05-.29,1.8-.32-.11-.66.34-.06.11.66,1.82-.33.05.29-1.82.33.14.79,1.51-.27,0,.28-3.34.6Zm.16.67.32,0a9.66,9.66,0,0,1-.15,1.14l-.33,0a7.88,7.88,0,0,0,.16-1.13m.6,0,.33-.06.16.93a.22.22,0,0,0,.29.21l.87-.16c.2,0,.3-.13.31-.28a4.29,4.29,0,0,0,0-.51l.35.06c0,.21,0,.38,0,.52a.51.51,0,0,1-.49.49l-1,.19c-.34.06-.53-.09-.6-.44Zm.61-.31.23-.21c.24.21.49.44.72.67l-.24.24c-.25-.27-.49-.5-.71-.7m1.62,0,.23-.22c.25.24.5.5.76.78l-.26.25c-.26-.31-.51-.58-.73-.81"/><path class="cls-7" d="M1398.89,2983l.8-.3,0-.32-1.34.5.43,1.17a7.38,7.38,0,0,1,.41,1.36,3.32,3.32,0,0,1,0,1.08l-.32-.19a2.73,2.73,0,0,0,0-.9,6,6,0,0,0-.34-1.16l-.55-1.51,3.45-1.27.09.25-1.51.56,0,.32,1.27-.47.47,1.27-.27.1,0-.11-.7.26.11.29a.4.4,0,0,1-.25.59l-.41.14-.16-.25.4-.12c.14-.06.19-.15.13-.29l-.09-.26-.86.31.05.12-.28.1Zm.88,1.1.26.13c-.18.24-.4.5-.66.79a1.81,1.81,0,0,0-.27-.18,4.19,4.19,0,0,0,.67-.74m1.3-1.65-1.82.67.09.24,1.82-.67Zm-1.56,1.38,1.82-.68-.09-.24-1.82.67Zm-.06,1.28h.31a5.51,5.51,0,0,1,0,.91,1.48,1.48,0,0,0-.31,0,5.15,5.15,0,0,0,0-.87m.49-.16.28-.1.17.46a.27.27,0,0,0,.39.18l.45-.17a.32.32,0,0,0,.26-.34c0-.12,0-.25-.07-.41h.34c0,.17,0,.32.06.44s-.13.43-.44.54l-.56.21a.47.47,0,0,1-.69-.3Zm.6-.23.17-.22a4.92,4.92,0,0,1,.51.31l-.18.25a4.91,4.91,0,0,0-.5-.34m.55-.79.05-.27c.37,0,.74,0,1.1,0l0,.31c-.38,0-.76,0-1.12,0m.67.43.2-.22c.2.14.43.31.68.51l-.21.26a7.27,7.27,0,0,0-.67-.55"/><path class="cls-7" d="M1402.56,2982.13l1.37-.81-.27-.45-1,.59-.14-.24,1-.6-.27-.46.29-.17.27.46.88-.52.14.25-.88.52.27.45.35-.21a5.19,5.19,0,0,0,.43-1.49l.36,0a6.31,6.31,0,0,1-.34,1.19l1-.61.14.25-1.37.81a8.13,8.13,0,0,1-.4.77l1.43-.84,1,1.73-.28.17-.12-.22-1.67,1,.12.21-.28.16-.78-1.33c-.15.2-.3.41-.47.62l-.32-.17a10.23,10.23,0,0,0,1.26-1.8l-1.63,1Zm1.51.34.22.37,1.67-1-.24-.41-1.61.94s0,.05,0,.08m.6,1,1.66-1-.24-.42-1.67,1Z"/><path class="cls-7" d="M1407.86,2981l.21-.25-1.65-1.93-.21.18-.19-.22,1.37-1.18.19.22-.24.21,1.52,1.76.24-.3.21.2-.26.33.58.67-.23.2-.54-.62-.72.93Zm-.82-1.91.47-.4-.4-.46-.46.4Zm.59.68.46-.4-.4-.46-.46.39Zm-.24-2.33.07-.29a5.56,5.56,0,0,1,.77.16l-.09.32a6.77,6.77,0,0,0-.75-.19m.95,1.52.73-.63c-.12-.16-.28-.35-.48-.58l-.66.56-.2-.23.86-.74c0-.23-.1-.56-.2-1l.35-.09c0,.32.08.6.1.86l.53-.45.21.23-.75.64.49.58.86-.74.2.24-.83.71a2.56,2.56,0,0,0,1.84.38,2.81,2.81,0,0,0,0,.41,3,3,0,0,1-1.71-.39,2.53,2.53,0,0,1,.18,1.76l-.36-.05a2.15,2.15,0,0,0-.24-1.85l-.72.61Zm.32,1.07-.38-.44-.47.39.46.53.39-.48"/><path class="cls-7" d="M1410.86,2973.72l0,.15a4.34,4.34,0,0,0,2.23-.57l.11.39a5.17,5.17,0,0,1-.69.26l.19.15-1.55,1.9-.16-.14c0,.24-.06.5-.11.76l-.38,0a5.3,5.3,0,0,0,0-2.5Zm.07.48a4.88,4.88,0,0,1,.1,1.51l1.41-1.73a5.16,5.16,0,0,1-1.51.22m.51,2.31,1.85-2.26,1.44,1.18-.22.26-.21-.18-1.42,1.74.22.18-.21.26Zm1.87-1.81-1.42,1.74.76.62,1.42-1.74Z"/><path class="cls-7" d="M1413.54,2970.3a7.16,7.16,0,0,1,.47,2.41l-.38.05a5.42,5.42,0,0,0-.47-2.48l.22-.39,0,.12a4.25,4.25,0,0,0,2.17-1,3.24,3.24,0,0,0,.19.37,4.7,4.7,0,0,1-2.25.9m.41,1.56,1.12-2,.27.15-1.12,2Zm2.1-.88a13.87,13.87,0,0,1,1.39-.42l.08.35-.45.1-.91,1.93a1.36,1.36,0,0,0-.1.36h-.39a1.07,1.07,0,0,0,0-.4,5.35,5.35,0,0,0-.38-1l-.68,1.22-.27-.15,1.87-3.35.27.15-1,1.76c.17.43.31.82.43,1.2l.78-1.59-.58.17Z"/><path class="cls-7" d="M1362.71,2959.31a1,1,0,0,0,.2-.41,1.4,1.4,0,0,0,.07-.48c0-.46-.18-.68-.51-.67a.41.41,0,0,0-.25.08.78.78,0,0,0-.19.21c0,.09-.13.25-.24.49a1.92,1.92,0,0,1-.43.67.82.82,0,0,1-.48.17.74.74,0,0,1-.66-.31,1.34,1.34,0,0,1-.27-.82,1.55,1.55,0,0,1,.1-.72l.46,0a1.32,1.32,0,0,0-.18.76.91.91,0,0,0,.14.49.43.43,0,0,0,.36.18.46.46,0,0,0,.32-.15,2.83,2.83,0,0,0,.32-.58,2.1,2.1,0,0,1,.44-.69.83.83,0,0,1,.51-.21.77.77,0,0,1,.67.29,1.48,1.48,0,0,1,.27.87,2.68,2.68,0,0,1,0,.45,1.12,1.12,0,0,1-.12.39Z"/><path class="cls-7" d="M1363.41,2954.55l0,.42-1.34-.1q-.7,0-.75.48a.58.58,0,0,0,.18.46.8.8,0,0,0,.51.22l1.33.08,0,.42-3.46-.23,0-.42,1.51.1h0a.84.84,0,0,1-.39-.79c0-.53.37-.77,1-.72Z"/><path class="cls-7" d="M1362.78,2951.66l-.27,1.62a.91.91,0,0,0,.61-.11.74.74,0,0,0,.29-.5,1.2,1.2,0,0,0-.13-.76l.37.06a1.38,1.38,0,0,1,.07.85,1,1,0,0,1-.45.73,1.31,1.31,0,0,1-.92.13,1.28,1.28,0,0,1-.83-.46,1,1,0,0,1-.22-.82.93.93,0,0,1,.42-.66,1.2,1.2,0,0,1,.86-.12Zm-.39.35a.75.75,0,0,0-.51.07.52.52,0,0,0-.25.38.6.6,0,0,0,.12.46.82.82,0,0,0,.43.3Z"/><path class="cls-7" d="M1364.51,2949.24l-.11.4-1.28-.35c-.47-.13-.74,0-.84.32a.54.54,0,0,0,.08.48.74.74,0,0,0,.45.31l1.29.36-.11.4-2.26-.63.11-.4.37.11h0a.85.85,0,0,1-.23-.86.69.69,0,0,1,.4-.5,1.08,1.08,0,0,1,.74,0Z"/><polygon class="cls-7" points="1365.38 2946.91 1364.68 2948.73 1364.56 2948.68 1363.3 2946.74 1362.86 2947.9 1362.54 2947.78 1363.19 2946.07 1363.31 2946.11 1364.58 2948.04 1365.05 2946.78 1365.38 2946.91"/><path class="cls-7" d="M1366.5,2944.55l-.18.37-1.21-.59q-.63-.32-.87.15a.58.58,0,0,0,0,.5.82.82,0,0,0,.39.39l1.19.58-.18.38-3.11-1.54.18-.37,1.36.67h0a.87.87,0,0,1-.06-.88c.24-.47.64-.57,1.21-.29Z"/><path class="cls-7" d="M1367,2941.63l-.87,1.39a.82.82,0,0,0,.6.13.66.66,0,0,0,.46-.35,1.12,1.12,0,0,0,.17-.74l.32.19a1.39,1.39,0,0,1-.25.81,1,1,0,0,1-.7.51,1.32,1.32,0,0,1-.91-.24,1.29,1.29,0,0,1-.58-.73,1,1,0,0,1,.11-.85.9.9,0,0,1,.63-.45,1.22,1.22,0,0,1,.84.22Zm-.5.18a.78.78,0,0,0-.5-.14.54.54,0,0,0-.37.27.61.61,0,0,0-.07.46.86.86,0,0,0,.29.45Z"/><path class="cls-7" d="M1369.55,2940.06l-.25.33-1.06-.82c-.38-.29-.68-.3-.89,0a.55.55,0,0,0-.12.48.79.79,0,0,0,.3.45l1.06.82-.25.33-1.86-1.43.25-.33.31.23h0a.83.83,0,0,1,.12-.88.7.7,0,0,1,.55-.32,1.12,1.12,0,0,1,.69.29Z"/><path class="cls-7" d="M1372.91,2936.67l-.37.34-1-.3a1.27,1.27,0,0,0-.47-.06.46.46,0,0,0-.3.15l-.23.2.94,1-.3.29-2.25-2.4.73-.68a1.12,1.12,0,0,1,.71-.34.8.8,0,0,1,.64.28.88.88,0,0,1,.07,1.15h0a.53.53,0,0,1,.28,0,1.68,1.68,0,0,1,.44.09Zm-3.43-.79.79.85.36-.34a.62.62,0,0,0,.23-.44.56.56,0,0,0-.17-.45.47.47,0,0,0-.39-.18.68.68,0,0,0-.45.22Z"/><path class="cls-7" d="M1374.1,2934.42l-1.31,1a.82.82,0,0,0,.52.33.72.72,0,0,0,.56-.16,1.33,1.33,0,0,0,.42-.64l.22.29a1.34,1.34,0,0,1-.52.67,1,1,0,0,1-.82.23,1.26,1.26,0,0,1-.77-.54,1.28,1.28,0,0,1-.3-.89,1,1,0,0,1,.41-.75.9.9,0,0,1,.75-.21,1.24,1.24,0,0,1,.71.51Zm-.54,0a.71.71,0,0,0-.41-.3.53.53,0,0,0-.44.12.57.57,0,0,0-.23.4.88.88,0,0,0,.11.52Z"/><path class="cls-7" d="M1375,2934.52a1.11,1.11,0,0,0,.69-.17c.27-.17.35-.35.24-.52a.31.31,0,0,0-.21-.14,1.76,1.76,0,0,0-.48.06,1.3,1.3,0,0,1-.59,0,.65.65,0,0,1-.3-.25.61.61,0,0,1,0-.57,1.05,1.05,0,0,1,.44-.5,1.4,1.4,0,0,1,.53-.21l.22.34a1,1,0,0,0-.6.17.55.55,0,0,0-.23.25.27.27,0,0,0,0,.26.25.25,0,0,0,.19.13,1.36,1.36,0,0,0,.45,0,1.31,1.31,0,0,1,.61,0,.58.58,0,0,1,.32.26.56.56,0,0,1,0,.57,1.17,1.17,0,0,1-.48.52,1.33,1.33,0,0,1-.61.22Z"/><path class="cls-7" d="M1378.58,2932.9a1.28,1.28,0,0,1-.5.44,1.06,1.06,0,0,1-.88.09,1.2,1.2,0,0,1-.67-.61,1.3,1.3,0,0,1-.13-1,1.32,1.32,0,0,1,1.17-.88l.19.36a.94.94,0,0,0-.57.09.78.78,0,0,0-.4.49,1,1,0,0,0,.1.69.92.92,0,0,0,.48.46.76.76,0,0,0,.62-.06,1,1,0,0,0,.41-.44Z"/><path class="cls-7" d="M1381.05,2932l-.38.15-.14-.34h0a.77.77,0,0,1-.51.67c-.51.21-.9,0-1.15-.61l-.53-1.3.38-.15.51,1.24q.27.66.78.45a.55.55,0,0,0,.33-.35.76.76,0,0,0,0-.53l-.51-1.25.39-.16Z"/><path class="cls-7" d="M1383.4,2930l-1.57.46a.8.8,0,0,0,.36.5.71.71,0,0,0,.58,0,1.11,1.11,0,0,0,.62-.45l.11.36a1.4,1.4,0,0,1-.73.44,1,1,0,0,1-.85-.09,1.28,1.28,0,0,1-.53-.77,1.31,1.31,0,0,1,0-.94,1,1,0,0,1,.65-.56.92.92,0,0,1,.77.08,1.27,1.27,0,0,1,.48.73Zm-.49-.21a.81.81,0,0,0-.28-.43.54.54,0,0,0-.45,0,.59.59,0,0,0-.37.29.92.92,0,0,0-.08.53Z"/><path class="cls-7" d="M1388,2927.12l-.79,3.41-.47.06-1.58-3.11.47-.06,1.2,2.43c0,.09.07.18.1.29h0a1.71,1.71,0,0,1,0-.31l.58-2.65Z"/><path class="cls-7" d="M1388.44,2929.24a1.28,1.28,0,0,1,.3-.93,1.16,1.16,0,0,1,.87-.35,1.09,1.09,0,0,1,.84.3,1.27,1.27,0,0,1,.32.88,1.26,1.26,0,0,1-.3.91,1.12,1.12,0,0,1-.85.36,1.06,1.06,0,0,1-.84-.31,1.18,1.18,0,0,1-.34-.86m.42,0a.9.9,0,0,0,.23.64.71.71,0,0,0,.55.22.69.69,0,0,0,.54-.24,1.08,1.08,0,0,0,.17-.66,1,1,0,0,0-.21-.66.65.65,0,0,0-.54-.21.7.7,0,0,0-.55.25,1.05,1.05,0,0,0-.19.66"/><rect class="cls-7" x="1390.11" y="2928.44" width="3.47" height="0.41" transform="translate(-1604.09 4169.06) rotate(-87.07)"/><path class="cls-7" d="M1394.79,2930.69l-.41-.05,0-.37h0a.77.77,0,0,1-.77.33c-.55-.07-.78-.44-.69-1.09l.17-1.4.41.06-.17,1.33q-.09.7.45.78a.54.54,0,0,0,.46-.15.79.79,0,0,0,.24-.48l.17-1.34.41.06Z"/><path class="cls-7" d="M1397.59,2931.31l-.4-.1.31-1.29c.11-.47,0-.75-.35-.83a.58.58,0,0,0-.48.09.77.77,0,0,0-.29.46l-.31,1.31-.41-.1.54-2.28.41.1-.09.37h0a.85.85,0,0,1,.85-.25.69.69,0,0,1,.51.38,1,1,0,0,1,0,.74Z"/><path class="cls-7" d="M1399.48,2931.89a.72.72,0,0,1-.37,0c-.39-.13-.52-.42-.38-.86l.43-1.29-.39-.12.11-.33.38.13.18-.54h.43l-.22.67.56.18-.11.32-.55-.18-.4,1.22a.53.53,0,0,0,0,.34.34.34,0,0,0,.21.17.39.39,0,0,0,.26,0Z"/><path class="cls-7" d="M1402.24,2931.89l-1.51-.64a.84.84,0,0,0,0,.62.69.69,0,0,0,.42.4,1.23,1.23,0,0,0,.76.05l-.14.34a1.44,1.44,0,0,1-.84-.12,1,1,0,0,1-.61-.61,1.34,1.34,0,0,1,.08-.93,1.38,1.38,0,0,1,.64-.7,1,1,0,0,1,.85,0,.91.91,0,0,1,.55.55,1.23,1.23,0,0,1-.08.87Zm-.25-.47a.72.72,0,0,0,0-.51.49.49,0,0,0-.31-.32.55.55,0,0,0-.47,0,.86.86,0,0,0-.4.36Z"/><path class="cls-7" d="M1404.64,2933.15l-1.44-.78a.86.86,0,0,0-.1.61.74.74,0,0,0,.38.44,1.24,1.24,0,0,0,.76.12l-.18.33a1.4,1.4,0,0,1-.82-.2,1,1,0,0,1-.55-.66,1.33,1.33,0,0,1,.18-.92,1.28,1.28,0,0,1,.7-.64,1,1,0,0,1,.84.07.9.9,0,0,1,.5.6,1.26,1.26,0,0,1-.17.85Zm-.21-.49a.68.68,0,0,0,.1-.5.49.49,0,0,0-.28-.35.57.57,0,0,0-.46,0,.89.89,0,0,0-.43.32Z"/><path class="cls-7" d="M1406.85,2933.55a.58.58,0,0,0-.2-.22.47.47,0,0,0-.46,0,1.1,1.1,0,0,0-.46.41l-.64,1-.35-.23,1.28-2,.35.22-.26.4h0a.64.64,0,0,1,.8-.1.65.65,0,0,1,.17.15Z"/><path class="cls-7" d="M1406.48,2935a1.18,1.18,0,0,0,.4.59c.26.2.45.21.58,0a.26.26,0,0,0,0-.24,1.75,1.75,0,0,0-.21-.43,1.23,1.23,0,0,1-.21-.55.6.6,0,0,1,.13-.37.59.59,0,0,1,.51-.23,1.05,1.05,0,0,1,.63.24,1.51,1.51,0,0,1,.38.42l-.24.32a1.16,1.16,0,0,0-.38-.5.5.5,0,0,0-.3-.12.25.25,0,0,0-.24.1.26.26,0,0,0-.06.23,1.44,1.44,0,0,0,.19.4,1.39,1.39,0,0,1,.24.57.59.59,0,0,1-.13.39.58.58,0,0,1-.52.24,1.17,1.17,0,0,1-.65-.27,1.34,1.34,0,0,1-.43-.5Z"/><polygon class="cls-7" points="1412.37 2937.07 1411.48 2936.16 1410.7 2936.93 1411.53 2937.77 1411.26 2938.03 1410.44 2937.19 1409.41 2938.2 1409.12 2937.9 1411.46 2935.59 1412.64 2936.8 1412.37 2937.07"/><path class="cls-7" d="M1412.81,2940.45l-1-1.28a.84.84,0,0,0-.32.53.67.67,0,0,0,.18.55,1.14,1.14,0,0,0,.66.4l-.29.24a1.48,1.48,0,0,1-.69-.5,1,1,0,0,1-.25-.82,1.33,1.33,0,0,1,.51-.78,1.24,1.24,0,0,1,.89-.32,1,1,0,0,1,.76.38.88.88,0,0,1,.22.74,1.18,1.18,0,0,1-.47.72Zm0-.54a.75.75,0,0,0,.29-.42.55.55,0,0,0-.14-.44.57.57,0,0,0-.41-.21.85.85,0,0,0-.52.12Z"/><path class="cls-7" d="M1413.52,2943.39l-.23-.35.33-.22h0a.87.87,0,0,1-.82-.42.89.89,0,0,1-.12-.77,1.32,1.32,0,0,1,.57-.69,1.38,1.38,0,0,1,.94-.26.94.94,0,0,1,.72.45.76.76,0,0,1,.07.79h0l1.2-.79.23.35Zm.94-1.12a.63.63,0,0,0,.29-.41.61.61,0,0,0-.09-.49.65.65,0,0,0-.49-.3,1.11,1.11,0,0,0-.67.22.93.93,0,0,0-.42.49.65.65,0,0,0,.54.82.78.78,0,0,0,.57-.15Z"/><path class="cls-7" d="M1415.8,2945.36l-.76-1.46a.89.89,0,0,0-.42.45.72.72,0,0,0,.07.58,1.2,1.2,0,0,0,.56.53l-.33.17a1.36,1.36,0,0,1-.57-.63,1,1,0,0,1-.09-.85,1.38,1.38,0,0,1,.66-.67,1.31,1.31,0,0,1,.94-.13,1,1,0,0,1,.67.53.92.92,0,0,1,.07.77,1.22,1.22,0,0,1-.62.61Zm.1-.52a.7.7,0,0,0,.36-.36.54.54,0,0,0,0-.46.61.61,0,0,0-.37-.29.88.88,0,0,0-.53,0Z"/><path class="cls-7" d="M1417.4,2946.92a.45.45,0,0,0,0-.29.46.46,0,0,0-.36-.28,1,1,0,0,0-.61.09l-1.1.46-.15-.38,2.16-.91.16.38-.44.18h0a.65.65,0,0,1,.72.37.76.76,0,0,1,0,.21Z"/><path class="cls-7" d="M1417.91,2947.57a1.56,1.56,0,0,1,.46.7.78.78,0,0,1-.58,1.09l-1.44.47-.13-.39.35-.12h0a.84.84,0,0,1-.61-1.12.63.63,0,0,1,.41-.35c.42-.14.74,0,1,.5l.31.63c.36-.12.5-.33.4-.63a1.23,1.23,0,0,0-.51-.64Zm-.81,1a.71.71,0,0,0-.26-.33.39.39,0,0,0-.32,0,.38.38,0,0,0-.22.19.49.49,0,0,0,0,.34.57.57,0,0,0,.32.36.69.69,0,0,0,.51,0l.21-.07Z"/><path class="cls-7" d="M1416.85,2951.75a.83.83,0,0,1-.16-.34c-.09-.41.08-.67.54-.78l1.31-.31-.09-.39.34-.08.09.39.55-.13.22.37-.67.16.13.57-.33.08-.14-.57-1.24.3a.56.56,0,0,0-.31.15.32.32,0,0,0,0,.28.38.38,0,0,0,.13.22Z"/><path class="cls-7" d="M1417,2952.42l2.31-.41.07.41-2.31.41Zm3.11-.6a.28.28,0,0,1,.2,0,.27.27,0,0,1,.1.17.24.24,0,0,1,0,.2.26.26,0,0,1-.17.11.22.22,0,0,1-.19-.05.26.26,0,0,1-.11-.17.28.28,0,0,1,0-.2.27.27,0,0,1,.17-.1"/><path class="cls-7" d="M1418.31,2953.47a1.25,1.25,0,0,1,.94.23,1.17,1.17,0,0,1,.43.84,1.12,1.12,0,0,1-.24.86,1.26,1.26,0,0,1-.87.38,1.25,1.25,0,0,1-.92-.23,1.08,1.08,0,0,1-.42-.82,1.12,1.12,0,0,1,.24-.87,1.26,1.26,0,0,1,.84-.39m.06.42a.91.91,0,0,0-.62.26.72.72,0,0,0-.18.57.66.66,0,0,0,.28.52,1,1,0,0,0,.67.12,1.07,1.07,0,0,0,.64-.25.68.68,0,0,0,.17-.56.69.69,0,0,0-.29-.53,1,1,0,0,0-.67-.13"/><path class="cls-7" d="M1417.4,2958.59v-.41l1.34,0c.48,0,.72-.16.73-.51a.6.6,0,0,0-.2-.46.72.72,0,0,0-.51-.18l-1.34,0v-.42l2.34,0v.42h-.39a.86.86,0,0,1,.43.77.73.73,0,0,1-.26.59,1.16,1.16,0,0,1-.72.19Z"/></g><path class="cls-4" d="M1398,2944.44l-8.54,9.38a1.84,1.84,0,0,0-.17.22c-1.22,1.44-3.44,3.93-6.33,2.7-2.21-.95-3.68-3.59-6.1-4.21a4.22,4.22,0,0,0-5.09,3.87c2.74.07,4.53,1.61,4.94,5.33.44,4,1.11,6.7,3.17,8.56a9.92,9.92,0,0,0,13.19,1,9.43,9.43,0,0,0,.93-.73c2.19-2,4.33-4.19,5.75-5.68a1.15,1.15,0,0,0,.23-.21l.88-1,.6-.65h0l7.08-7.77a1.59,1.59,0,1,0-2.35-2.14l-7.41,8.14a.38.38,0,0,1-.47,0,.37.37,0,0,1,0-.53l.59-.65h0l8.55-9.39a1.59,1.59,0,0,0-2.35-2.14l-8.49,9.34h0l-.47.53a.47.47,0,0,1-.67,0,.46.46,0,0,1,0-.66l.22-.24.13-.13,8.55-9.39a1.59,1.59,0,0,0-2.35-2.14l-8.54,9.39-.11.13,0,0a.38.38,0,0,1-.53,0,.37.37,0,0,1-.06-.48l7.68-8.44a1.58,1.58,0,0,0-.11-2.24,1.54,1.54,0,0,0-1.06-.41,1.56,1.56,0,0,0-1.18.52"/><g class="cls-15"><rect class="cls-16" x="1367.1" y="2934.88" width="46.67" height="47.51" transform="translate(-1759.38 2083.71) rotate(-49.3)"/></g><g class="cls-11"><polygon class="cls-7" points="1403.63 2961.15 1401.75 2957.59 1395.64 2960.83 1395.64 2953.9 1391.56 2953.9 1391.56 2960.73 1385.63 2957.38 1383.65 2960.88 1389.41 2964.13 1383.57 2967.23 1385.45 2970.78 1391.56 2967.55 1391.56 2974.49 1395.64 2974.49 1395.64 2967.65 1401.57 2971 1403.55 2967.5 1397.79 2964.25 1403.63 2961.15"/></g><use transform="translate(300.98 2255.73) scale(0.94)" xlink:href="#image-2"/><text class="cls-17" transform="translate(753.5 2203.03)">救援现场</text><use transform="translate(323.82 3114.79)" xlink:href="#image"/><g class="cls-18"><image width="3200" height="2400" transform="translate(316.47 3017.85) scale(0.36)" xlink:href="../../%E7%94%9F%E5%91%BD%E5%8B%8B%E7%AB%A0%20%E7%85%A7%E7%89%87/2016-5-17-%E6%8E%92%E7%89%99%E5%B1%B1%E5%9D%A0%E5%B4%96%E5%A4%A7%E8%90%A5%E6%95%91/PIC_20160518_104128_440.JPG"/></g><path class="cls-6" d="M1389.74,3701.39c10.8,7.07,28.67,10.93,41,2.9l13.93,15.72c-11.16,9.55-12.87,23.39-8,33.56,19.35,37.12,14.43,61.69-26.07,78.25-8.19,3.66-17.71,9.28-20.83,12.64-3.13-3.36-12.61-9-20.81-12.64-40.5-16.56-45.41-41.13-26.06-78.25,4.8-10.17,3.08-24-8-33.56l13.93-15.72c12.29,8,30.16,4.17,41-2.9Z"/><path class="cls-7" d="M1388.73,3837.27c-5-4.43-9.92-6.31-22.29-12.46h0c-10.34-5.12-17.52-10.61-22.15-16.64h0a31.12,31.12,0,0,1-6.62-19.55h0c0-9.76,3.81-20.24,9.37-31.82h0a38.59,38.59,0,0,0,3.59-15.81h0a28.84,28.84,0,0,0-7.74-20h0l-.91-1,7.7-9,1,.32a57.11,57.11,0,0,0,17.49,3.17h0c8.89,0,14.57-3.06,21-6h0l.63-.28.63.28c6.41,2.92,12.09,6,21,6h0a57.32,57.32,0,0,0,17.52-3.17h0l1-.32,7.65,9-.9,1a28.9,28.9,0,0,0-7.75,20h0a38.61,38.61,0,0,0,3.59,15.78h0c5.57,11.61,9.38,22.1,9.39,31.87h0a31.1,31.1,0,0,1-6.62,19.54h0c-4.63,6-11.82,11.51-22.16,16.63h0c-12.36,6.15-17.3,8-22.3,12.46h0l-1,.91-1-.91Zm-38.93-79.18c-5.5,11.44-9.08,21.59-9.08,30.53h0a28,28,0,0,0,6,17.69h0c4.23,5.52,11,10.78,21.08,15.76h0c11.46,5.72,16.79,7.78,22,12.06h0c5.19-4.27,10.48-6.34,22-12.06h0c10.08-5,16.86-10.23,21.09-15.75h0a28,28,0,0,0,6-17.68h0c0-8.95-3.59-19.1-9.1-30.55h0v0a41.64,41.64,0,0,1-3.87-17.07h0a31.91,31.91,0,0,1,7.65-21h0l-4.61-5.44a59.33,59.33,0,0,1-17.48,3h0c-9.33,0-15.57-3.18-21.62-6h0c-6,2.78-12.29,6-21.61,6h0a58.51,58.51,0,0,1-17.45-3h0L1346,3720a31.91,31.91,0,0,1,7.65,21h0a41.64,41.64,0,0,1-3.87,17.07h0l0,0Z"/><path class="cls-8" d="M1389.75,3709.92c9.68,4.39,18.61,9.63,39.61,2.86l6.12,7.23c-11,12-9.17,27-4.41,37.42,13.42,27.94,16.08,48.81-18.69,66-12.29,6.12-17.36,8-22.63,12.69-5.23-4.66-10.34-6.57-22.63-12.69-34.73-17.2-32.11-38.07-18.69-66,4.76-10.44,6.55-25.38-4.41-37.42l6.16-7.23c21,6.77,29.89,1.53,39.57-2.86Z"/><path class="cls-9" d="M1411.79,3750.85l-3.13.63a36.44,36.44,0,0,1,9.07,7.38l3.1.24c-.93-1.15-1.9-2.22-2.91-3.25a39.84,39.84,0,0,0-6.13-5Zm-2.91,66.79.52-3.49a35.94,35.94,0,0,1-9.27,4l-1.75,3.33a39.24,39.24,0,0,0,10.5-3.89Zm12.59-10.79-.79-3.46a37,37,0,0,1-8.48,8.9l-.33,3,.71.08a40.75,40.75,0,0,0,5.34-4.48,47.18,47.18,0,0,0,3.55-4.05Zm6.69-13.77-1.91-2.86a36.23,36.23,0,0,1-3.7,10.16l.94,3.53a38.94,38.94,0,0,0,4.67-10.83Zm.74-15.68-2.61-1.23a34.65,34.65,0,0,1,.67,6.9,33.38,33.38,0,0,1-.15,3.34l2,2.77.11-.07a36,36,0,0,0,.45-5.72h0a39.46,39.46,0,0,0-.49-6Zm-5.75-15.12-3-.32a35.22,35.22,0,0,1,5.31,10.76l2.57,1.07.08-.16A39.3,39.3,0,0,0,1423.15,3762.28Z"/><path class="cls-10" d="M1430.47,3800.34v-8.69l3.18-2.42a43,43,0,0,1-3.18,11.11Zm0-12.22v-12.31l2.09-4.2a42.49,42.49,0,0,1,1.53,11.46c0,1,0,1.87-.07,2.78l-3.55,2.27Zm0-18.46v-3.93c.34.75.67,1.55,1,2.34Zm-8.59-16.79a44.59,44.59,0,0,0-11.54-8.61l1.42,5.59.07.32a37.12,37.12,0,0,1,6.46,5.24,40.64,40.64,0,0,1,3,3.3v-.24l.6-5.6Zm8.59,12.86v3.93l-1.87,3.18-.07.11a38.69,38.69,0,0,0-4.63-10.55h.22l.19-6.75a42.45,42.45,0,0,1,6.16,10.08Zm0,10.08v12.31l-.89.55a27.4,27.4,0,0,0,.33-3.53c0-.67,0-1.39,0-2.07a39.94,39.94,0,0,0-.22-4.28,38,38,0,0,1,.22,5c0,.44,0,.83,0,1.27,0-.55,0-1.11,0-1.67h0a39.31,39.31,0,0,0-.34-5.24v0a.35.35,0,0,1,0-.15v0c0-.08,0-.16,0-.24h0v0l.89-1.83Zm0,15.84v8.69c-.33.75-.67,1.51-1,2.26l-5.16,1.15a39.23,39.23,0,0,0,4.52-10.79l1.68-1.31ZM1398.9,3822l4,2.78a43.57,43.57,0,0,0,13.22-6.59h-7.06a39.14,39.14,0,0,1-10.2,3.81Zm20.14-6.11a44.88,44.88,0,0,0,8.71-10.28l-6.06,1.86a35.46,35.46,0,0,1-3.4,3.85,37.21,37.21,0,0,1-4.78,4.13Z"/><path class="cls-9" d="M1368.47,3750.85a40.24,40.24,0,0,0-6.12,5c-1,1-2,2.1-2.91,3.25l3.1-.24a36.49,36.49,0,0,1,9.08-7.38l-3.15-.63Zm2.92,66.79a39.24,39.24,0,0,0,10.5,3.89l-1.76-3.33a36.17,36.17,0,0,1-9.26-4l.52,3.49Zm-12.59-10.79a47.18,47.18,0,0,0,3.55,4.05,40.75,40.75,0,0,0,5.34,4.48l.71-.08-.34-3a37.17,37.17,0,0,1-8.48-8.9l-.78,3.46Zm-6.69-13.77a38.94,38.94,0,0,0,4.67,10.83l.93-3.53a36.84,36.84,0,0,1-3.69-10.16l-1.91,2.86Zm-.74-15.68a39.46,39.46,0,0,0-.49,6h0a36,36,0,0,0,.45,5.72l.11.07,2-2.77a33.38,33.38,0,0,1-.15-3.34,34.65,34.65,0,0,1,.67-6.9l-2.61,1.23Zm.78-3.77.08.16,2.57-1.07a35.22,35.22,0,0,1,5.31-10.76l-3,.32A39,39,0,0,0,1352.15,3773.63Z"/><path class="cls-10" d="M1349.8,3800.34a43,43,0,0,1-3.18-11.11l3.18,2.42v8.69Zm0-12.22-3.55-2.27c0-.91-.08-1.82-.08-2.78a42.89,42.89,0,0,1,1.54-11.46l2.09,4.2v12.31Zm-1-20c.3-.79.64-1.59,1-2.34v3.93Zm9.57-15.2.6,5.6v.24a42.45,42.45,0,0,1,3-3.3,37.19,37.19,0,0,1,6.47-5.24l.07-.32,1.42-5.59a44.42,44.42,0,0,0-11.54,8.61Zm-8.59,12.86a42.45,42.45,0,0,1,6.16-10.08l.19,6.75h.22a38.69,38.69,0,0,0-4.63,10.55l-.07-.11-1.87-3.18v-3.93Zm0,10.08.89,1.83v0h0c0,.08,0,.16,0,.24v0a.27.27,0,0,1,0,.15v0a41.07,41.07,0,0,0-.33,5.24h0c0,.56,0,1.12,0,1.67,0-.44,0-.83,0-1.27a36.39,36.39,0,0,1,.23-5,37.47,37.47,0,0,0-.23,4.28c0,.68,0,1.4,0,2.07a25.73,25.73,0,0,0,.33,3.53l-.89-.55v-12.31Zm0,15.84,1.68,1.31a39.23,39.23,0,0,0,4.52,10.79l-5.16-1.15c-.37-.75-.71-1.51-1-2.26v-8.69Zm31.56,30.36a39.07,39.07,0,0,1-10.19-3.81h-7.07a43.62,43.62,0,0,0,13.23,6.59l4-2.78Zm-14.6-6.55a38,38,0,0,1-4.79-4.13,36.47,36.47,0,0,1-3.39-3.85l-6.06-1.86a44.64,44.64,0,0,0,8.71,10.28Z"/><path class="cls-7" d="M1371.57,3726.23a2.18,2.18,0,0,0-2.49-2.33c-1.6.11-2.43.78-2.49,2s.83,1.89,2.82,2.16a2.91,2.91,0,0,1,.42.08c3.6.72,5.37,2.14,5.31,4.24q-.08,4.82-6.56,5c-4,0-5.95-1.69-5.89-5.06H1366a2.48,2.48,0,0,0,2.57,2.82c2-.06,3-.72,3.08-2,0-1.06-1-1.77-2.91-2.16a2.45,2.45,0,0,1-.58-.17q-5.07-1.15-5.07-4.23c.17-3.16,2.3-4.84,6.4-5.07q5,.26,5.23,4.74Z"/><path class="cls-7" d="M1380.62,3737.18h-3.32v-15.36h6.56q5.23.09,5.31,4a3.67,3.67,0,0,1-3.15,3.74v.08q2.58.09,2.74,3.4a2.6,2.6,0,0,1,.08.5,9.18,9.18,0,0,0,.83,3.65h-3.57a20.66,20.66,0,0,1-.58-4.15c-.11-1.32-.58-2-1.41-2h-3.49Zm0-8.71h2.74c1.55,0,2.33-.72,2.33-2.16s-.78-2-2.33-1.91h-2.74Z"/><path class="cls-7" d="M1390.42,3721.82H1394l4,12.13h.09l4-12.13h3.24l-5.65,15.36h-3.56Z"/><path class="cls-7" d="M1406.94,3737.18v-15.36h9.88v2.58h-6.64v3.65h6.22v2.58h-6.22v6.55Z"/><g class="cls-19"><path class="cls-12" d="M1424.18,3782.78a34.13,34.13,0,1,1-34.13-34.23,34.18,34.18,0,0,1,34.13,34.23"/><path class="cls-7" d="M1390.05,3749.1a33.68,33.68,0,1,0,33.67,33.68,33.71,33.71,0,0,0-33.67-33.68m32.71,33.68a32.71,32.71,0,1,1-32.71-32.72,32.75,32.75,0,0,1,32.71,32.72"/><path class="cls-7" d="M1413.51,3782.78a23.46,23.46,0,1,1-23.45-23.46,23.45,23.45,0,0,1,23.45,23.46"/></g><g class="cls-20"><rect class="cls-21" x="1369.47" y="3762.19" width="41.16" height="41.18"/></g><g class="cls-19"><polygon class="cls-7" points="1362.73 3788.53 1363.24 3789.56 1364.38 3789.72 1363.56 3790.53 1363.75 3791.66 1362.73 3791.12 1361.72 3791.66 1361.91 3790.53 1361.09 3789.72 1362.22 3789.56 1362.73 3788.53"/><polygon class="cls-7" points="1417.38 3788.53 1417.88 3789.56 1419.02 3789.72 1418.2 3790.53 1418.39 3791.66 1417.38 3791.12 1416.36 3791.66 1416.55 3790.53 1415.73 3789.72 1416.87 3789.56 1417.38 3788.53"/><path class="cls-7" d="M1364.47,3795.35c0,.13,0,.25,0,.37l-1.64.36,0-.38a14.29,14.29,0,0,0,1.65-.35m.74,3.67-.37-.06a3.68,3.68,0,0,1,.48-1.58l-1.34.75-.16-.29,1.35-.75a4.35,4.35,0,0,1-1.69-.48,3.47,3.47,0,0,0,.1-.34,4.61,4.61,0,0,0,1.74.63l-.57-1,.27-.15.61,1.1.46-.26.16.29-.46.26.63,1.12-.27.15-.59-1.07a3.9,3.9,0,0,0-.35,1.7m.12-4.59c0,.36,0,.69-.09,1l-.35-.06c0-.29.1-.62.13-1Zm1.22,1.62-.09.3a10.11,10.11,0,0,1-1.17-.48,2.92,2.92,0,0,0,.14-.31,6.36,6.36,0,0,0,1.12.49m-.22-2c0,.37-.08.71-.12,1l-.36-.07c.08-.4.14-.74.17-1Zm.27.9,1.31,2.35-.6.34-.17-.29.33-.19-1-1.76-.34.19-.16-.3Zm0,1.7.29.07q-.06.63-.15,1.23l-.34-.07a9.86,9.86,0,0,0,.2-1.23"/><path class="cls-7" d="M1366.28,3799.54l.5.36,1-.86-.33-.41.23-.19.34.41.78-.64.2.24-.78.64.32.4-.23.19-.33-.4-1,.8.48.34-.24.21-1.24-.82Zm3.22-.47.21.25-1.16.95a5.46,5.46,0,0,1-1.28.86,2.27,2.27,0,0,1-1.22.12,2.33,2.33,0,0,0,.06-.35,1.94,1.94,0,0,0,1.09-.1,4.94,4.94,0,0,0,1.14-.78Zm.47.83.21.24-2.71,2.22-.2-.25Zm.72.63.21.25-3.08,2.52-.2-.25Z"/><path class="cls-7" d="M1369.64,3804.57l-.24-.22,1.4-1.64,1.13,1,.38-.43-1.4-1.21.2-.24,1.48,1.27a5.31,5.31,0,0,0,.12-.6l.34.1a6.17,6.17,0,0,1-.1.62l-.3-.07,1.54,1.31-.21.25-1.42-1.22-.37.44,1.15,1-1,1.19a.45.45,0,0,1-.72.07l-.44-.4.17-.29c.16.16.3.29.41.38a.23.23,0,0,0,.38,0l.77-.9-.9-.77-1.49,1.73-.26-.22,1.49-1.73-.88-.76Z"/><path class="cls-7" d="M1376.11,3807.8q.12,1,.15,1.74l-.38,0c0-.15,0-.31,0-.47-.82-.43-1.48-.77-2-1a2,2,0,0,0-.37-.13l0-.41a1,1,0,0,0,.42,0,9.17,9.17,0,0,0,1.76-.9l.23.33a18.51,18.51,0,0,1-1.8.87l1.72.92c0-.29,0-.59-.07-.92ZM1374,3806a4.74,4.74,0,0,0,2.11-.84l.22.29a5.78,5.78,0,0,1-2.23.92,1.86,1.86,0,0,0-.1-.37m2.92-.29.32.05a3.34,3.34,0,0,0,.43,2.26,2.52,2.52,0,0,0-.39.15,3.87,3.87,0,0,1-.36-2.46"/><path class="cls-7" d="M1377.81,3810l.57.21.49-1.32,2.75,1-.49,1.31.54.2-.1.28-3.86-1.43Zm2.23-1.74.09.33c-.5.09-1.05.18-1.65.25a1.72,1.72,0,0,0-.06-.34,12.58,12.58,0,0,0,1.62-.24m-1.38,2,.54.2.39-1.05-.54-.2Zm.22-2.93,2.14.79a6.81,6.81,0,0,0,1-.51l.23.28c-.26.14-.51.27-.77.39l1.16.42-.1.28-3.71-1.37Zm.6,3.23.55.2.38-1-.54-.2Zm.22-3.56.28-.13c.16.24.31.48.43.7l-.31.15a6.65,6.65,0,0,0-.4-.72m1.53,3-.54-.2-.39,1.05.55.2Zm-.37-1.23.25-.17c.43.43.8.83,1.1,1.18l-.28.23c-.41-.49-.76-.9-1.07-1.24"/><path class="cls-7" d="M1383.37,3808.93l.83.14.13-.69.3,0-.12.7.87.15-.06.3-.86-.16-.26,1.46.2-.14.58.78-.28.2c-.17-.27-.34-.52-.52-.76l-.15.89c-.07.36-.26.52-.58.46l-.52-.1v-.38a3.25,3.25,0,0,0,.47.12c.19,0,.3,0,.34-.24l.14-.78-.83.54-.16-.29c.33-.18.63-.36.89-.53l.11.21.26-1.49-.83-.15Zm-.08.71.29-.11.3.76-.31.11c-.09-.28-.19-.53-.28-.76m1.65.16.24.21-.6.59-.22-.23a5.26,5.26,0,0,0,.58-.57m0,.78a8.47,8.47,0,0,0,1.1-1.89l.28.13c-.09.21-.19.43-.3.64l1.28.22,0,.3-.32-.06a3.91,3.91,0,0,1-.9,1.8,2.79,2.79,0,0,0,.79.9,2.94,2.94,0,0,0-.25.26,3.34,3.34,0,0,1-.8-.94,3.66,3.66,0,0,1-1.21.63l-.15-.31a3.28,3.28,0,0,0,1.22-.63,3.31,3.31,0,0,1-.22-1.18c-.08.11-.15.22-.24.33l-.23-.2m-.19-1.89.21-.17.4.42-.24.19a3.75,3.75,0,0,0-.37-.44m1,1.3a3.68,3.68,0,0,0,.17,1.4,3.55,3.55,0,0,0,.74-1.52l-.76-.13-.15.25"/><path class="cls-7" d="M1388,3811.17l.53-.21,0-.95h-.5v-.3h.5l0-.77h.31v.77h.49v.3h-.49v.84l.4-.17s0,.11,0,.32l-.44.19,0,1.39q0,.42-.36.45h-.37c0-.11,0-.23-.06-.35h.32c.11,0,.16-.06.16-.18l0-1.2-.47.21Zm1.38-.41h.59c0-.1,0-.21.07-.33h-.58v-.27l1.7,0c.13-.21.25-.45.37-.69l.3.16-.35.53h.56v.27l-1.7,0c0,.11,0,.22-.06.33l1.83,0v.27l-1.9,0-.11.33,1.63,0v.27a2.88,2.88,0,0,1-.65.78,3.07,3.07,0,0,0,1.12.27l-.16.33a3.23,3.23,0,0,1-1.25-.39,3.94,3.94,0,0,1-1.12.48l-.19-.28a4.1,4.1,0,0,0,1-.39,2.29,2.29,0,0,1-.56-.68,4.76,4.76,0,0,1-.69,1.12,2.76,2.76,0,0,0-.25-.21,4.11,4.11,0,0,0,.87-1.59h-.51Zm.09-1.24c0-.09,0-.19-.06-.29.87,0,1.71-.1,2.51-.2l.06.3c-.6.07-1.44.13-2.51.19m.13.16.25-.14c.1.14.2.29.29.44l-.27.16a2.4,2.4,0,0,0-.27-.46m1.77,1.92-1.14,0a2,2,0,0,0,.56.59,2.39,2.39,0,0,0,.58-.61m-.93-2,.27-.11a4.08,4.08,0,0,1,.23.51l-.28.12a4.48,4.48,0,0,0-.22-.52"/><path class="cls-7" d="M1393.33,3810.53l1.49-.27-.13-.79-1.81.32-.05-.28,1.8-.33-.12-.65.34-.06.12.65,1.81-.32.06.29-1.82.32.14.79,1.5-.27.06.29-3.35.6Zm.15.66.33,0q-.06.64-.15,1.14a1.66,1.66,0,0,0-.33,0,8,8,0,0,0,.15-1.14m.61,0,.32-.06.17.94a.22.22,0,0,0,.29.2l.87-.15c.19,0,.3-.13.31-.28a3.12,3.12,0,0,0,0-.52,2,2,0,0,0,.35.06,4.11,4.11,0,0,1,0,.53c0,.27-.17.43-.49.49l-1,.18a.46.46,0,0,1-.6-.44Zm.61-.3.22-.22c.25.22.49.44.73.68l-.24.24a9.2,9.2,0,0,0-.71-.7m1.61,0,.23-.21c.26.24.51.5.76.78l-.25.24c-.26-.31-.51-.58-.74-.81"/><path class="cls-7" d="M1398.6,3808.31l.8-.29,0-.32-1.34.5.43,1.17a7.34,7.34,0,0,1,.4,1.35,2.83,2.83,0,0,1,0,1.08l-.31-.18a3,3,0,0,0,0-.9,6.05,6.05,0,0,0-.34-1.17l-.56-1.5,3.45-1.28.1.26-1.52.56,0,.32,1.28-.48.47,1.28-.27.1,0-.11-.7.25.11.3a.4.4,0,0,1-.25.59l-.41.14c0-.08-.1-.16-.16-.26l.4-.12a.2.2,0,0,0,.13-.29l-.1-.26-.85.32,0,.11-.28.11Zm.88,1.1.26.14c-.18.23-.4.49-.67.78a1.67,1.67,0,0,0-.26-.17,3.92,3.92,0,0,0,.67-.75m1.3-1.65-1.82.68.09.24,1.82-.68Zm-1.56,1.38,1.82-.67-.09-.24-1.82.67Zm-.06,1.28h.31a6.72,6.72,0,0,1,0,.9l-.31,0a5.24,5.24,0,0,0,0-.88m.48-.15.29-.1.17.46a.27.27,0,0,0,.39.18l.45-.17c.18-.07.27-.18.25-.34a2.35,2.35,0,0,0-.07-.41,2,2,0,0,0,.35,0,4.4,4.4,0,0,1,0,.45c0,.24-.12.42-.43.54l-.56.21a.49.49,0,0,1-.7-.31Zm.6-.24.18-.22.51.32-.19.24a4.39,4.39,0,0,0-.5-.34m.56-.78,0-.27q.57,0,1.11,0l0,.31c-.39,0-.76,0-1.12,0m.67.43.2-.23c.2.14.42.32.68.52l-.22.26a5.83,5.83,0,0,0-.66-.55"/><path class="cls-7" d="M1402.27,3807.49l1.37-.8-.27-.46-1,.6-.14-.25,1-.59-.27-.46.28-.17.27.46.89-.52.14.24-.88.52.27.46.35-.21a5.19,5.19,0,0,0,.43-1.49l.36,0a6.4,6.4,0,0,1-.34,1.2l1-.61.15.25-1.37.8a8.13,8.13,0,0,1-.4.77l1.43-.84,1,1.74-.28.16-.13-.21-1.66,1,.12.22-.28.16-.79-1.33c-.14.2-.3.41-.46.62l-.32-.17a10.28,10.28,0,0,0,1.26-1.81l-1.64,1Zm1.51.34.22.38,1.67-1-.25-.41-1.6.94,0,.07m.6,1,1.66-1-.24-.41-1.67,1Z"/><path class="cls-7" d="M1407.57,3806.39l.21-.24-1.66-1.93-.2.18-.19-.22,1.37-1.18.19.22-.24.2,1.51,1.77.25-.3a1.88,1.88,0,0,0,.21.2l-.26.33.58.67-.23.2-.54-.63-.72.93Zm-.82-1.91.47-.39-.4-.47-.46.4Zm.59.68.46-.39-.4-.47-.46.4Zm-.24-2.33.07-.29a6.91,6.91,0,0,1,.76.17l-.08.32a7.23,7.23,0,0,0-.75-.2m1,1.53.73-.63-.48-.58-.66.56-.2-.24.86-.73c0-.23-.11-.56-.2-1l.34-.1c0,.32.08.61.11.87l.53-.46.2.24-.74.64c.2.22.36.42.48.58l.86-.74.21.23-.83.72a2.54,2.54,0,0,0,1.84.37,2.8,2.8,0,0,0,0,.41,3,3,0,0,1-1.71-.38,2.48,2.48,0,0,1,.17,1.76l-.35-.06a2.13,2.13,0,0,0-.25-1.85l-.71.61Zm.32,1.07-.39-.45-.46.4.46.53.39-.48"/><path class="cls-7" d="M1410.56,3799.08l0,.16a4.31,4.31,0,0,0,2.23-.57c0,.14.08.27.12.38a4.48,4.48,0,0,1-.69.27l.18.15-1.54,1.89-.16-.13c0,.24-.07.49-.11.75a2.17,2.17,0,0,0-.38,0,5.3,5.3,0,0,0,0-2.5Zm.08.48a5.3,5.3,0,0,1,.09,1.52l1.42-1.73a5.56,5.56,0,0,1-1.51.21m.51,2.31,1.84-2.25,1.44,1.17-.21.26-.22-.18-1.42,1.74.23.18-.21.26Zm1.87-1.8-1.42,1.74.75.61,1.42-1.73Z"/><path class="cls-7" d="M1413.24,3795.66a7,7,0,0,1,.47,2.42,2.71,2.71,0,0,0-.37.05,5.57,5.57,0,0,0-.47-2.49l.21-.39.06.12a4.14,4.14,0,0,0,2.16-1c.06.13.13.26.2.38a4.75,4.75,0,0,1-2.26.89m.42,1.56,1.12-2,.27.15-1.12,2Zm2.1-.88a13.13,13.13,0,0,1,1.39-.42l.08.36c-.14,0-.29.06-.45.1l-.92,1.93a1.62,1.62,0,0,0-.09.35h-.39a1.06,1.06,0,0,0,0-.4,6.74,6.74,0,0,0-.38-1l-.68,1.22-.27-.15,1.87-3.36.27.15-1,1.77a10.92,10.92,0,0,1,.43,1.19c.28-.55.54-1.08.79-1.58l-.58.16Z"/><path class="cls-7" d="M1362.42,3784.68a1.31,1.31,0,0,0,.2-.41,1.69,1.69,0,0,0,.07-.48c0-.46-.19-.69-.51-.68a.41.41,0,0,0-.25.08,1,1,0,0,0-.19.21c0,.09-.13.26-.24.5a1.94,1.94,0,0,1-.44.66.81.81,0,0,1-1.13-.13,1.37,1.37,0,0,1-.27-.82,1.59,1.59,0,0,1,.1-.73h.46a1.15,1.15,0,0,0-.18.76.78.78,0,0,0,.14.48.37.37,0,0,0,.35.18.42.42,0,0,0,.32-.14,2.72,2.72,0,0,0,.33-.58,1.9,1.9,0,0,1,.44-.69.73.73,0,0,1,.51-.21.77.77,0,0,1,.67.29,1.42,1.42,0,0,1,.26.86,2,2,0,0,1,0,.46,1.13,1.13,0,0,1-.12.38Z"/><path class="cls-7" d="M1363.12,3779.92l0,.41-1.34-.09c-.48,0-.72.13-.75.48a.58.58,0,0,0,.18.46.74.74,0,0,0,.51.21l1.32.09,0,.42-3.46-.24,0-.41,1.51.1h0a.85.85,0,0,1-.39-.79c0-.53.37-.77,1-.73Z"/><path class="cls-7" d="M1362.49,3777l-.28,1.62a.84.84,0,0,0,.61-.11.7.7,0,0,0,.3-.5,1.16,1.16,0,0,0-.13-.75l.36.06a1.35,1.35,0,0,1,.08.84,1,1,0,0,1-.45.73,1.32,1.32,0,0,1-.93.14,1.29,1.29,0,0,1-.82-.46,1,1,0,0,1-.22-.83.88.88,0,0,1,.41-.65,1.2,1.2,0,0,1,.86-.12Zm-.4.36a.7.7,0,0,0-.51.06.53.53,0,0,0-.24.39.57.57,0,0,0,.11.45.83.83,0,0,0,.44.3Z"/><path class="cls-7" d="M1364.22,3774.61l-.11.4-1.28-.35c-.47-.13-.75,0-.84.31a.57.57,0,0,0,.08.49.78.78,0,0,0,.45.31l1.29.35-.11.4-2.26-.62.11-.4.37.1h0a.83.83,0,0,1-.22-.86.75.75,0,0,1,.39-.5,1.19,1.19,0,0,1,.75,0Z"/><polygon class="cls-7" points="1365.08 3772.27 1364.39 3774.09 1364.26 3774.04 1363.01 3772.11 1362.56 3773.26 1362.24 3773.14 1362.89 3771.43 1363.02 3771.48 1364.28 3773.41 1364.76 3772.15 1365.08 3772.27"/><path class="cls-7" d="M1366.21,3769.92l-.18.37-1.21-.6c-.42-.21-.71-.15-.87.16a.56.56,0,0,0,0,.49.74.74,0,0,0,.39.39l1.19.59-.19.37-3.11-1.53.19-.37,1.35.66h0a.83.83,0,0,1-.06-.88c.23-.48.64-.57,1.21-.29Z"/><path class="cls-7" d="M1366.74,3767l-.87,1.39a.85.85,0,0,0,.6.13.71.71,0,0,0,.46-.35,1.13,1.13,0,0,0,.17-.75l.31.2a1.34,1.34,0,0,1-.24.81,1,1,0,0,1-.7.5,1.3,1.3,0,0,1-.91-.23,1.27,1.27,0,0,1-.58-.74,1,1,0,0,1,.11-.84.89.89,0,0,1,.63-.45,1.17,1.17,0,0,1,.84.22Zm-.5.17a.77.77,0,0,0-.5-.13.53.53,0,0,0-.37.26.57.57,0,0,0-.07.46.86.86,0,0,0,.29.45Z"/><path class="cls-7" d="M1369.26,3765.43l-.26.33-1-.82c-.38-.3-.68-.3-.9,0a.54.54,0,0,0-.11.47.81.81,0,0,0,.3.46l1.06.82-.26.33-1.85-1.44.25-.33.31.24h0a.87.87,0,0,1,.12-.88.73.73,0,0,1,.56-.31,1.17,1.17,0,0,1,.69.28Z"/><path class="cls-7" d="M1372.61,3762l-.36.35-1-.3a1.34,1.34,0,0,0-.48-.07.57.57,0,0,0-.3.15l-.22.21.94,1-.31.29-2.24-2.4.73-.68a1.14,1.14,0,0,1,.71-.35.81.81,0,0,1,.64.29.88.88,0,0,1,.07,1.15h0a.86.86,0,0,1,.28,0,3,3,0,0,1,.43.09Zm-3.43-.78.79.85.37-.34a.66.66,0,0,0,.23-.45.62.62,0,0,0-.17-.45.55.55,0,0,0-.4-.18.75.75,0,0,0-.45.23Z"/><path class="cls-7" d="M1373.81,3759.79l-1.31,1a.86.86,0,0,0,.52.33.71.71,0,0,0,.55-.17,1.13,1.13,0,0,0,.42-.64l.23.3a1.45,1.45,0,0,1-.52.67,1.06,1.06,0,0,1-.83.23,1.32,1.32,0,0,1-.76-.54,1.31,1.31,0,0,1-.3-.9,1,1,0,0,1,.41-.75.92.92,0,0,1,.75-.2,1.25,1.25,0,0,1,.71.5Zm-.54,0a.72.72,0,0,0-.42-.3.51.51,0,0,0-.43.11.56.56,0,0,0-.23.41.84.84,0,0,0,.11.52Z"/><path class="cls-7" d="M1374.65,3759.89a1.13,1.13,0,0,0,.7-.17c.27-.17.35-.35.24-.53a.3.3,0,0,0-.21-.13,1.76,1.76,0,0,0-.48.06,1.25,1.25,0,0,1-.59,0,.6.6,0,0,1-.3-.25.58.58,0,0,1,0-.56,1.21,1.21,0,0,1,.45-.51,1.51,1.51,0,0,1,.53-.21l.21.34a1.07,1.07,0,0,0-.59.18.58.58,0,0,0-.23.24.3.3,0,0,0,.21.4,1.72,1.72,0,0,0,.45,0,1.31,1.31,0,0,1,.61,0,.56.56,0,0,1,.32.25.58.58,0,0,1,0,.57,1.12,1.12,0,0,1-.48.52,1.39,1.39,0,0,1-.61.23Z"/><path class="cls-7" d="M1378.29,3758.26a1.3,1.3,0,0,1-.5.45,1.15,1.15,0,0,1-.88.09,1.17,1.17,0,0,1-.67-.61,1.28,1.28,0,0,1-.13-1,1.18,1.18,0,0,1,.63-.73,1.3,1.3,0,0,1,.54-.15l.19.37a.85.85,0,0,0-.57.09.7.7,0,0,0-.4.49,1.06,1.06,0,0,0,.58,1.15.74.74,0,0,0,.61-.06,1,1,0,0,0,.42-.44Z"/><path class="cls-7" d="M1380.76,3757.33l-.39.16-.14-.34h0a.79.79,0,0,1-.51.67c-.52.2-.9,0-1.15-.61l-.53-1.3.38-.16.51,1.24c.18.44.44.6.77.46a.55.55,0,0,0,.33-.35.7.7,0,0,0,0-.53l-.51-1.25.39-.16Z"/><path class="cls-7" d="M1383.11,3755.37l-1.58.46a.85.85,0,0,0,.36.5.72.72,0,0,0,.58.05,1.23,1.23,0,0,0,.63-.45l.1.36a1.5,1.5,0,0,1-.72.44,1.05,1.05,0,0,1-.86-.09,1.31,1.31,0,0,1-.52-.78,1.26,1.26,0,0,1,.05-.94,1,1,0,0,1,.65-.55.89.89,0,0,1,.77.08,1.22,1.22,0,0,1,.48.72Zm-.49-.2a.78.78,0,0,0-.29-.43.53.53,0,0,0-.45,0,.6.6,0,0,0-.36.3.82.82,0,0,0-.08.52Z"/><path class="cls-7" d="M1387.67,3752.49l-.79,3.41-.47,0-1.58-3.11.47-.06,1.19,2.44a1.1,1.1,0,0,1,.1.29h0a1.65,1.65,0,0,1,0-.3l.58-2.66Z"/><path class="cls-7" d="M1388.15,3754.6a1.27,1.27,0,0,1,.3-.92,1.16,1.16,0,0,1,.87-.36,1.05,1.05,0,0,1,.83.3,1.26,1.26,0,0,1,.33.89,1.23,1.23,0,0,1-.3.9,1.11,1.11,0,0,1-.85.37,1.13,1.13,0,0,1-.85-.31,1.24,1.24,0,0,1-.33-.87m.42,0a.94.94,0,0,0,.22.63.67.67,0,0,0,.56.22.64.64,0,0,0,.54-.24,1,1,0,0,0,.16-.66,1,1,0,0,0-.2-.65.65.65,0,0,0-.55-.21.67.67,0,0,0-.54.25,1,1,0,0,0-.19.66"/><rect class="cls-7" x="1389.81" y="3753.81" width="3.47" height="0.41" transform="translate(-2428.62 4952.09) rotate(-87.07)"/><path class="cls-7" d="M1394.5,3756.06l-.42-.06.05-.36h0a.78.78,0,0,1-.77.33c-.55-.07-.78-.44-.7-1.1l.18-1.39.41.05-.17,1.33q-.09.7.45.78a.55.55,0,0,0,.46-.14.73.73,0,0,0,.23-.48l.17-1.34.42.05Z"/><path class="cls-7" d="M1397.3,3756.67l-.4-.09.31-1.3c.11-.47,0-.74-.35-.82a.54.54,0,0,0-.49.09.78.78,0,0,0-.29.46l-.31,1.3-.4-.09.54-2.28.41.09-.09.38h0a.83.83,0,0,1,.85-.25.7.7,0,0,1,.51.37,1.16,1.16,0,0,1,0,.75Z"/><path class="cls-7" d="M1399.19,3757.26a.73.73,0,0,1-.37-.05c-.4-.13-.53-.41-.38-.86l.42-1.28-.38-.13.11-.32.38.12.18-.53h.43l-.22.66.56.18-.11.33-.55-.18-.41,1.21a.59.59,0,0,0,0,.34.3.3,0,0,0,.21.18.39.39,0,0,0,.26,0Z"/><path class="cls-7" d="M1402,3757.26l-1.51-.64a.88.88,0,0,0,0,.61.71.71,0,0,0,.43.4,1.1,1.1,0,0,0,.76,0l-.14.34a1.35,1.35,0,0,1-.84-.11,1,1,0,0,1-.61-.61,1.37,1.37,0,0,1,.08-.94,1.24,1.24,0,0,1,.64-.69,1,1,0,0,1,.85,0,.91.91,0,0,1,.55.55,1.21,1.21,0,0,1-.09.86Zm-.25-.47a.72.72,0,0,0,0-.51.52.52,0,0,0-.32-.33.57.57,0,0,0-.46,0,.79.79,0,0,0-.4.35Z"/><path class="cls-7" d="M1404.35,3758.52l-1.44-.78a.81.81,0,0,0-.1.61.76.76,0,0,0,.38.44,1.23,1.23,0,0,0,.76.12l-.18.32a1.41,1.41,0,0,1-.83-.19,1.07,1.07,0,0,1-.54-.67,1.29,1.29,0,0,1,.18-.92,1.28,1.28,0,0,1,.69-.63,1,1,0,0,1,.85.06.9.9,0,0,1,.49.6,1.22,1.22,0,0,1-.16.86Zm-.21-.49a.77.77,0,0,0,.1-.51.53.53,0,0,0-.28-.35.59.59,0,0,0-.47,0,.87.87,0,0,0-.43.32Z"/><path class="cls-7" d="M1406.55,3758.92a.45.45,0,0,0-.19-.23.5.5,0,0,0-.46,0,1,1,0,0,0-.46.41l-.65,1-.35-.22,1.29-2,.34.23-.26.4h0a.65.65,0,0,1,.8-.09.58.58,0,0,1,.16.14Z"/><path class="cls-7" d="M1406.19,3760.4a1.14,1.14,0,0,0,.4.6c.26.19.45.21.58,0a.29.29,0,0,0,0-.24,1.43,1.43,0,0,0-.22-.43,1.26,1.26,0,0,1-.21-.56.58.58,0,0,1,.14-.36.55.55,0,0,1,.51-.24,1.12,1.12,0,0,1,.63.25,1.51,1.51,0,0,1,.38.42l-.25.32a1,1,0,0,0-.37-.5.59.59,0,0,0-.31-.13.28.28,0,0,0-.24.11.28.28,0,0,0-.06.23,1.75,1.75,0,0,0,.2.4,1.31,1.31,0,0,1,.23.56.57.57,0,0,1-.12.39.6.6,0,0,1-.52.25,1.2,1.2,0,0,1-.66-.27,1.5,1.5,0,0,1-.42-.5Z"/><polygon class="cls-7" points="1412.08 3762.43 1411.19 3761.53 1410.41 3762.3 1411.23 3763.13 1410.97 3763.4 1410.14 3762.56 1409.12 3763.57 1408.82 3763.26 1411.16 3760.96 1412.35 3762.16 1412.08 3762.43"/><path class="cls-7" d="M1412.52,3765.81l-1-1.27a.8.8,0,0,0-.31.53.68.68,0,0,0,.18.55,1.2,1.2,0,0,0,.65.4l-.28.23a1.31,1.31,0,0,1-.69-.49,1,1,0,0,1-.25-.82,1.24,1.24,0,0,1,.51-.79,1.28,1.28,0,0,1,.88-.32,1,1,0,0,1,.77.38.94.94,0,0,1,.22.75,1.21,1.21,0,0,1-.48.72Zm0-.53a.72.72,0,0,0,.29-.43.49.49,0,0,0-.13-.43.58.58,0,0,0-.41-.22.92.92,0,0,0-.52.13Z"/><path class="cls-7" d="M1413.23,3768.75l-.23-.34.33-.22h0a.84.84,0,0,1-.81-.42.87.87,0,0,1-.12-.76,1.25,1.25,0,0,1,.57-.69,1.38,1.38,0,0,1,.94-.27,1,1,0,0,1,.72.46.74.74,0,0,1,.07.78h0l1.21-.8.23.35Zm.94-1.11a.66.66,0,0,0,.29-.42.56.56,0,0,0-.1-.48.61.61,0,0,0-.49-.3,1,1,0,0,0-.67.21,1,1,0,0,0-.41.49.61.61,0,0,0,.08.54.62.62,0,0,0,.46.29.84.84,0,0,0,.56-.15Z"/><path class="cls-7" d="M1415.5,3770.72l-.76-1.45a.84.84,0,0,0-.41.45.72.72,0,0,0,.07.58,1.11,1.11,0,0,0,.55.52l-.33.17a1.39,1.39,0,0,1-.57-.62,1,1,0,0,1-.08-.86,1.5,1.5,0,0,1,1.6-.8,1.05,1.05,0,0,1,.67.53.9.9,0,0,1,.06.78,1.24,1.24,0,0,1-.61.61Zm.11-.52a.78.78,0,0,0,.36-.36.51.51,0,0,0,0-.45.57.57,0,0,0-.37-.29.81.81,0,0,0-.53,0Z"/><path class="cls-7" d="M1417.11,3772.29a.45.45,0,0,0,0-.29.5.5,0,0,0-.36-.28,1,1,0,0,0-.61.08l-1.1.46-.16-.38,2.16-.91.16.38-.44.19h0a.63.63,0,0,1,.71.36.56.56,0,0,1,.06.22Z"/><path class="cls-7" d="M1417.62,3772.94a1.56,1.56,0,0,1,.46.7.77.77,0,0,1-.59,1.08l-1.43.47-.13-.39.35-.11h0a.79.79,0,0,1-.62-.56.75.75,0,0,1,0-.57.62.62,0,0,1,.41-.34c.41-.14.74,0,1,.5l.31.63c.36-.12.49-.33.4-.63a1.25,1.25,0,0,0-.51-.65Zm-.81,1a.76.76,0,0,0-.26-.34.44.44,0,0,0-.32,0,.36.36,0,0,0-.22.2.47.47,0,0,0,0,.33.6.6,0,0,0,.31.37.77.77,0,0,0,.52,0l.21-.07Z"/><path class="cls-7" d="M1416.56,3777.11a.77.77,0,0,1-.16-.34c-.09-.4.08-.66.54-.77l1.31-.32-.09-.39.33-.08.09.39.55-.13.23.37-.68.17.14.56-.34.08-.13-.56-1.25.29a.52.52,0,0,0-.3.16.29.29,0,0,0,0,.27.37.37,0,0,0,.14.22Z"/><path class="cls-7" d="M1416.66,3777.79l2.31-.41.07.41-2.3.41Zm3.12-.6a.21.21,0,0,1,.19,0,.23.23,0,0,1,.11.17.26.26,0,0,1-.21.3.24.24,0,0,1-.2,0,.28.28,0,0,1-.06-.37.22.22,0,0,1,.17-.1"/><path class="cls-7" d="M1418,3778.83a1.25,1.25,0,0,1,.94.24,1.11,1.11,0,0,1,.42.84,1.06,1.06,0,0,1-.24.85,1.26,1.26,0,0,1-.86.39,1.25,1.25,0,0,1-.92-.23,1.1,1.1,0,0,1-.42-.82,1.08,1.08,0,0,1,.24-.87,1.24,1.24,0,0,1,.84-.4m0,.42a.94.94,0,0,0-.61.27.71.71,0,0,0-.18.57.66.66,0,0,0,.28.52,1,1,0,0,0,.67.12,1,1,0,0,0,.63-.25.76.76,0,0,0-.11-1.09,1,1,0,0,0-.68-.14"/><path class="cls-7" d="M1417.11,3784v-.41l1.33,0c.49,0,.73-.17.73-.52a.55.55,0,0,0-.19-.45.74.74,0,0,0-.51-.18l-1.34,0V3782l2.34,0v.41h-.39a.84.84,0,0,1,.44.77.71.71,0,0,1-.26.58,1,1,0,0,1-.72.19Z"/></g><path class="cls-2" d="M1397.7,3769.8l-8.54,9.39a1.57,1.57,0,0,0-.17.21c-1.22,1.45-3.44,3.94-6.34,2.7-2.21-.94-3.68-3.58-6.09-4.21a4.23,4.23,0,0,0-5.09,3.88c2.74.06,4.53,1.6,4.94,5.32.43,4,1.11,6.7,3.17,8.57a9.92,9.92,0,0,0,13.19,1,8.17,8.17,0,0,0,.93-.74c2.19-2,4.33-4.18,5.75-5.67a1.51,1.51,0,0,0,.23-.21l.87-1,.61-.65h0l7.08-7.77a1.59,1.59,0,0,0-2.35-2.14l-7.41,8.15a.38.38,0,0,1-.5-.57l.58-.64h0l8.55-9.39a1.59,1.59,0,0,0-2.35-2.13l-8.49,9.33h0l-.48.52a.47.47,0,0,1-.69-.63l.22-.25.13-.13,8.55-9.39a1.59,1.59,0,0,0-2.35-2.13l-8.54,9.39a.45.45,0,0,0-.11.13l0,0a.37.37,0,0,1-.53,0,.38.38,0,0,1-.06-.49l7.68-8.43a1.58,1.58,0,0,0-.11-2.24,1.56,1.56,0,0,0-1.07-.42,1.59,1.59,0,0,0-1.17.52"/><g class="cls-22"><rect class="cls-23" x="1366.81" y="3760.25" width="46.67" height="47.51" transform="translate(-2385.26 2370.68) rotate(-49.3)"/></g><g class="cls-19"><polygon class="cls-7" points="1403.34 3786.51 1401.46 3782.96 1395.35 3786.2 1395.35 3779.26 1391.26 3779.26 1391.26 3786.09 1385.33 3782.74 1383.36 3786.24 1389.12 3789.5 1383.28 3792.6 1385.16 3796.15 1391.26 3792.91 1391.26 3799.85 1395.35 3799.85 1395.35 3793.02 1401.28 3796.37 1403.25 3792.87 1397.49 3789.61 1403.34 3786.51"/></g><use transform="translate(300.69 3081.1) scale(0.94)" xlink:href="#image-2"/><text class="cls-24" transform="translate(391.69 3818.19)">排牙山1人坠崖救援</text><text class="cls-24" transform="translate(390.37 2990.68)">排牙山1人坠崖救援</text><path class="cls-6" d="M462,1893.38c10.81,7.07,28.68,10.93,41,2.9L516.9,1912c-11.16,9.55-12.88,23.39-8,33.56,19.35,37.12,14.44,61.69-26.06,78.25-8.2,3.66-17.72,9.28-20.84,12.65-3.12-3.37-12.6-9-20.8-12.65-40.5-16.56-45.41-41.13-26.06-78.25,4.8-10.17,3.08-24-8-33.56L421,1896.28c12.29,8,30.16,4.17,41-2.9Z"/><path class="cls-7" d="M461,2029.26c-5-4.43-9.93-6.31-22.29-12.46h0c-10.34-5.12-17.52-10.61-22.15-16.64h0a31.14,31.14,0,0,1-6.63-19.55h0c0-9.76,3.82-20.23,9.38-31.82h0a38.59,38.59,0,0,0,3.59-15.81h0a28.84,28.84,0,0,0-7.74-20h0l-.91-1,7.7-9,1,.32a57.1,57.1,0,0,0,17.48,3.17h0c8.9,0,14.57-3.06,21-6h0l.63-.29.63.29c6.41,2.91,12.09,6,21,6h0a57.32,57.32,0,0,0,17.52-3.17h0l1-.32,7.66,9-.9,1a28.9,28.9,0,0,0-7.75,20h0a38.61,38.61,0,0,0,3.59,15.78h0c5.57,11.61,9.38,22.1,9.39,31.87h0a31,31,0,0,1-6.63,19.54h0c-4.62,6-11.81,11.51-22.15,16.63h0c-12.37,6.15-17.3,8-22.3,12.47h0l-1,.9-1-.91ZM422,1950.08c-5.5,11.44-9.09,21.59-9.08,30.53h0a28,28,0,0,0,6,17.69h0c4.24,5.52,11,10.78,21.09,15.76h0c11.46,5.72,16.79,7.78,22,12.06h0c5.18-4.27,10.48-6.34,21.95-12.06h0c10.08-5,16.86-10.23,21.09-15.75h0a28,28,0,0,0,6-17.68h0c0-9-3.58-19.1-9.09-30.55h0v0A41.64,41.64,0,0,1,498,1933h0a31.86,31.86,0,0,1,7.65-21h0l-4.61-5.44a59.33,59.33,0,0,1-17.48,3h0c-9.33,0-15.57-3.18-21.62-6h0c-6.05,2.78-12.3,6-21.62,6h0a58.45,58.45,0,0,1-17.44-3h0l-4.65,5.45a31.91,31.91,0,0,1,7.65,21h0a41.65,41.65,0,0,1-3.88,17.07h0l0,0Z"/><path class="cls-8" d="M462,1901.91c9.67,4.39,18.61,9.63,39.6,2.86l6.13,7.23c-11,12-9.17,27-4.41,37.42,13.42,27.94,16.07,48.81-18.69,66-12.29,6.12-17.37,8-22.63,12.69-5.23-4.66-10.34-6.57-22.63-12.69-34.73-17.2-32.12-38.07-18.69-66,4.75-10.44,6.55-25.38-4.42-37.42l6.17-7.23c20.95,6.77,29.89,1.53,39.57-2.86Z"/><path class="cls-9" d="M484,1942.84l-3.14.63a36.49,36.49,0,0,1,9.08,7.38l3.1.24c-.93-1.15-1.91-2.22-2.91-3.25a40.32,40.32,0,0,0-6.13-5Zm-2.91,66.79.52-3.49a36.09,36.09,0,0,1-9.27,4l-1.75,3.33a39.24,39.24,0,0,0,10.5-3.89Zm12.59-10.79-.79-3.46a37,37,0,0,1-8.48,8.9l-.34,3,.71.08a40.19,40.19,0,0,0,5.35-4.48,47.18,47.18,0,0,0,3.55-4.05Zm6.68-13.77-1.9-2.86a36.54,36.54,0,0,1-3.7,10.16l.94,3.53a38.91,38.91,0,0,0,4.66-10.83Zm.75-15.68-2.62-1.23a33.93,33.93,0,0,1,.68,6.9,33.38,33.38,0,0,1-.15,3.34l2,2.77.11-.07a37.2,37.2,0,0,0,.45-5.72h0a39.46,39.46,0,0,0-.49-6Zm-5.75-15.12-3-.32a35.2,35.2,0,0,1,5.3,10.76l2.58,1.07.08-.16A39.3,39.3,0,0,0,495.38,1954.27Z"/><path class="cls-10" d="M502.7,1992.33v-8.69l3.18-2.42a43.4,43.4,0,0,1-3.18,11.11Zm0-12.22V1967.8l2.09-4.2a42.89,42.89,0,0,1,1.53,11.46c0,1,0,1.87-.07,2.78l-3.55,2.27Zm0-18.46v-3.93c.34.75.67,1.55,1,2.34Zm-8.59-16.79a44.59,44.59,0,0,0-11.54-8.61l1.41,5.59.08.32a37.12,37.12,0,0,1,6.46,5.24,40.64,40.64,0,0,1,3,3.3v-.24l.6-5.6Zm8.59,12.86v3.93l-1.87,3.18-.07.11a38.72,38.72,0,0,0-4.64-10.55h.23l.19-6.75a42.45,42.45,0,0,1,6.16,10.08Zm0,10.08v12.31l-.9.55a25.73,25.73,0,0,0,.34-3.53c0-.67,0-1.39,0-2.07a37.47,37.47,0,0,0-.23-4.28,38,38,0,0,1,.23,5c0,.44,0,.83,0,1.27,0-.55,0-1.11,0-1.67h0a41.06,41.06,0,0,0-.34-5.24v0a.27.27,0,0,1,0-.15v0c0-.08,0-.16,0-.24h0v0l.9-1.83Zm0,15.84v8.69c-.34.75-.67,1.51-1,2.26l-5.16,1.15A39.54,39.54,0,0,0,501,1985l1.68-1.31ZM471.13,2014l4,2.78a43.57,43.57,0,0,0,13.22-6.59h-7.06a39.14,39.14,0,0,1-10.2,3.81Zm20.14-6.11a44.59,44.59,0,0,0,8.7-10.28l-6.05,1.86a35.46,35.46,0,0,1-3.4,3.85,37.9,37.9,0,0,1-4.78,4.13Z"/><path class="cls-9" d="M440.7,1942.84a40.24,40.24,0,0,0-6.12,5c-1,1-2,2.1-2.92,3.25l3.11-.24a36.44,36.44,0,0,1,9.07-7.38l-3.14-.63Zm2.92,66.79a39.3,39.3,0,0,0,10.49,3.89l-1.75-3.33a36.09,36.09,0,0,1-9.27-4l.53,3.49ZM431,1998.84a49.09,49.09,0,0,0,3.56,4.05,40.1,40.1,0,0,0,5.34,4.48l.71-.08-.34-3a37.17,37.17,0,0,1-8.48-8.9l-.79,3.46Zm-6.68-13.77A38.94,38.94,0,0,0,429,1995.9l.93-3.53a36.52,36.52,0,0,1-3.69-10.16l-1.91,2.86Zm-.75-15.68a39.46,39.46,0,0,0-.48,6h0a36,36,0,0,0,.45,5.72l.11.07,2-2.77a30.64,30.64,0,0,1-.15-3.34,34.65,34.65,0,0,1,.67-6.9l-2.62,1.23Zm.79-3.77.07.16,2.58-1.07a35.22,35.22,0,0,1,5.31-10.76l-3,.32A38.77,38.77,0,0,0,424.38,1965.62Z"/><path class="cls-10" d="M422,1992.33a43.38,43.38,0,0,1-3.17-11.11l3.17,2.42v8.69Zm0-12.22-3.55-2.27c0-.91-.07-1.82-.07-2.78a42.89,42.89,0,0,1,1.53-11.46l2.09,4.2v12.31Zm-1-20c.3-.79.64-1.59,1-2.34v3.93Zm9.57-15.2.6,5.6v.24a42.45,42.45,0,0,1,3-3.3,36.82,36.82,0,0,1,6.47-5.24l.07-.32,1.42-5.59a44.26,44.26,0,0,0-11.54,8.61Zm-8.6,12.86a42.49,42.49,0,0,1,6.17-10.08l.19,6.75h.22a38.69,38.69,0,0,0-4.63,10.55l-.08-.11-1.87-3.18v-3.93Zm0,10.08.9,1.83v0h0c0,.08,0,.16,0,.24v0a.27.27,0,0,1,0,.15v0a41.07,41.07,0,0,0-.33,5.24h0c0,.56,0,1.12,0,1.67,0-.44,0-.83,0-1.27a36.38,36.38,0,0,1,.22-5,39.94,39.94,0,0,0-.22,4.28c0,.68,0,1.4,0,2.07a27.4,27.4,0,0,0,.34,3.53l-.9-.55V1967.8Zm0,15.84,1.68,1.31a39.56,39.56,0,0,0,4.53,10.79l-5.16-1.15c-.37-.75-.71-1.51-1.05-2.26v-8.69ZM453.59,2014a39.27,39.27,0,0,1-10.2-3.81h-7.06a43.51,43.51,0,0,0,13.23,6.59l4-2.78Zm-14.6-6.55a38,38,0,0,1-4.79-4.13,36.56,36.56,0,0,1-3.4-3.85l-6.05-1.86a44.84,44.84,0,0,0,8.7,10.28Z"/><path class="cls-7" d="M443.8,1918.22a2.18,2.18,0,0,0-2.49-2.33c-1.61.11-2.43.78-2.49,2s.83,1.89,2.82,2.16a2.91,2.91,0,0,1,.42.08c3.59.72,5.37,2.14,5.31,4.24q-.08,4.82-6.56,5c-4,0-5.95-1.69-5.89-5.06h3.32a2.48,2.48,0,0,0,2.57,2.82c2-.06,3-.72,3.08-2,0-1-1-1.77-2.91-2.16a2.45,2.45,0,0,1-.58-.17q-5.07-1.15-5.07-4.23c.17-3.16,2.3-4.84,6.39-5.07,3.33.17,5.07,1.75,5.24,4.74Z"/><path class="cls-7" d="M452.85,1929.17h-3.32v-15.36h6.56c3.49.06,5.25,1.39,5.31,4a3.68,3.68,0,0,1-3.15,3.74v.08c1.71.06,2.63,1.19,2.74,3.4a2.6,2.6,0,0,1,.08.5,9,9,0,0,0,.83,3.65h-3.57a20,20,0,0,1-.58-4.15c-.11-1.32-.58-2-1.42-2h-3.48Zm0-8.71h2.74c1.55,0,2.32-.72,2.32-2.16s-.77-2-2.32-1.91h-2.74Z"/><path class="cls-7" d="M462.65,1913.81h3.57l4,12.13h.08l4-12.13h3.24l-5.65,15.36h-3.57Z"/><path class="cls-7" d="M479.17,1929.17v-15.36h9.88v2.58H482.4V1920h6.23v2.58H482.4v6.55Z"/><g class="cls-25"><path class="cls-12" d="M496.41,1974.77a34.13,34.13,0,1,1-34.13-34.23,34.18,34.18,0,0,1,34.13,34.23"/><path class="cls-7" d="M462.28,1941.09A33.68,33.68,0,1,0,496,1974.77a33.71,33.71,0,0,0-33.67-33.68M495,1974.77a32.71,32.71,0,1,1-32.71-32.72A32.75,32.75,0,0,1,495,1974.77"/><path class="cls-7" d="M485.74,1974.77a23.46,23.46,0,1,1-23.46-23.46,23.46,23.46,0,0,1,23.46,23.46"/></g><g class="cls-26"><rect class="cls-27" x="441.7" y="1954.18" width="41.16" height="41.18"/></g><g class="cls-25"><polygon class="cls-7" points="434.96 1980.52 435.47 1981.55 436.61 1981.71 435.78 1982.52 435.98 1983.65 434.96 1983.11 433.94 1983.65 434.14 1982.52 433.32 1981.71 434.45 1981.55 434.96 1980.52"/><polygon class="cls-7" points="489.6 1980.52 490.11 1981.55 491.25 1981.71 490.43 1982.52 490.62 1983.65 489.6 1983.11 488.59 1983.65 488.78 1982.52 487.96 1981.71 489.1 1981.55 489.6 1980.52"/><path class="cls-7" d="M436.7,1987.34c0,.13,0,.25,0,.37l-1.64.36-.05-.38a14.29,14.29,0,0,0,1.65-.35m.74,3.67-.37-.06a3.68,3.68,0,0,1,.48-1.58l-1.34.75-.16-.29,1.35-.75a4.44,4.44,0,0,1-1.7-.48,3.19,3.19,0,0,0,.11-.34,4.61,4.61,0,0,0,1.74.63l-.58-1,.27-.15.62,1.1.46-.26.15.29-.45.26.63,1.12-.27.15-.59-1.07a3.76,3.76,0,0,0-.35,1.7m.12-4.59c0,.36-.05.69-.09,1l-.35-.06c.05-.29.09-.62.13-1Zm1.21,1.62-.09.3a9.92,9.92,0,0,1-1.16-.48,2.92,2.92,0,0,0,.14-.31,6.28,6.28,0,0,0,1.11.49m-.21-2c0,.37-.08.71-.13,1l-.35-.07c.08-.4.14-.74.17-1Zm.27.9,1.31,2.35-.61.34-.16-.29.33-.19-1-1.76-.34.19-.16-.3Zm0,1.7.29.07c0,.42-.09.83-.16,1.23l-.33-.07a12.13,12.13,0,0,0,.2-1.23"/><path class="cls-7" d="M438.51,1991.53l.49.36,1.05-.86-.33-.41.23-.19.34.41.78-.64.19.24-.77.64.32.4-.23.19-.33-.4-1,.8.48.34-.24.21-1.24-.82Zm3.22-.47.21.25-1.16,1a5.46,5.46,0,0,1-1.28.86,2.27,2.27,0,0,1-1.22.12,2.33,2.33,0,0,0,.06-.35,1.94,1.94,0,0,0,1.09-.1,4.94,4.94,0,0,0,1.14-.78Zm.47.83.2.24-2.7,2.22-.2-.25Zm.72.63.21.25-3.08,2.52-.21-.25Z"/><path class="cls-7" d="M441.87,1996.56l-.25-.22,1.41-1.64,1.13,1,.38-.43-1.4-1.21.2-.24,1.48,1.27a5.31,5.31,0,0,0,.12-.6l.34.1c0,.21-.06.42-.1.62l-.3-.07,1.54,1.31-.21.25-1.42-1.22-.37.44,1.15,1-1,1.19a.45.45,0,0,1-.72.07l-.45-.4c.05-.07.11-.17.18-.29l.4.38a.24.24,0,0,0,.39,0l.77-.9-.9-.77-1.49,1.73-.26-.22,1.49-1.73-.88-.76Z"/><path class="cls-7" d="M448.33,1999.79c.08.65.14,1.23.16,1.74l-.38,0c0-.15,0-.31,0-.47q-1.23-.64-2-1a1.63,1.63,0,0,0-.36-.13l0-.41a1,1,0,0,0,.41,0,8.63,8.63,0,0,0,1.76-.9l.23.33a19.54,19.54,0,0,1-1.79.87l1.72.92c0-.29,0-.59-.07-.92Zm-2.08-1.83a4.79,4.79,0,0,0,2.11-.84l.21.29a5.74,5.74,0,0,1-2.22.92,1.86,1.86,0,0,0-.1-.37m2.91-.29.33,0a3.34,3.34,0,0,0,.43,2.26,2.52,2.52,0,0,0-.39.15,4,4,0,0,1-.37-2.46"/><path class="cls-7" d="M450,2002l.57.21.48-1.32,2.75,1-.48,1.31.54.2-.1.28-3.86-1.43Zm2.22-1.74.1.33c-.5.09-1.05.18-1.65.25a1.72,1.72,0,0,0-.06-.34,12.42,12.42,0,0,0,1.61-.24m-1.37,2,.54.2.39-1-.55-.2Zm.22-2.93,2.14.79a6.81,6.81,0,0,0,.95-.51l.22.28c-.25.14-.5.27-.76.39l1.16.42-.1.28-3.71-1.37Zm.6,3.23.54.2.39-1-.55-.2Zm.22-3.56.28-.13c.16.24.31.48.43.7l-.31.15a6.65,6.65,0,0,0-.4-.72m1.53,3-.54-.2-.39,1.05.54.2Zm-.37-1.22.24-.18c.44.43.81.83,1.11,1.18l-.28.23c-.41-.49-.76-.9-1.07-1.23"/><path class="cls-7" d="M455.6,2000.92l.83.14.12-.69.31.05-.12.7.87.15-.06.3-.87-.16-.25,1.46.2-.14.58.78-.28.21c-.17-.28-.34-.53-.52-.77l-.15.89c-.07.36-.26.52-.58.46l-.53-.1a2.4,2.4,0,0,0,0-.38,3.33,3.33,0,0,0,.48.12c.19,0,.3,0,.34-.24l.13-.78-.82.54-.16-.29c.33-.18.62-.36.89-.53l.11.21.26-1.49-.84-.15Zm-.08.71.28-.11.31.76-.31.11c-.1-.28-.19-.53-.28-.76m1.65.16.24.21-.6.59-.22-.23a6.32,6.32,0,0,0,.58-.57m0,.78a8.47,8.47,0,0,0,1.1-1.89l.28.13c-.09.21-.19.43-.3.64l1.28.22-.05.3-.33-.06a4,4,0,0,1-.89,1.8,2.79,2.79,0,0,0,.79.9,2.94,2.94,0,0,0-.25.26,3.34,3.34,0,0,1-.8-.94,3.66,3.66,0,0,1-1.21.63l-.15-.31a3.36,3.36,0,0,0,1.22-.63,3.31,3.31,0,0,1-.22-1.18l-.24.33-.23-.2m-.19-1.89.21-.17.4.42-.24.19a3.75,3.75,0,0,0-.37-.44m1,1.3a3.47,3.47,0,0,0,.17,1.4,3.55,3.55,0,0,0,.74-1.52l-.76-.13-.15.25"/><path class="cls-7" d="M460.21,2003.16l.52-.21v-1h-.5v-.3h.49v-.77H461v.77h.49v.3H461l0,.84.4-.17s0,.11,0,.32l-.44.19,0,1.39c0,.28-.11.43-.35.45h-.37c0-.11,0-.23-.06-.35h.32c.11,0,.16-.06.16-.18l0-1.2-.47.21Zm1.37-.41h.59a2.66,2.66,0,0,0,.08-.33h-.59v-.27l1.7,0a7.37,7.37,0,0,0,.37-.69l.3.16-.35.53h.56v.27l-1.69,0-.06.33,1.83,0v.27l-1.9,0c0,.11-.07.22-.11.33l1.63,0v.27a2.74,2.74,0,0,1-.66.78,3.13,3.13,0,0,0,1.13.27c-.06.13-.12.24-.17.33a3.23,3.23,0,0,1-1.24-.39,4,4,0,0,1-1.13.48,2.79,2.79,0,0,0-.19-.28,4.17,4.17,0,0,0,1.05-.39,2.29,2.29,0,0,1-.56-.68,5.11,5.11,0,0,1-.69,1.12l-.25-.21a4.11,4.11,0,0,0,.87-1.59h-.51Zm.1-1.24-.06-.29c.87,0,1.71-.1,2.51-.2l.06.3c-.6.07-1.44.13-2.51.19m.13.16.25-.14c.1.15.2.29.29.44l-.27.16a3.07,3.07,0,0,0-.27-.46m1.76,1.92-1.13,0a2,2,0,0,0,.56.59,2.34,2.34,0,0,0,.57-.61m-.92-2,.26-.11q.12.22.24.51l-.29.12a3.15,3.15,0,0,0-.21-.52"/><path class="cls-7" d="M465.55,2002.52l1.5-.27-.14-.79-1.8.32-.05-.28,1.8-.33-.12-.65.34-.06.12.65,1.81-.32.06.29-1.82.32.14.79,1.5-.27.06.29-3.35.6Zm.16.66.33,0q-.06.65-.15,1.14a1.67,1.67,0,0,0-.34,0,6.81,6.81,0,0,0,.16-1.14m.61,0,.32-.06.16.94a.23.23,0,0,0,.3.2l.86-.15c.2,0,.31-.13.31-.28a3,3,0,0,0,0-.52,2,2,0,0,0,.35.06,4.11,4.11,0,0,1,0,.53c0,.27-.18.43-.49.49l-1,.18a.46.46,0,0,1-.6-.44Zm.61-.3.22-.22c.25.22.49.44.73.68l-.24.24c-.26-.27-.49-.51-.71-.7m1.61,0,.23-.21c.25.24.51.5.76.78l-.25.24c-.26-.31-.51-.58-.74-.81"/><path class="cls-7" d="M470.82,2000.3l.8-.29,0-.32-1.33.5.43,1.17a7.34,7.34,0,0,1,.4,1.35,2.83,2.83,0,0,1,0,1.08l-.32-.18a2.74,2.74,0,0,0,0-.9,6.05,6.05,0,0,0-.34-1.17l-.56-1.5,3.45-1.28.09.26-1.51.56,0,.32,1.28-.48.47,1.28-.28.1,0-.11-.69.25.11.3a.4.4,0,0,1-.26.59l-.4.14-.16-.26.39-.12a.2.2,0,0,0,.14-.29l-.1-.26-.85.32,0,.11-.27.11Zm.88,1.1.27.14c-.18.23-.4.49-.67.78l-.26-.17a3.86,3.86,0,0,0,.66-.75m1.31-1.65-1.83.68.09.24,1.83-.68Zm-1.57,1.38,1.83-.67-.09-.24-1.82.67Zm-.05,1.28h.31a9,9,0,0,1,0,.9l-.32,0a4.39,4.39,0,0,0,0-.88m.48-.15.28-.1.18.46a.27.27,0,0,0,.39.18l.45-.17c.18-.07.27-.18.25-.34a2.35,2.35,0,0,0-.07-.41h.35c0,.17,0,.32.05.45s-.12.42-.44.54l-.55.21a.48.48,0,0,1-.7-.31Zm.6-.24.18-.21c.18.1.35.2.51.31l-.19.24a5.5,5.5,0,0,0-.5-.34m.55-.78.05-.27h1.11l0,.31c-.39,0-.76,0-1.13,0m.68.43.19-.23c.2.14.43.32.69.52l-.22.26a6.87,6.87,0,0,0-.66-.55"/><path class="cls-7" d="M474.5,1999.48l1.37-.8-.27-.46-1,.6-.15-.25,1-.59-.27-.46.29-.17.27.46.88-.52.15.24-.88.52.26.46.36-.21a5.19,5.19,0,0,0,.43-1.49l.36,0a6.4,6.4,0,0,1-.34,1.2l1-.61.15.25-1.37.8a7.19,7.19,0,0,1-.41.77l1.43-.84,1,1.74-.28.16-.13-.21-1.67,1,.13.22-.28.16-.79-1.33c-.15.2-.3.41-.47.62a2.7,2.7,0,0,0-.31-.17,10.84,10.84,0,0,0,1.26-1.81l-1.64,1Zm1.5.34.23.38,1.67-1-.25-.41-1.6.94-.05.07m.61,1,1.66-1-.24-.41-1.67,1Z"/><path class="cls-7" d="M479.8,1998.38l.21-.24-1.66-1.93-.21.18-.18-.22,1.36-1.18.2.22-.24.2,1.51,1.77.25-.3a1.88,1.88,0,0,0,.21.2c-.09.1-.17.22-.26.33l.57.67-.22.2-.54-.63-.72.93Zm-.82-1.91.46-.39-.39-.47-.46.4Zm.58.68.47-.39-.4-.47-.47.4Zm-.24-2.33.08-.29a7.47,7.47,0,0,1,.76.17l-.08.32a7.47,7.47,0,0,0-.76-.2m1,1.53.73-.63c-.13-.16-.29-.36-.49-.58l-.65.56-.2-.24.85-.73c0-.23-.1-.56-.2-1l.35-.1c.05.32.08.61.11.87l.53-.46.2.24-.74.64c.2.22.36.42.48.58l.86-.74.2.23-.82.72a2.53,2.53,0,0,0,1.84.37,1.41,1.41,0,0,0,0,.41,3,3,0,0,1-1.71-.38,2.48,2.48,0,0,1,.17,1.76l-.35-.06a2.13,2.13,0,0,0-.25-1.85l-.71.61Zm.32,1.07-.39-.45-.46.4.45.53.4-.48"/><path class="cls-7" d="M482.79,1991.07l0,.16a4.31,4.31,0,0,0,2.23-.57c0,.14.08.27.12.38a4.92,4.92,0,0,1-.69.27l.18.15-1.55,1.89-.16-.13a7.15,7.15,0,0,1-.11.75,2,2,0,0,0-.37,0,5.16,5.16,0,0,0,0-2.5Zm.08.48a5.3,5.3,0,0,1,.09,1.52l1.42-1.73a5.56,5.56,0,0,1-1.51.21m.51,2.31,1.84-2.25,1.44,1.17-.21.26-.22-.18-1.42,1.74.23.18-.22.26Zm1.87-1.8-1.42,1.74.75.62,1.42-1.74Z"/><path class="cls-7" d="M485.47,1987.65a7,7,0,0,1,.47,2.42,2.52,2.52,0,0,0-.37,0,5.44,5.44,0,0,0-.48-2.49l.22-.39.05.12a4.13,4.13,0,0,0,2.17-1c.06.13.13.26.2.38a4.75,4.75,0,0,1-2.26.89m.41,1.56,1.13-2,.26.15-1.12,2Zm2.1-.88c.51-.18,1-.32,1.39-.42l.08.36-.45.1-.91,1.93a1.2,1.2,0,0,0-.09.35h-.39a1.31,1.31,0,0,0,0-.4,6.74,6.74,0,0,0-.38-1l-.68,1.22-.27-.15,1.86-3.36.28.15-1,1.77a10.92,10.92,0,0,1,.43,1.19c.27-.55.54-1.08.78-1.58l-.58.16Z"/><path class="cls-7" d="M434.65,1976.67a1.31,1.31,0,0,0,.2-.41,1.69,1.69,0,0,0,.07-.48c0-.46-.19-.69-.52-.68a.49.49,0,0,0-.24.08.76.76,0,0,0-.19.21c-.05.09-.14.26-.25.5a1.81,1.81,0,0,1-.43.66.83.83,0,0,1-.48.18.78.78,0,0,1-.66-.31,1.43,1.43,0,0,1-.26-.82,1.77,1.77,0,0,1,.09-.73h.47a1.22,1.22,0,0,0-.19.76.94.94,0,0,0,.14.48.38.38,0,0,0,.36.18.42.42,0,0,0,.32-.14,2.41,2.41,0,0,0,.32-.58,1.9,1.9,0,0,1,.45-.69.71.71,0,0,1,.51-.21.77.77,0,0,1,.67.29,1.42,1.42,0,0,1,.26.86,2.68,2.68,0,0,1,0,.46,1.13,1.13,0,0,1-.12.38Z"/><path class="cls-7" d="M435.35,1971.91l0,.41-1.35-.09c-.47,0-.72.13-.74.48a.58.58,0,0,0,.18.46.72.72,0,0,0,.51.21l1.32.09,0,.42-3.46-.24,0-.41,1.51.1h0a.82.82,0,0,1-.39-.79c0-.53.37-.77,1-.73Z"/><path class="cls-7" d="M434.72,1969l-.28,1.62a.8.8,0,0,0,.61-.11.73.73,0,0,0,.3-.5,1.11,1.11,0,0,0-.14-.75l.37.06a1.35,1.35,0,0,1,.08.84,1,1,0,0,1-.45.73,1.32,1.32,0,0,1-.93.14,1.29,1.29,0,0,1-.82-.46,1,1,0,0,1-.22-.83.88.88,0,0,1,.41-.65,1.2,1.2,0,0,1,.86-.12Zm-.4.36a.7.7,0,0,0-.51.06.53.53,0,0,0-.24.39.57.57,0,0,0,.11.45.83.83,0,0,0,.44.3Z"/><path class="cls-7" d="M436.45,1966.6l-.11.4-1.28-.35c-.47-.13-.75,0-.84.31a.56.56,0,0,0,.07.49.81.81,0,0,0,.46.31l1.28.35-.11.4-2.26-.62.11-.4.38.1h0a.84.84,0,0,1-.22-.86.72.72,0,0,1,.39-.51,1.19,1.19,0,0,1,.75,0Z"/><polygon class="cls-7" points="437.31 1964.26 436.62 1966.08 436.49 1966.03 435.23 1964.1 434.79 1965.25 434.47 1965.13 435.12 1963.42 435.25 1963.47 436.51 1965.4 436.99 1964.14 437.31 1964.26"/><path class="cls-7" d="M438.44,1961.91l-.18.37-1.21-.6c-.43-.21-.72-.15-.87.16a.56.56,0,0,0,0,.49.74.74,0,0,0,.39.39l1.19.59-.19.37-3.11-1.53.19-.37,1.35.66h0a.85.85,0,0,1-.05-.88c.23-.48.63-.57,1.21-.29Z"/><path class="cls-7" d="M439,1959l-.88,1.39a.89.89,0,0,0,.61.13.73.73,0,0,0,.46-.35,1.13,1.13,0,0,0,.17-.75l.31.2a1.36,1.36,0,0,1-.25.81,1,1,0,0,1-.69.5,1.29,1.29,0,0,1-.91-.23,1.32,1.32,0,0,1-.59-.74,1,1,0,0,1,.12-.84.89.89,0,0,1,.63-.45,1.22,1.22,0,0,1,.84.22Zm-.51.17a.74.74,0,0,0-.49-.13.51.51,0,0,0-.37.26.57.57,0,0,0-.07.46.84.84,0,0,0,.28.45Z"/><path class="cls-7" d="M441.48,1957.42l-.25.33-1.05-.82c-.38-.3-.68-.3-.9,0a.54.54,0,0,0-.11.47.72.72,0,0,0,.3.46l1,.82-.25.33-1.86-1.44.26-.33.31.24h0a.87.87,0,0,1,.12-.88.73.73,0,0,1,.56-.31,1.17,1.17,0,0,1,.69.28Z"/><path class="cls-7" d="M444.84,1954l-.36.35-1-.3a1.32,1.32,0,0,0-.47-.07.61.61,0,0,0-.3.15l-.22.21.94,1-.31.29-2.24-2.4.73-.68a1.11,1.11,0,0,1,.71-.35.83.83,0,0,1,.64.29.88.88,0,0,1,.07,1.15h0a.82.82,0,0,1,.28,0,3.34,3.34,0,0,1,.43.09Zm-3.43-.78.79.85.37-.34a.7.7,0,0,0,.23-.45.59.59,0,0,0-.18-.45.51.51,0,0,0-.39-.18.72.72,0,0,0-.45.23Z"/><path class="cls-7" d="M446,1951.78l-1.3,1a.87.87,0,0,0,.51.33.72.72,0,0,0,.56-.17,1.13,1.13,0,0,0,.42-.64l.23.3a1.45,1.45,0,0,1-.52.67,1,1,0,0,1-.83.23,1.34,1.34,0,0,1-.77-.54,1.3,1.3,0,0,1-.29-.9,1,1,0,0,1,.41-.75.92.92,0,0,1,.75-.2,1.2,1.2,0,0,1,.7.5Zm-.53,0a.72.72,0,0,0-.42-.3.5.5,0,0,0-.43.11.56.56,0,0,0-.23.41.77.77,0,0,0,.11.52Z"/><path class="cls-7" d="M446.88,1951.88a1.08,1.08,0,0,0,.69-.17c.28-.17.36-.35.24-.53a.3.3,0,0,0-.21-.13,1.7,1.7,0,0,0-.47.06,1.3,1.3,0,0,1-.6,0,.54.54,0,0,1-.29-.25.56.56,0,0,1-.05-.56,1.09,1.09,0,0,1,.45-.51,1.78,1.78,0,0,1,.52-.21l.22.34a1,1,0,0,0-.59.18.52.52,0,0,0-.23.24.29.29,0,0,0,0,.26.28.28,0,0,0,.2.14,1.63,1.63,0,0,0,.44,0,1.31,1.31,0,0,1,.61,0,.55.55,0,0,1,.33.25.58.58,0,0,1,.05.57,1.18,1.18,0,0,1-.48.52,1.44,1.44,0,0,1-.61.23Z"/><path class="cls-7" d="M450.51,1950.25a1.17,1.17,0,0,1-.5.45,1.12,1.12,0,0,1-.87.09,1.17,1.17,0,0,1-.67-.61,1.28,1.28,0,0,1-.13-1,1.12,1.12,0,0,1,.62-.72,1.26,1.26,0,0,1,.55-.16l.19.37a.89.89,0,0,0-.58.09.75.75,0,0,0-.4.49,1,1,0,0,0,.11.68.91.91,0,0,0,.48.47.74.74,0,0,0,.61-.06.92.92,0,0,0,.41-.44Z"/><path class="cls-7" d="M453,1949.32l-.39.16-.14-.34h0a.78.78,0,0,1-.51.67c-.51.2-.89,0-1.14-.61l-.53-1.3.38-.16.5,1.24c.18.44.44.6.78.46a.55.55,0,0,0,.33-.35.75.75,0,0,0,0-.53l-.51-1.25.38-.16Z"/><path class="cls-7" d="M455.33,1947.36l-1.57.46a.85.85,0,0,0,.36.5.72.72,0,0,0,.58,0,1.21,1.21,0,0,0,.62-.45l.11.36a1.49,1.49,0,0,1-.73.44,1,1,0,0,1-.85-.09,1.26,1.26,0,0,1-.52-.78,1.21,1.21,0,0,1,.05-.94,1,1,0,0,1,.64-.55.88.88,0,0,1,.77.08,1.18,1.18,0,0,1,.49.72Zm-.49-.2a.72.72,0,0,0-.28-.43.54.54,0,0,0-.45,0,.6.6,0,0,0-.36.3.82.82,0,0,0-.08.52Z"/><path class="cls-7" d="M459.89,1944.48l-.79,3.41-.46,0-1.58-3.11.46-.06,1.2,2.44a1.63,1.63,0,0,1,.1.29h0a1.08,1.08,0,0,1,0-.3l.57-2.66Z"/><path class="cls-7" d="M460.38,1946.59a1.27,1.27,0,0,1,.3-.92,1.16,1.16,0,0,1,.87-.36,1.05,1.05,0,0,1,.83.3,1.26,1.26,0,0,1,.33.89,1.27,1.27,0,0,1-.3.9,1.11,1.11,0,0,1-.85.37,1.13,1.13,0,0,1-.85-.31,1.24,1.24,0,0,1-.33-.87m.42,0a.94.94,0,0,0,.22.63.67.67,0,0,0,.56.22.63.63,0,0,0,.53-.24,1,1,0,0,0,.17-.66,1,1,0,0,0-.2-.65.65.65,0,0,0-.55-.21.7.7,0,0,0-.55.25,1,1,0,0,0-.18.66"/><rect class="cls-7" x="462.04" y="1945.8" width="3.47" height="0.41" transform="translate(-1503.37 2309.82) rotate(-87.07)"/><path class="cls-7" d="M466.73,1948.05l-.42-.06.05-.36h0a.78.78,0,0,1-.77.33c-.55-.07-.78-.44-.7-1.1l.18-1.39.4,0-.16,1.33q-.09.7.45.78a.55.55,0,0,0,.46-.14.78.78,0,0,0,.23-.48l.17-1.34.41,0Z"/><path class="cls-7" d="M469.53,1948.66l-.4-.09.3-1.3c.11-.47,0-.74-.34-.82a.54.54,0,0,0-.49.09.78.78,0,0,0-.29.46l-.31,1.3-.4-.09.54-2.28.41.09-.1.38h0a.83.83,0,0,1,.85-.25.72.72,0,0,1,.52.37,1.16,1.16,0,0,1,0,.75Z"/><path class="cls-7" d="M471.42,1949.25a.73.73,0,0,1-.37,0c-.4-.13-.53-.41-.38-.86l.42-1.28-.38-.13.1-.32.39.12.18-.53h.43l-.22.66.55.18-.1.33-.56-.18-.4,1.21a.61.61,0,0,0,0,.34.34.34,0,0,0,.22.18.39.39,0,0,0,.26,0Z"/><path class="cls-7" d="M474.18,1949.25l-1.51-.64a.82.82,0,0,0,0,.61.71.71,0,0,0,.43.4,1.09,1.09,0,0,0,.76.05l-.15.34a1.37,1.37,0,0,1-.84-.11,1,1,0,0,1-.6-.61,1.27,1.27,0,0,1,.08-.94,1.24,1.24,0,0,1,.64-.69,1,1,0,0,1,.85,0,.93.93,0,0,1,.55.55,1.21,1.21,0,0,1-.09.86Zm-.25-.47a.78.78,0,0,0,.05-.51.52.52,0,0,0-.32-.33.59.59,0,0,0-.47,0,.81.81,0,0,0-.39.35Z"/><path class="cls-7" d="M476.58,1950.51l-1.45-.78a.85.85,0,0,0-.09.61.76.76,0,0,0,.38.44,1.2,1.2,0,0,0,.75.12l-.17.32a1.41,1.41,0,0,1-.83-.19,1,1,0,0,1-.54-.67,1.28,1.28,0,0,1,.17-.92,1.29,1.29,0,0,1,.7-.63,1,1,0,0,1,.85.06.93.93,0,0,1,.49.6,1.23,1.23,0,0,1-.17.86Zm-.21-.49a.77.77,0,0,0,.1-.51.56.56,0,0,0-.28-.35.59.59,0,0,0-.47,0,.87.87,0,0,0-.43.32Z"/><path class="cls-7" d="M478.78,1950.91a.47.47,0,0,0-.66-.25,1,1,0,0,0-.45.41l-.65,1-.35-.22,1.28-2,.35.23-.26.4h0a.65.65,0,0,1,.8-.09.79.79,0,0,1,.16.14Z"/><path class="cls-7" d="M478.42,1952.39a1.09,1.09,0,0,0,.4.6c.26.19.45.21.58,0a.29.29,0,0,0,.05-.24,1.72,1.72,0,0,0-.22-.43,1.26,1.26,0,0,1-.21-.56.63.63,0,0,1,.13-.36.58.58,0,0,1,.52-.24,1.07,1.07,0,0,1,.62.25,1.37,1.37,0,0,1,.38.42l-.24.32a1,1,0,0,0-.37-.5.63.63,0,0,0-.31-.13.28.28,0,0,0-.24.11.28.28,0,0,0-.06.23,1.75,1.75,0,0,0,.2.4,1.46,1.46,0,0,1,.23.56.53.53,0,0,1-.13.39.57.57,0,0,1-.51.25,1.17,1.17,0,0,1-.66-.27,1.5,1.5,0,0,1-.42-.5Z"/><polygon class="cls-7" points="484.31 1954.42 483.42 1953.52 482.64 1954.29 483.46 1955.12 483.2 1955.39 482.37 1954.55 481.35 1955.56 481.05 1955.26 483.39 1952.95 484.58 1954.15 484.31 1954.42"/><path class="cls-7" d="M484.75,1957.8l-1-1.27a.86.86,0,0,0-.32.53.73.73,0,0,0,.19.55,1.16,1.16,0,0,0,.65.4l-.29.23a1.39,1.39,0,0,1-.69-.49,1.05,1.05,0,0,1-.25-.82,1.3,1.3,0,0,1,.52-.79,1.28,1.28,0,0,1,.88-.32,1,1,0,0,1,.76.38.91.91,0,0,1,.23.75,1.21,1.21,0,0,1-.48.72Zm0-.53a.72.72,0,0,0,.29-.43.52.52,0,0,0-.13-.43.58.58,0,0,0-.42-.22.9.9,0,0,0-.51.13Z"/><path class="cls-7" d="M485.46,1960.74l-.23-.34.32-.22h0a.87.87,0,0,1-.81-.43.84.84,0,0,1-.12-.76,1.25,1.25,0,0,1,.57-.69,1.37,1.37,0,0,1,.93-.27,1,1,0,0,1,.72.46.72.72,0,0,1,.08.78h0l1.21-.79.22.34Zm.93-1.11a.64.64,0,0,0,.3-.42.67.67,0,0,0-.59-.78,1,1,0,0,0-.67.21,1,1,0,0,0-.41.49.61.61,0,0,0,.07.54.66.66,0,0,0,.46.29.85.85,0,0,0,.57-.15Z"/><path class="cls-7" d="M487.73,1962.71l-.76-1.45a.86.86,0,0,0-.42.45.76.76,0,0,0,.07.58,1.14,1.14,0,0,0,.56.52l-.33.17a1.39,1.39,0,0,1-.57-.62,1,1,0,0,1-.08-.86,1.28,1.28,0,0,1,.66-.66,1.3,1.3,0,0,1,.93-.14,1,1,0,0,1,.67.53.9.9,0,0,1,.07.78,1.24,1.24,0,0,1-.61.61Zm.1-.52a.76.76,0,0,0,.37-.36.49.49,0,0,0,0-.45.59.59,0,0,0-.36-.29.81.81,0,0,0-.53,0Z"/><path class="cls-7" d="M489.34,1964.28a.52.52,0,0,0,0-.29.49.49,0,0,0-.37-.28,1,1,0,0,0-.6.08l-1.1.46-.16-.38,2.16-.91.16.39-.44.18h0a.63.63,0,0,1,.71.36.56.56,0,0,1,.06.22Z"/><path class="cls-7" d="M489.85,1964.93a1.47,1.47,0,0,1,.45.7.76.76,0,0,1-.58,1.08l-1.43.47-.13-.39.34-.11h0a.78.78,0,0,1-.62-.56.75.75,0,0,1,0-.57.62.62,0,0,1,.41-.34c.41-.14.74,0,1,.5l.31.63q.54-.18.39-.63a1.16,1.16,0,0,0-.51-.65Zm-.81,1a.84.84,0,0,0-.26-.34.44.44,0,0,0-.32,0,.34.34,0,0,0-.22.2.42.42,0,0,0,0,.33.65.65,0,0,0,.32.37.77.77,0,0,0,.52,0l.21-.07Z"/><path class="cls-7" d="M488.79,1969.1a.77.77,0,0,1-.16-.34c-.1-.4.08-.66.53-.77l1.32-.32-.09-.39.33-.08.09.39.55-.13.23.37-.68.17.13.56-.33.08-.14-.56-1.24.29a.52.52,0,0,0-.3.16.3.3,0,0,0,0,.27.37.37,0,0,0,.14.22Z"/><path class="cls-7" d="M488.89,1969.78l2.31-.41.07.41-2.31.41Zm3.11-.6a.23.23,0,0,1,.2,0,.26.26,0,0,1,.11.17.25.25,0,0,1,0,.19.3.3,0,0,1-.17.12.28.28,0,0,1-.2,0,.27.27,0,0,1-.1-.17.23.23,0,0,1,0-.2.21.21,0,0,1,.16-.1"/><path class="cls-7" d="M490.25,1970.82a1.26,1.26,0,0,1,.94.24,1.14,1.14,0,0,1,.42.84,1.06,1.06,0,0,1-.24.85,1.29,1.29,0,0,1-.86.39,1.22,1.22,0,0,1-.92-.23,1.23,1.23,0,0,1-.18-1.69,1.24,1.24,0,0,1,.84-.4m.05.42a.94.94,0,0,0-.61.27.67.67,0,0,0-.18.57.63.63,0,0,0,.28.52,1,1,0,0,0,.66.12,1,1,0,0,0,.64-.25.67.67,0,0,0,.18-.56.69.69,0,0,0-.3-.53,1,1,0,0,0-.67-.14"/><path class="cls-7" d="M489.33,1976v-.41l1.33,0c.48,0,.73-.17.73-.52a.55.55,0,0,0-.19-.45.77.77,0,0,0-.52-.18l-1.33,0V1974l2.35,0v.41h-.39a.84.84,0,0,1,.44.77.74.74,0,0,1-.26.58,1.06,1.06,0,0,1-.73.19Z"/></g><path class="cls-3" d="M469.93,1961.79l-8.55,9.39-.16.21c-1.22,1.45-3.44,3.94-6.34,2.7-2.21-.94-3.68-3.58-6.09-4.21a4.23,4.23,0,0,0-5.09,3.88c2.74.06,4.53,1.6,4.93,5.32.44,4.05,1.12,6.7,3.18,8.57a9.91,9.91,0,0,0,13.18,1,7.37,7.37,0,0,0,.93-.74c2.2-2,4.33-4.18,5.76-5.67a1.51,1.51,0,0,0,.23-.21l.87-1,.61-.65h0l7.07-7.77a1.59,1.59,0,1,0-2.34-2.14l-7.41,8.15a.39.39,0,0,1-.48,0,.38.38,0,0,1,0-.54l.58-.64h0l8.54-9.39A1.59,1.59,0,1,0,477,1966l-8.49,9.33h0l-.48.52a.47.47,0,0,1-.67,0,.46.46,0,0,1,0-.66l.21-.25a.86.86,0,0,0,.14-.13l8.54-9.39a1.58,1.58,0,1,0-2.34-2.13l-8.55,9.39a.64.64,0,0,0-.1.13l0,0a.37.37,0,0,1-.58-.45l7.67-8.44a1.59,1.59,0,1,0-2.34-2.14"/><g class="cls-28"><rect class="cls-29" x="439.03" y="1952.24" width="46.67" height="47.51" transform="translate(-1337.28 1038.13) rotate(-49.3)"/></g><g class="cls-25"><polygon class="cls-7" points="475.57 1978.5 473.69 1974.95 467.58 1978.19 467.58 1971.25 463.49 1971.25 463.49 1978.08 457.56 1974.73 455.59 1978.23 461.35 1981.49 455.5 1984.59 457.38 1988.14 463.49 1984.9 463.49 1991.84 467.58 1991.84 467.58 1985.01 473.51 1988.36 475.48 1984.86 469.72 1981.6 475.57 1978.5"/></g><text class="cls-30" transform="translate(1066.82 1494.03)">参与总人数57人</text><text class="cls-31" transform="translate(401.99 1551.26)"><tspan xml:space="preserve">     201</tspan><tspan class="cls-32" x="89.63" y="0">6年5月</tspan><tspan x="207.16" y="0">1</tspan><tspan class="cls-32" x="223.54" y="0">7日</tspan><tspan x="282.3" y="0">17:1</tspan><tspan class="cls-32" x="340.88" y="0">0</tspan><tspan x="364.7" y="0">深圳公益救援队接大亚湾消防支队警情，</tspan><tspan class="cls-32" x="859.7" y="0">2</tspan><tspan x="883.52" y="0">名市民在</tspan><tspan x="0" y="40">排牙山登山过程</tspan><tspan class="cls-33" x="192.5" y="40">中1</tspan><tspan x="248.88" y="40">人坠崖身受重伤</tspan><tspan class="cls-34" x="441.38" y="40">，</tspan><tspan class="cls-35" x="462.45" y="40">事故现场地势险要救援难度极大</tspan><tspan class="cls-36" x="847.45" y="40">，</tspan><tspan x="868.52" y="40">情况危急</tspan><tspan class="cls-37" x="978.52" y="40">。</tspan><tspan x="0" y="80">我队随即启动救援行动先后召集先遣小组</tspan><tspan class="cls-38" x="495" y="80">和2</tspan><tspan x="557.32" y="80">个行动梯队共</tspan><tspan class="cls-39" x="722.32" y="80">计</tspan><tspan x="759.05" y="80">3</tspan><tspan class="cls-38" x="775.42" y="80">4</tspan><tspan x="801.02" y="80">名队员前往现场</tspan><tspan x="0" y="120">协助救援</tspan><tspan class="cls-37" x="110" y="120">。</tspan><tspan x="125" y="120">21:5</tspan><tspan class="cls-33" x="183.58" y="120">7</tspan><tspan x="206.2" y="120">先遣小组抵达现场</tspan><tspan class="cls-40" x="426.2" y="120">，</tspan><tspan class="cls-41" x="445.98" y="120">确认事主滑坠</tspan><tspan class="cls-33" x="610.98" y="120">近</tspan><tspan x="644.73" y="120">1</tspan><tspan class="cls-33" x="661.11" y="120">0</tspan><tspan x="683.73" y="120">米高差</tspan><tspan class="cls-42" x="766.23" y="120">，</tspan><tspan x="786.02" y="120">脊柱第高位骨折</tspan><tspan class="cls-37" x="978.52" y="120">，</tspan><tspan class="cls-43"><tspan x="0" y="160">且仅靠一棵小树支撑才未继续滑</tspan><tspan class="cls-44" x="391.69" y="160">坠</tspan><tspan class="cls-45" x="419.19" y="160">。</tspan><tspan class="cls-46" x="434.43" y="160">医疗队员快速开展伤情检查和专业脊柱伤医</tspan><tspan class="cls-47" x="966.02" y="160">疗</tspan></tspan><tspan x="0" y="200">处置</tspan><tspan class="cls-48" x="55" y="200">，</tspan><tspan x="71.02" y="200">搜救队员在悬崖的受限空间内架设绳索系统对事主进行吊运和转运</tspan><tspan class="cls-37" x="868.52" y="200">。</tspan><tspan x="883.52" y="200">排牙山山</tspan><tspan x="0" y="240">路崎岖</tspan><tspan class="cls-49" x="82.5" y="240">，</tspan><tspan x="100.23" y="240">当晚风雨交加</tspan><tspan class="cls-49" x="265.23" y="240">，</tspan><tspan x="282.96" y="240">能见度不</tspan><tspan class="cls-33" x="392.96" y="240">及2</tspan><tspan class="cls-41" x="449.34" y="240">米</tspan><tspan class="cls-50" x="476.84" y="240">，</tspan><tspan x="494.57" y="240">给伤员运输带来巨大困难</tspan><tspan class="cls-37" x="797.07" y="240">。</tspan><tspan x="812.07" y="240">1</tspan><tspan class="cls-33" x="828.44" y="240">8日</tspan><tspan x="884.82" y="240">10:4</tspan><tspan class="cls-33" x="943.39" y="240">2</tspan><tspan x="966.02" y="240">经</tspan><tspan x="0" y="280">过</tspan><tspan class="cls-33" x="27.5" y="280">近</tspan><tspan x="61.25" y="280">1</tspan><tspan class="cls-33" x="77.63" y="280">7</tspan><tspan x="100.25" y="280">小时的艰苦奋战</tspan><tspan class="cls-51" x="292.75" y="280">，</tspan><tspan x="309.82" y="280">联合搜救队将事主安全转运下山交</tspan><tspan class="cls-33" x="722.32" y="280">由</tspan><tspan x="756.07" y="280">12</tspan><tspan class="cls-33" x="788.82" y="280">0</tspan><tspan x="811.45" y="280">急救</tspan><tspan class="cls-52" x="866.45" y="280">，</tspan><tspan x="883.52" y="280">成功拯救</tspan><tspan x="0" y="320">生命</tspan><tspan class="cls-37" x="55" y="320">。</tspan><tspan x="70" y="320">事主后续基本恢复正常行动能力</tspan><tspan class="cls-53" x="455" y="320">。</tspan></text><text class="cls-54" transform="translate(823.41 1991.41)">生命勋章</text><text class="cls-55" transform="translate(1113.95 1987.82)">2016<tspan class="cls-56" x="87.7" y="0">年</tspan><tspan x="123.7" y="0">5</tspan><tspan class="cls-56" x="145.62" y="0">月</tspan><tspan x="181.62" y="0">17</tspan><tspan class="cls-56" x="225.47" y="0">日</tspan></text><text class="cls-57" transform="translate(401.99 1479.66)">姓名</text><text class="cls-58" transform="translate(476.14 1488.85)">###NAME###</text><text class="cls-57" transform="translate(672.74 1484.9)">编号</text><text class="cls-59" transform="translate(753.5 1493.24)">###NUMBER###</text><text class="cls-60" transform="translate(401.99 1364.56)">排牙山1人坠崖救援</text><line class="cls-61" x1="406.12" y1="1407.19" x2="1386.62" y2="1407.19"/></svg>
